<svg width="24" height="24" viewBox="0 0 24 24" fill="none" xmlns="http://www.w3.org/2000/svg">
<path fill-rule="evenodd" clip-rule="evenodd" d="M6.34104 2.31179C10.1022 1.89607 13.8978 1.89607 17.6589 2.31179C19.7413 2.54481 21.4214 4.18196 21.6657 6.26815C22.1114 10.0764 22.1114 13.9236 21.6657 17.7319C21.4214 19.818 19.7413 21.4552 17.6589 21.6882C13.8978 22.1039 10.1022 22.1039 6.34104 21.6882C4.2586 21.4552 2.57855 19.818 2.3342 17.7319C1.8886 13.924 1.8886 10.0772 2.3342 6.26936C2.45779 5.25584 2.92061 4.31369 3.64764 3.5956C4.37468 2.87751 5.32332 2.42556 6.33982 2.31301M12 5.94047C12.2418 5.94047 12.4737 6.03637 12.6447 6.20706C12.8157 6.37776 12.9117 6.60927 12.9117 6.85068V11.0898H17.158C17.3999 11.0898 17.6318 11.1857 17.8027 11.3564C17.9737 11.5271 18.0698 11.7586 18.0698 12C18.0698 12.2414 17.9737 12.4729 17.8027 12.6436C17.6318 12.8143 17.3999 12.9102 17.158 12.9102H12.9117V17.1493C12.9117 17.3907 12.8157 17.6222 12.6447 17.7929C12.4737 17.9636 12.2418 18.0595 12 18.0595C11.7582 18.0595 11.5262 17.9636 11.3553 17.7929C11.1843 17.6222 11.0882 17.3907 11.0882 17.1493V12.9102H6.84189C6.60008 12.9102 6.36817 12.8143 6.19719 12.6436C6.0262 12.4729 5.93014 12.2414 5.93014 12C5.93014 11.7586 6.0262 11.5271 6.19719 11.3564C6.36817 11.1857 6.60008 11.0898 6.84189 11.0898H11.0882V6.85068C11.0882 6.60927 11.1843 6.37776 11.3553 6.20706C11.5262 6.03637 11.7582 5.94047 12 5.94047Z" fill="#1E00FF"/>
</svg>
