<svg width="41" height="40" viewBox="0 0 41 40" fill="none" xmlns="http://www.w3.org/2000/svg">
<circle cx="20.6992" cy="20" r="20" fill="#6993FF"/>
<path d="M24.4199 10.0009H13.2575C11.8465 10.0009 10.6997 11.1485 10.6997 12.5587V25.5812C10.6997 26.9922 11.8473 28.139 13.2575 28.139H17.997C16.6497 26.7559 15.8151 24.8695 15.8151 22.7906C15.8151 22.7121 15.8247 22.6363 15.8265 22.5578H14.187C13.8015 22.5578 13.4893 22.2456 13.4893 21.8601C13.4893 21.4747 13.8015 21.1625 14.187 21.1625H15.9921C16.1735 20.3279 16.4945 19.5465 16.9235 18.8367H14.186C13.8006 18.8367 13.4884 18.5245 13.4884 18.139C13.4884 17.7535 13.8006 17.4413 14.186 17.4413H17.996C19.3913 16.0094 21.336 15.1155 23.4884 15.1155C24.745 15.1155 25.9285 15.4251 26.9766 15.9632V12.5578C26.9766 11.1468 25.829 10 24.4189 10L24.4199 10.0009ZM18.8387 15.1173H14.188C13.8025 15.1173 13.4903 14.8051 13.4903 14.4197C13.4903 14.0342 13.8025 13.722 14.188 13.722H18.8387C19.2241 13.722 19.5363 14.0342 19.5363 14.4197C19.5363 14.8051 19.2241 15.1173 18.8387 15.1173ZM30.4947 28.8096C30.7677 29.0826 30.7677 29.5238 30.4947 29.7959C30.3587 29.932 30.1799 30 30.0011 30C29.8224 30 29.6445 29.932 29.5076 29.7959L28.3965 28.6849C28.7541 28.3867 29.0846 28.0562 29.3829 27.6986L30.4939 28.8096H30.4947ZM23.4903 16.5126C20.0282 16.5126 17.2114 19.3294 17.2114 22.7915C17.2114 26.2536 20.0282 29.0704 23.4903 29.0704C26.9524 29.0704 29.7692 26.2536 29.7692 22.7915C29.7692 19.3294 26.9524 16.5126 23.4903 16.5126ZM25.8545 22.2412L23.8191 24.3699C23.6011 24.5984 23.295 24.7301 22.9784 24.7301C22.6627 24.7301 22.3558 24.5984 22.1378 24.3699L21.1253 23.3104C20.8593 23.0313 20.8689 22.59 21.1471 22.324C21.4253 22.0572 21.8657 22.0677 22.1334 22.3458L22.9784 23.2301L24.8455 21.2776C25.1115 20.9976 25.5537 20.9889 25.8319 21.2549C26.1109 21.5209 26.1205 21.9621 25.8545 22.2412Z" fill="white"/>
</svg>
