<svg width="52" height="52" viewBox="0 0 52 52" fill="none" xmlns="http://www.w3.org/2000/svg">
<rect x="0.5" y="0.5" width="51" height="51" rx="25.5" stroke="url(#paint0_linear_1_9578)"/>
<path d="M12.446 38.8398C12.381 38.7788 12.3159 38.7177 12.2366 38.586C12.1667 38.4751 12.111 38.4348 12.0554 38.3945C12.0554 38.3945 12.0739 38.3516 12.0678 38.3378C12.0236 38.3023 11.9856 38.2806 11.9476 38.2589C11.9476 38.2589 11.9672 38.2424 11.958 38.2186C11.9114 38.1719 11.8741 38.1489 11.8368 38.1259C11.8368 38.1259 11.849 38.122 11.842 38.095C11.7999 38.0433 11.7649 38.0187 11.7298 37.9942C11.7298 37.9942 11.7401 37.9903 11.7364 37.9553C11.6587 37.8598 11.5848 37.7995 11.5109 37.7391C11.5109 37.7391 11.4794 37.7212 11.4808 37.659C11.4048 37.5273 11.3274 37.4578 11.25 37.3884C11.25 37.3884 11.2576 37.3844 11.255 37.3485C11.1986 37.2674 11.1449 37.2223 11.0911 37.1771C11.0911 37.1771 11.1348 37.1555 11.124 37.1269C11.0407 37.0319 10.9681 36.9654 10.8956 36.899C10.8956 36.899 10.8693 36.8824 10.8681 36.8234C10.7624 36.6459 10.6579 36.5274 10.5534 36.4089C10.5534 36.4089 10.5207 36.3785 10.5213 36.3139C10.4683 36.1973 10.4148 36.1454 10.3612 36.0934C10.3612 36.0934 10.3997 36.0652 10.3932 36.0376C10.3028 35.911 10.219 35.812 10.1351 35.7129C10.1351 35.7129 10.157 35.6977 10.1558 35.667C10.103 35.5864 10.0514 35.5365 9.99986 35.4866C9.99986 35.4866 10.0152 35.4506 10.0139 35.4357C9.98056 35.3915 9.94861 35.3623 9.91667 35.3331C9.91667 35.3331 9.92676 35.3309 9.92698 35.2902C9.81109 35.0731 9.69498 34.8965 9.57887 34.72C9.57887 34.72 9.54946 34.6867 9.55406 34.6183C9.44535 34.3642 9.33204 34.1784 9.21874 33.9926C9.19132 33.9634 9.17305 33.9293 9.17295 33.8149C9.12942 33.6789 9.07686 33.6182 9.0243 33.5576C9.0243 33.5576 9.05139 33.5522 9.05533 33.5051C8.90243 33.1149 8.7456 32.7716 8.58876 32.4284C8.23157 30.8702 7.70321 29.3287 7.54946 27.7507C7.09873 23.1247 8.25585 18.8746 10.9835 15.0149C11.061 14.9386 11.0728 14.8959 11.0845 14.8533C11.0845 14.8533 11.1297 14.8549 11.1468 14.8505C11.1921 14.7782 11.2205 14.7103 11.2488 14.6424C11.2488 14.6424 11.2563 14.6525 11.2937 14.6455C11.3688 14.5489 11.4065 14.4593 11.4443 14.3697C11.4443 14.3697 11.4782 14.4062 11.5025 14.3846C11.5559 14.2958 11.585 14.2285 11.6141 14.1612C11.6141 14.1612 11.6201 14.169 11.6572 14.1629C11.7397 14.0703 11.7851 13.9836 11.8305 13.897C11.8305 13.897 11.8609 13.9156 11.8788 13.9023C11.91 13.8482 11.9232 13.8075 11.9364 13.7668C11.9364 13.7668 11.9744 13.7909 11.9913 13.7761C12.0168 13.7214 12.0254 13.6815 12.034 13.6416C12.034 13.6416 12.0455 13.6361 12.0857 13.6347C12.1571 13.5676 12.1883 13.5019 12.2195 13.4363C12.2195 13.4363 12.2244 13.444 12.2638 13.4394C12.3936 13.3056 12.4838 13.1765 12.5741 13.0474C12.5793 13.0138 12.5946 12.9858 12.68 12.9453C12.7631 12.8839 12.7864 12.8406 12.8096 12.7973C12.8155 12.7637 12.8326 12.7372 12.9187 12.7016C12.9977 12.6444 13.0187 12.6034 13.0397 12.5624C13.0397 12.5624 13.0637 12.5884 13.0859 12.5734C13.1296 12.5176 13.1509 12.477 13.1723 12.4364C13.1788 12.4021 13.1964 12.3752 13.2836 12.3404C13.3651 12.2856 13.388 12.2458 13.411 12.2061C13.411 12.2061 13.4214 12.2235 13.4467 12.2126C13.4934 12.1642 13.5147 12.1266 13.536 12.0891C13.536 12.0891 13.5451 12.1086 13.5807 12.1039C13.7153 11.981 13.8143 11.8626 13.9132 11.7443C13.9132 11.7443 13.917 11.7518 13.9529 11.7485C14.0265 11.6889 14.0641 11.6325 14.1017 11.5761C14.1017 11.5761 14.1122 11.5792 14.1467 11.5804C14.1991 11.5437 14.2169 11.5057 14.2347 11.4678C14.2347 11.4678 14.2577 11.4968 14.283 11.4825C14.3318 11.4322 14.3552 11.396 14.3786 11.3599C14.3786 11.3599 14.3896 11.3775 14.4149 11.3669C14.4615 11.3186 14.4828 11.281 14.5042 11.2433C14.5042 11.2433 14.5124 11.2622 14.5459 11.2579C14.6426 11.1801 14.7059 11.1066 14.7692 11.033C14.7692 11.033 14.7907 11.0038 14.8532 11.0056C15.0278 10.8931 15.14 10.7787 15.2522 10.6644C15.2522 10.6644 15.271 10.6363 15.3321 10.6395C15.4633 10.5656 15.5336 10.4885 15.6038 10.4114C15.6038 10.4114 15.6088 10.4214 15.6437 10.419C15.7268 10.3649 15.7751 10.3133 15.8233 10.2617C15.8233 10.2617 15.8411 10.2957 15.872 10.2889C15.9997 10.1974 16.0964 10.1126 16.193 10.0279C16.193 10.0279 16.2038 10.0494 16.2388 10.0459C16.4163 9.92856 16.5589 9.8147 16.7014 9.70085C16.7014 9.70085 16.7276 9.6728 16.7901 9.67638C16.9017 9.62499 16.9506 9.57001 16.9996 9.51504C16.9996 9.51504 17.0121 9.51482 17.0575 9.52748C17.3614 9.3778 17.6199 9.21546 17.8783 9.05313C17.8783 9.05313 17.8937 9.08617 17.9265 9.07986C18.0124 9.02472 18.0654 8.97589 18.1184 8.92706C18.1184 8.92706 18.1386 8.93895 18.1716 8.94723C18.3083 8.88426 18.412 8.81301 18.5157 8.74176C18.5157 8.74176 18.5527 8.71514 18.6221 8.71932C18.9497 8.59603 19.2078 8.46856 19.4659 8.34109C19.4659 8.34109 19.4731 8.35885 19.5145 8.36003C19.634 8.34822 19.7137 8.34108 19.7902 8.32138C21.0369 8.00029 22.2828 7.67579 23.53 7.35637C23.9139 7.25805 24.3011 7.17263 24.6868 7.08131C24.7762 7.06834 24.8657 7.05538 25.0344 7.07995C25.4128 7.08471 25.7119 7.05194 26.011 7.01916C26.2964 7.01394 26.5819 7.00872 26.953 7.04906C28.6068 7.35779 30.1778 7.60588 31.7418 7.89215C32.3045 7.99514 32.8503 8.19 33.4038 8.34293C33.4038 8.34293 33.3905 8.35732 33.4123 8.38749C33.7135 8.51405 33.9931 8.61043 34.2726 8.70682C34.2726 8.70682 34.3145 8.71034 34.3398 8.76632C34.4916 8.85739 34.6181 8.89248 34.7446 8.92756C34.7446 8.92756 34.7171 8.94838 34.7403 8.97688C34.8371 9.02069 34.9108 9.036 34.9845 9.05132C34.9845 9.05132 34.9639 9.08678 34.9825 9.11272C35.1553 9.19347 35.3096 9.24828 35.4639 9.30309C35.4639 9.30309 35.4391 9.32632 35.4599 9.35602C35.6022 9.42273 35.7236 9.45976 35.845 9.49678C35.845 9.49678 35.8544 9.50825 35.8601 9.55343C35.9429 9.62089 36.0202 9.64317 36.0974 9.66545C36.0974 9.66545 36.1356 9.6693 36.1556 9.72473C36.3433 9.86237 36.5109 9.94458 36.6785 10.0268C36.6785 10.0268 36.659 10.0502 36.6744 10.0789C36.8083 10.1584 36.9268 10.2091 37.0453 10.2599C37.0453 10.2599 37.0206 10.303 37.0362 10.3233C37.2404 10.4502 37.4289 10.5567 37.6175 10.6633C37.6175 10.6633 37.6151 10.6642 37.6197 10.7077C37.7648 10.8307 37.9053 10.9102 38.0457 10.9897C38.0457 10.9897 38.0779 10.9971 38.0928 11.0518C38.1945 11.1515 38.2814 11.1966 38.3683 11.2416C38.3683 11.2416 38.3514 11.2631 38.3639 11.2844C38.416 11.3225 38.4556 11.3393 38.4952 11.3561C38.4952 11.3561 38.4662 11.3844 38.4847 11.4027C38.5436 11.4336 38.5839 11.4461 38.6241 11.4586C38.6241 11.4586 38.5928 11.5026 38.6114 11.5207C38.6964 11.5686 38.7627 11.5983 38.8291 11.6281C38.8291 11.6281 38.8243 11.6312 38.836 11.6587C38.8844 11.7053 38.9212 11.7243 38.958 11.7434C38.958 11.7434 38.9467 11.7491 38.9535 11.7863C39.0472 11.8748 39.134 11.9261 39.2208 11.9774C39.2563 11.9824 39.2845 11.9994 39.3223 12.0868C39.3793 12.1665 39.4195 12.1879 39.4597 12.2092C39.4597 12.2092 39.4433 12.221 39.4572 12.2481C39.5141 12.2945 39.5571 12.3139 39.6001 12.3332C39.6321 12.3398 39.6573 12.3565 39.6891 12.442C39.7442 12.5221 39.7857 12.5436 39.8273 12.5651C39.8273 12.5651 39.7935 12.5872 39.8126 12.6086C39.8705 12.648 39.9094 12.6661 39.9483 12.6841C39.9483 12.6841 39.9188 12.7212 39.9353 12.7365C39.9903 12.7709 40.0288 12.7902 40.0673 12.8094C40.0673 12.8094 40.0465 12.831 40.0602 12.8548C40.1164 12.8984 40.1589 12.9183 40.2013 12.9382C40.2347 12.9465 40.2598 12.9657 40.2831 13.0627C40.4644 13.2911 40.639 13.4528 40.8136 13.6145C40.8136 13.6145 40.8221 13.629 40.818 13.6675C40.8507 13.7225 40.8875 13.7391 40.9243 13.7557C40.9243 13.7557 40.9147 13.7688 40.9194 13.8012C40.9623 13.8532 41.0004 13.8728 41.0384 13.8925C41.0384 13.8925 41.0146 13.9285 41.0186 13.9535C41.1377 14.082 41.2529 14.1854 41.368 14.2888C41.368 14.2888 41.3627 14.2905 41.3639 14.3249C41.4306 14.4209 41.496 14.4825 41.5614 14.5441C41.5614 14.5441 41.5996 14.5781 41.6068 14.6437C41.6702 14.752 41.7265 14.7948 41.7828 14.8375C41.7828 14.8375 41.778 14.8468 41.7768 14.8841C41.813 14.9457 41.8504 14.97 41.8879 14.9942C41.9239 15.0082 41.949 15.0331 41.9682 15.1351C42.0256 15.2494 42.078 15.2976 42.1305 15.3458C42.1305 15.3458 42.0865 15.3662 42.0993 15.3953C42.1818 15.4918 42.2515 15.5593 42.3212 15.6268C42.3212 15.6268 42.3503 15.6529 42.3479 15.7156C42.4002 15.8276 42.4549 15.877 42.5096 15.9263C42.5096 15.9263 42.5081 15.9376 42.4974 15.9797C42.645 16.2454 42.8033 16.469 42.9616 16.6926C42.9616 16.6926 42.9416 16.7023 42.9444 16.7346C42.9961 16.8198 43.045 16.8726 43.094 16.9253C43.094 16.9253 43.0662 16.9512 43.0676 16.9807C43.1454 17.1119 43.2218 17.2137 43.2981 17.3156C43.2981 17.3156 43.3237 17.3433 43.3186 17.4054C43.3641 17.5253 43.4148 17.5831 43.4655 17.641C43.4655 17.641 43.4196 17.6529 43.429 17.6915C43.5109 17.834 43.5834 17.9378 43.6559 18.0417C43.6559 18.0417 43.682 18.0769 43.675 18.147C43.8728 18.6789 44.0776 19.1408 44.2824 19.6026C44.2824 19.6026 44.269 19.6057 44.2678 19.6496C44.7922 21.5722 45.2584 23.4605 45.2489 25.4315C45.2485 25.5101 45.3446 25.5892 45.3958 25.6681C45.405 25.8694 45.4142 26.0706 45.3713 26.344C45.2942 26.4693 45.2542 26.5203 45.2462 26.5759C45.0462 27.9676 44.8528 29.3602 44.6503 30.7515C44.5889 31.1737 44.5041 31.5925 44.43 32.0129C44.43 32.0129 44.4359 32.0425 44.387 32.078C44.3265 32.2007 44.315 32.2878 44.3035 32.3749C44.3035 32.3749 44.3059 32.4054 44.2545 32.4352C44.0196 32.9724 43.8361 33.48 43.6526 33.9875C43.6526 33.9875 43.6606 33.9934 43.6135 34.0021C43.4854 34.2233 43.4045 34.4359 43.3236 34.6484C43.3236 34.6484 43.3184 34.6904 43.2624 34.7134C43.1199 34.9384 43.0333 35.1404 42.9468 35.3424C42.9468 35.3424 42.9389 35.333 42.9141 35.3489C42.8829 35.4066 42.8765 35.4485 42.8701 35.4904C42.8701 35.4904 42.8185 35.4859 42.8005 35.495C42.761 35.5837 42.7396 35.6632 42.7182 35.7428C42.7182 35.7428 42.717 35.781 42.6613 35.8015C42.5725 35.9136 42.5394 36.0052 42.5064 36.0968C42.5064 36.0968 42.4875 36.0823 42.4535 36.0943C42.3964 36.1831 42.3733 36.2598 42.3502 36.3366C42.3502 36.3366 42.344 36.3807 42.2884 36.4032C42.1957 36.5131 42.1586 36.6006 42.1214 36.688C42.1214 36.688 42.1016 36.6693 42.0757 36.6847C42.0239 36.7692 41.998 36.8382 41.9722 36.9071C41.9722 36.9071 41.9674 36.9011 41.9287 36.9074C41.8523 37.0035 41.8146 37.0933 41.7768 37.1831C41.7768 37.1831 41.7341 37.1542 41.7155 37.1712C41.6687 37.2567 41.6403 37.3251 41.612 37.3934C41.612 37.3934 41.6058 37.3847 41.5678 37.3911C41.4905 37.4873 41.4511 37.577 41.4117 37.6667C41.4117 37.6667 41.3692 37.6376 41.3477 37.6524C41.2618 37.7789 41.1973 37.8906 41.1328 38.0023C41.1328 38.0023 41.1256 37.9917 41.0938 38.0047C41.0134 38.1017 40.9648 38.1857 40.9161 38.2698C40.9161 38.2698 40.8903 38.2449 40.87 38.2586C40.8388 38.3138 40.8278 38.3553 40.8168 38.3968C40.8168 38.3968 40.7847 38.3781 40.7594 38.3885C40.7023 38.4644 40.6705 38.53 40.6387 38.5956C40.6387 38.5956 40.6375 38.5927 40.5965 38.5961C40.4286 38.7667 40.3019 38.934 40.1751 39.1012C40.1751 39.1012 40.1657 39.0892 40.1379 39.1007C40.0903 39.1544 40.0706 39.1966 40.0509 39.2388C40.0473 39.2737 40.0305 39.3004 39.9419 39.334C39.8598 39.3893 39.8364 39.4295 39.8131 39.4698C39.8131 39.4698 39.8092 39.4569 39.78 39.4666C39.7301 39.5176 39.7094 39.559 39.6887 39.6004C39.6841 39.6363 39.6665 39.6639 39.5679 39.6883C39.3425 39.8704 39.1851 40.0472 39.0277 40.224C39.0277 40.224 39.0098 40.2369 38.9687 40.2299C38.9167 40.2602 38.9059 40.2974 38.8951 40.3346C38.8951 40.3346 38.8819 40.3421 38.8427 40.3392C38.7868 40.3754 38.7701 40.4143 38.7534 40.4533C38.7534 40.4533 38.73 40.4164 38.7037 40.433C38.6567 40.4882 38.636 40.5268 38.6153 40.5655C38.6153 40.5655 38.5903 40.5429 38.5701 40.5533C38.5266 40.6009 38.5033 40.6381 38.48 40.6752C38.48 40.6752 38.4754 40.6622 38.4481 40.6706C38.3987 40.7164 38.3766 40.7537 38.3545 40.7911C38.3545 40.7911 38.347 40.7746 38.3126 40.7781C38.2401 40.8381 38.2019 40.8946 38.1637 40.9511C38.1637 40.9511 38.1517 40.9493 38.1152 40.9451C38.0566 40.9774 38.0346 41.014 38.0125 41.0506C38.0125 41.0506 37.9931 41.0081 37.9617 41.0211C37.8679 41.1106 37.8054 41.1871 37.7429 41.2635C37.7429 41.2635 37.7372 41.2544 37.7117 41.2625C37.6611 41.3019 37.6361 41.3332 37.611 41.3645C37.611 41.3645 37.5894 41.3951 37.5269 41.3928C37.3942 41.4665 37.3239 41.5425 37.2536 41.6185C37.2536 41.6185 37.2526 41.6152 37.2154 41.6163C37.129 41.668 37.0797 41.7187 37.0305 41.7693C37.0305 41.7693 37.0205 41.7512 36.9853 41.7527C36.9005 41.8125 36.8509 41.8709 36.8013 41.9292C36.7851 41.9584 36.761 41.9777 36.6631 41.9876C36.5481 42.0429 36.4989 42.0977 36.4496 42.1525C36.4496 42.1525 36.4011 42.1188 36.3848 42.1225C36.299 42.1937 36.2296 42.2612 36.1601 42.3287C36.1601 42.3287 36.1307 42.3583 36.0635 42.3558C35.6563 42.5619 35.3164 42.7705 34.9764 42.9792C34.9764 42.9792 34.9605 42.9556 34.9307 42.9576C34.845 43.0067 34.7891 43.054 34.7332 43.1012C34.7332 43.1012 34.7232 43.0812 34.6887 43.0786C34.5511 43.1462 34.4481 43.2164 34.3452 43.2866C34.3452 43.2866 34.3054 43.3148 34.2317 43.3126C33.6148 43.5458 33.0716 43.781 32.5283 44.0163C32.5283 44.0163 32.5234 44.027 32.4684 44.0224C32.2347 44.0361 32.0525 44.0375 31.8781 44.0754C30.9078 44.2861 29.9391 44.5047 28.9703 44.7228C28.6246 44.8007 28.2804 44.8848 27.9355 44.9661C27.8463 44.9766 27.7571 44.9872 27.5856 44.9584C26.7632 44.9411 26.0232 44.963 25.2832 44.9849C25.2298 44.9877 25.1764 44.9904 25.0701 44.9373C24.3174 44.8092 23.6176 44.737 22.9179 44.6647C22.9179 44.6647 22.8922 44.6795 22.8543 44.632C22.0498 44.4097 21.2833 44.2347 20.5167 44.0598C20.5167 44.0598 20.4783 44.0673 20.4439 44.0156C20.0681 43.8613 19.7266 43.7588 19.3851 43.6562C19.3851 43.6562 19.3732 43.6642 19.3593 43.6152C19.1229 43.4923 18.9004 43.4185 18.6779 43.3447C18.6779 43.3447 18.6529 43.3473 18.6256 43.2977C18.4411 43.1956 18.2838 43.1431 18.1264 43.0907C18.1264 43.0907 18.1403 43.0784 18.1249 43.0437C17.8949 42.9215 17.6803 42.8339 17.4656 42.7463C17.4656 42.7463 17.4412 42.746 17.4177 42.7044C17.3503 42.6538 17.3065 42.6449 17.2626 42.636C17.2626 42.636 17.2513 42.6199 17.2514 42.5847C17.0931 42.4863 16.9346 42.4231 16.7762 42.36C16.7762 42.36 16.7334 42.3551 16.7106 42.2994C16.5975 42.2122 16.507 42.1808 16.4166 42.1493C16.4166 42.1493 16.4366 42.0997 16.4232 42.0841C16.3384 42.0444 16.2669 42.0203 16.1954 41.9962C16.1954 41.9962 16.207 41.9861 16.1926 41.9611C16.1362 41.9265 16.0942 41.9169 16.0522 41.9073C16.0522 41.9073 16.0895 41.9001 16.0676 41.8641C15.9738 41.8048 15.9018 41.7817 15.8298 41.7585C15.8298 41.7585 15.8435 41.7458 15.83 41.7208C15.7745 41.685 15.7325 41.6741 15.6906 41.6631C15.6906 41.6631 15.7234 41.6417 15.7047 41.6077C15.5612 41.5156 15.4363 41.4576 15.3115 41.3996C15.3115 41.3996 15.2745 41.3931 15.2504 41.3501C15.1906 41.2906 15.1548 41.274 15.1191 41.2574C15.1191 41.2574 15.1262 41.2529 15.1205 41.2145C15.0264 41.1333 14.938 41.0907 14.8495 41.048C14.8495 41.048 14.8668 41.013 14.8547 40.9965C14.8009 40.9702 14.7591 40.9602 14.7173 40.9503C14.7173 40.9503 14.7269 40.9261 14.7228 40.8927C14.6061 40.7945 14.4935 40.7298 14.3809 40.6651C14.3809 40.6651 14.3921 40.6559 14.3804 40.6301C14.3287 40.5874 14.2888 40.5704 14.2489 40.5533C14.2489 40.5533 14.2646 40.5452 14.254 40.518C14.2016 40.4774 14.1599 40.4639 14.1182 40.4504C14.1182 40.4504 14.1558 40.4136 14.1359 40.3966C14.0747 40.3684 14.0333 40.3573 13.992 40.3461C13.992 40.3461 13.9901 40.3354 13.9895 40.3014C13.9504 40.2606 13.912 40.2538 13.8735 40.2471C13.8735 40.2471 13.8565 40.235 13.8605 40.1865C13.6705 39.99 13.4766 39.8418 13.2826 39.6937C13.2467 39.6891 13.2179 39.6723 13.1803 39.5844C13.1252 39.5021 13.086 39.4788 13.0468 39.4554C13.0468 39.4554 13.0584 39.4521 13.0475 39.4236C12.9958 39.3739 12.9551 39.3527 12.9144 39.3316C12.9144 39.3316 12.8677 39.3124 12.8524 39.2509C12.7485 39.1156 12.6598 39.0419 12.5712 38.9681C12.5712 38.9681 12.5813 38.9601 12.57 38.9338C12.5211 38.885 12.4836 38.8624 12.446 38.8398ZM23.7396 34.4608C23.7396 34.4608 23.7396 34.4522 23.7213 34.5686C23.7188 35.0231 23.698 35.4787 23.7233 35.9317C23.7326 36.0978 23.8509 36.2578 23.938 36.4983C23.9372 36.5515 23.9364 36.6046 23.9007 36.6893C23.9276 36.716 23.9545 36.7427 24.0587 36.8038C24.249 36.7945 24.4574 36.8329 24.6269 36.7687C27.3554 35.7343 30.0777 34.6835 32.8042 33.6437C34.6324 32.9465 35.8595 31.6837 36.4905 29.8261C36.5646 29.6079 36.7608 29.3585 36.9642 29.2697C37.79 28.909 38.2622 28.2716 38.3253 27.4191C38.3975 26.4426 38.3926 25.4498 38.3011 24.4753C38.2279 23.6965 37.7564 23.1223 37.0135 22.7691C36.7797 22.6579 36.5625 22.3821 36.467 22.1323C36.0412 21.0181 35.4542 20.0345 34.4828 19.3057C33.2501 18.3809 31.8222 18.0078 30.3325 17.7891C29.9395 17.7314 29.5412 17.6641 29.1664 17.5384C28.5842 17.3432 28.0203 17.0935 27.4482 16.8682C27.3051 16.8118 27.1048 16.8027 27.0257 16.6993C26.7328 16.3166 26.8959 15.3788 27.2791 15.0601C27.8813 14.5594 27.959 13.7045 27.4552 13.1228C26.9486 12.5379 26.0779 12.4892 25.515 13.0142C24.9513 13.5398 24.8722 14.5124 25.5004 14.9322C26.1084 15.3385 26.0012 15.7818 25.9324 16.3262C25.8865 16.6896 25.7642 16.8408 25.3898 16.8924C24.9776 16.9492 24.5112 17.0177 24.1912 17.2501C23.6132 17.67 22.974 17.719 22.3205 17.8186C19.5143 18.2466 17.2509 19.398 16.3317 22.3408C16.2771 22.5158 16.0626 22.6903 15.8811 22.7675C15.0979 23.1006 14.6333 23.7107 14.5605 24.5118C14.472 25.4866 14.4725 26.4798 14.549 27.4561C14.614 28.2849 15.0872 28.8995 15.8807 29.2632C16.1002 29.3638 16.3072 29.6248 16.394 29.8589C16.809 30.978 17.3992 31.9574 18.3585 32.7003C19.5815 33.6474 21.0301 33.9735 22.5239 34.3479C22.9271 34.3835 23.3304 34.4191 23.7396 34.4608Z" fill="url(#paint1_linear_1_9578)"/>
<path d="M33.3758 8.3104C32.8498 8.18961 32.304 7.99475 31.7414 7.89176C30.1774 7.60548 28.6064 7.35739 27.0054 7.05762C28.5122 7.23521 30.0576 7.41617 31.5887 7.68014C32.1917 7.78409 32.7627 8.07338 33.3758 8.3104Z" fill="#EE4B4A"/>
<path d="M45.4139 25.6142C45.3448 25.5889 45.2487 25.5098 45.2491 25.4311C45.2586 23.4601 44.7924 21.5718 44.2729 19.6445C44.6328 21.0448 45.0113 22.4884 45.327 23.9456C45.44 24.467 45.4013 25.0213 45.4139 25.6142Z" fill="#EE4B4A"/>
<path d="M44.4609 31.9783C44.5044 31.5914 44.5892 31.1726 44.6507 30.7504C44.8531 29.3591 45.0465 27.9665 45.2466 26.5748C45.2546 26.5192 45.2946 26.4683 45.3576 26.3916C45.4751 28.2887 45.0703 30.1308 44.4609 31.9783Z" fill="#EE4B4A"/>
<path d="M24.6345 7.06934C24.301 7.17211 23.9138 7.25753 23.5299 7.35585C22.2827 7.67527 21.0368 7.99977 19.7901 8.32086C19.7136 8.34056 19.6339 8.3477 19.5078 8.35251C21.0825 7.5776 22.8145 7.24676 24.6345 7.06934Z" fill="#EE4B4A"/>
<path d="M27.9878 44.9758C28.2801 44.8837 28.6244 44.7995 28.97 44.7217C29.9388 44.5036 30.9075 44.285 31.8779 44.0742C32.0522 44.0364 32.2345 44.035 32.4636 44.0176C31.0228 44.3412 29.5316 44.6639 27.9878 44.9758Z" fill="#EE4B4A"/>
<path d="M25.3315 44.9984C26.0231 44.9611 26.7631 44.9392 27.5408 44.9501C26.8456 44.9932 26.1128 45.0035 25.3315 44.9984Z" fill="#EE4B4A"/>
<path d="M22.9556 44.6963C23.6176 44.7369 24.3174 44.8092 25.0314 44.926C24.3615 44.8896 23.6774 44.8088 22.9556 44.6963Z" fill="#EE4B4A"/>
<path d="M20.5503 44.0898C21.283 44.2344 22.0496 44.4094 22.8418 44.6234C22.1063 44.4818 21.3452 44.301 20.5503 44.0898Z" fill="#EE4B4A"/>
<path d="M32.5737 44.0191C33.0713 43.7807 33.6145 43.5454 34.2071 43.3145C33.7108 43.5532 33.1651 43.7877 32.5737 44.0191Z" fill="#EE4B4A"/>
<path d="M44.2828 19.5543C44.0774 19.1399 43.8726 18.678 43.6758 18.168C43.8836 18.5822 44.0835 19.0446 44.2828 19.5543Z" fill="#EE4B4A"/>
<path d="M43.6821 33.959C43.8359 33.4798 44.0194 32.9722 44.243 32.4453C44.0927 32.9275 43.9023 33.429 43.6821 33.959Z" fill="#EE4B4A"/>
<path d="M25.9701 7C25.7115 7.05126 25.4124 7.08404 25.0791 7.08521C25.3398 7.02958 25.6347 7.00555 25.9701 7Z" fill="#EE4B4A"/>
<path d="M35.0195 42.9732C35.316 42.7694 35.6559 42.5608 36.0423 42.3564C35.7469 42.5632 35.405 42.7657 35.0195 42.9732Z" fill="#EE4B4A"/>
<path d="M8.58887 32.4727C8.74591 32.7702 8.90275 33.1134 9.04188 33.5026C8.879 33.2051 8.73383 32.8617 8.58887 32.4727Z" fill="#EE4B4A"/>
<path d="M19.416 43.6836C19.727 43.7581 20.0685 43.8606 20.4286 44.0033C20.1136 43.9328 19.7801 43.8222 19.416 43.6836Z" fill="#EE4B4A"/>
<path d="M17.8358 9.05664C17.6199 9.21419 17.3615 9.37652 17.0605 9.52072C17.2765 9.35553 17.5348 9.20848 17.8358 9.05664Z" fill="#EE4B4A"/>
<path d="M42.9566 16.6504C42.8031 16.4688 42.6448 16.2452 42.5029 15.9795C42.6635 16.161 42.8076 16.3848 42.9566 16.6504Z" fill="#EE4B4A"/>
<path d="M19.4207 8.33984C19.2075 8.46789 18.9494 8.59537 18.6445 8.71643C18.8571 8.58643 19.1165 8.46285 19.4207 8.33984Z" fill="#EE4B4A"/>
<path d="M34.2452 8.67307C33.9933 8.61001 33.7138 8.51363 33.416 8.37793C33.671 8.43899 33.9442 8.53936 34.2452 8.67307Z" fill="#EE4B4A"/>
<path d="M40.799 13.5784C40.6388 13.4523 40.4642 13.2906 40.291 13.085C40.4565 13.2083 40.6205 13.3756 40.799 13.5784Z" fill="#EE4B4A"/>
<path d="M13.2969 39.7314C13.4767 39.8419 13.6706 39.99 13.8523 40.1802C13.6637 40.0713 13.4874 39.9202 13.2969 39.7314Z" fill="#EE4B4A"/>
<path d="M39.0625 40.2087C39.1852 40.0462 39.3425 39.8694 39.544 39.6953C39.4245 39.8635 39.2608 40.029 39.0625 40.2087Z" fill="#EE4B4A"/>
<path d="M40.2119 39.0873C40.3017 38.9331 40.4284 38.7658 40.5977 38.5957C40.5098 38.7533 40.3793 38.9138 40.2119 39.0873Z" fill="#EE4B4A"/>
<path d="M9.58105 34.7598C9.69514 34.8956 9.81125 35.0722 9.9236 35.2931C9.80758 35.1585 9.69533 34.9795 9.58105 34.7598Z" fill="#EE4B4A"/>
<path d="M18.7041 43.3779C18.9003 43.4176 19.1228 43.4915 19.3565 43.6077C19.1553 43.5707 18.9429 43.4914 18.7041 43.3779Z" fill="#EE4B4A"/>
<path d="M9.21777 34.0342C9.33166 34.1785 9.44497 34.3643 9.55191 34.5962C9.4361 34.4535 9.32665 34.2646 9.21777 34.0342Z" fill="#EE4B4A"/>
<path d="M17.4917 42.7793C17.6801 42.8331 17.8948 42.9207 18.1213 43.0515C17.928 43.0009 17.723 42.9069 17.4917 42.7793Z" fill="#EE4B4A"/>
<path d="M43.3579 34.623C43.4049 34.4351 43.4859 34.2225 43.6089 34.001C43.5647 34.1941 43.4782 34.3962 43.3579 34.623Z" fill="#EE4B4A"/>
<path d="M37.5981 10.6277C37.4287 10.5562 37.2402 10.4496 37.0474 10.3008C37.2217 10.3699 37.4004 10.4813 37.5981 10.6277Z" fill="#EE4B4A"/>
<path d="M42.9819 35.3212C43.0334 35.1391 43.12 34.9372 43.2479 34.7275C43.1986 34.9137 43.1078 35.1075 42.9819 35.3212Z" fill="#EE4B4A"/>
<path d="M36.6615 9.99157C36.5111 9.94458 36.3435 9.86236 36.1694 9.73828C36.3234 9.78306 36.4839 9.8697 36.6615 9.99157Z" fill="#EE4B4A"/>
<path d="M16.6614 9.70312C16.5589 9.81365 16.4163 9.9275 16.2305 10.0362C16.3319 9.92278 16.4766 9.81462 16.6614 9.70312Z" fill="#EE4B4A"/>
<path d="M41.3606 14.2503C41.2529 14.1844 41.1378 14.081 41.0312 13.9346C41.1443 13.9987 41.2487 14.1058 41.3606 14.2503Z" fill="#EE4B4A"/>
<path d="M12.5368 13.0605C12.4838 13.1762 12.3935 13.3053 12.2598 13.4368C12.3108 13.3175 12.4052 13.1957 12.5368 13.0605Z" fill="#EE4B4A"/>
<path d="M13.8758 11.751C13.8146 11.8612 13.7157 11.9795 13.5737 12.0946C13.6332 11.9806 13.7357 11.8699 13.8758 11.751Z" fill="#EE4B4A"/>
<path d="M38.026 10.9542C37.9052 10.9098 37.7647 10.8303 37.6196 10.7061C37.7454 10.7473 37.8758 10.8332 38.026 10.9542Z" fill="#EE4B4A"/>
<path d="M15.2131 10.6699C15.1403 10.7784 15.0281 10.8928 14.8711 11.0011C14.942 10.8886 15.0579 10.7822 15.2131 10.6699Z" fill="#EE4B4A"/>
<path d="M35.4411 9.26959C35.3096 9.24727 35.1553 9.19246 34.9932 9.09375C35.1297 9.11227 35.274 9.17468 35.4411 9.26959Z" fill="#EE4B4A"/>
<path d="M18.1504 43.124C18.2835 43.1433 18.4408 43.1957 18.6168 43.2886C18.4819 43.2718 18.3282 43.2145 18.1504 43.124Z" fill="#EE4B4A"/>
<path d="M34.7218 8.89663C34.618 8.89211 34.4915 8.85702 34.356 8.7793C34.4643 8.77979 34.5817 8.82293 34.7218 8.89663Z" fill="#EE4B4A"/>
<path d="M18.4778 8.73926C18.4123 8.8114 18.3086 8.88266 18.1621 8.94064C18.2261 8.86436 18.3329 8.80136 18.4778 8.73926Z" fill="#EE4B4A"/>
<path d="M43.6579 18.003C43.5834 17.9376 43.511 17.8338 43.4521 17.6865C43.5305 17.7502 43.5952 17.8574 43.6579 18.003Z" fill="#EE4B4A"/>
<path d="M43.2981 17.2753C43.2218 17.2123 43.1455 17.1105 43.0801 16.9648C43.16 17.0262 43.229 17.1314 43.2981 17.2753Z" fill="#EE4B4A"/>
<path d="M12.5796 39.001C12.6597 39.0406 12.7484 39.1143 12.8391 39.2281C12.7568 39.1904 12.6725 39.1128 12.5796 39.001Z" fill="#EE4B4A"/>
<path d="M10.1382 35.751C10.2192 35.8114 10.303 35.9104 10.3738 36.0515C10.2875 35.9922 10.2142 35.8909 10.1382 35.751Z" fill="#EE4B4A"/>
<path d="M10.5601 36.4473C10.6577 36.5267 10.7622 36.6452 10.8673 36.8071C10.7675 36.7292 10.6672 36.6078 10.5601 36.4473Z" fill="#EE4B4A"/>
<path d="M35.8213 9.46732C35.7234 9.45853 35.602 9.42151 35.4707 9.3418C35.5731 9.34577 35.6854 9.39243 35.8213 9.46732Z" fill="#EE4B4A"/>
<path d="M14.3926 40.7002C14.4936 40.7289 14.6062 40.7936 14.7142 40.9015C14.6079 40.8752 14.506 40.8057 14.3926 40.7002Z" fill="#EE4B4A"/>
<path d="M16.1545 10.0332C16.0961 10.1124 15.9995 10.1972 15.8608 10.273C15.918 10.1889 16.0171 10.1138 16.1545 10.0332Z" fill="#EE4B4A"/>
<path d="M37.0272 10.226C36.9264 10.2091 36.8079 10.1583 36.6812 10.0654C36.7851 10.0796 36.8973 10.1359 37.0272 10.226Z" fill="#EE4B4A"/>
<path d="M15.3311 41.4336C15.4361 41.4568 15.5609 41.5148 15.6878 41.6183C15.5769 41.5987 15.4639 41.5335 15.3311 41.4336Z" fill="#EE4B4A"/>
<path d="M16.7998 42.3936C16.9343 42.423 17.0927 42.4862 17.255 42.5936C17.1138 42.5677 16.9688 42.4975 16.7998 42.3936Z" fill="#EE4B4A"/>
<path d="M34.3828 43.2858C34.4477 43.2152 34.5507 43.145 34.6964 43.085C34.6331 43.1588 34.527 43.2225 34.3828 43.2858Z" fill="#EE4B4A"/>
<path d="M41.4434 37.6504C41.4507 37.5768 41.4902 37.4871 41.5722 37.3936C41.5683 37.4713 41.5218 37.5528 41.4434 37.6504Z" fill="#EE4B4A"/>
<path d="M11.797 13.9102C11.7851 13.9828 11.7397 14.0694 11.6528 14.1599C11.662 14.0838 11.7127 14.004 11.797 13.9102Z" fill="#EE4B4A"/>
<path d="M11.2568 37.4248C11.3272 37.4564 11.4046 37.5259 11.4768 37.6399C11.4023 37.6105 11.3331 37.5366 11.2568 37.4248Z" fill="#EE4B4A"/>
<path d="M16.4346 42.1787C16.5074 42.1797 16.5978 42.2111 16.696 42.2829C16.6199 42.2852 16.536 42.2472 16.4346 42.1787Z" fill="#EE4B4A"/>
<path d="M36.1958 42.3271C36.2296 42.2602 36.2991 42.1927 36.4083 42.1396C36.3758 42.2115 36.3036 42.269 36.1958 42.3271Z" fill="#EE4B4A"/>
<path d="M39.2065 11.9415C39.1338 11.9252 39.0469 11.8739 38.957 11.7803C39.0335 11.7941 39.113 11.8503 39.2065 11.9415Z" fill="#EE4B4A"/>
<path d="M38.3548 11.2061C38.2815 11.1953 38.1946 11.1502 38.1016 11.0645C38.1774 11.0731 38.2593 11.1225 38.3548 11.2061Z" fill="#EE4B4A"/>
<path d="M14.7324 11.0371C14.7056 11.106 14.6423 11.1796 14.5386 11.2499C14.5641 11.1783 14.63 11.11 14.7324 11.0371Z" fill="#EE4B4A"/>
<path d="M15.5657 10.417C15.5336 10.4884 15.4634 10.5655 15.3486 10.6357C15.3786 10.5602 15.453 10.4915 15.5657 10.417Z" fill="#EE4B4A"/>
<path d="M41.8076 37.1643C41.8142 37.0917 41.8519 37.002 41.932 36.9072C41.9291 36.9839 41.884 37.0654 41.8076 37.1643Z" fill="#EE4B4A"/>
<path d="M10.8994 36.9346C10.968 36.9649 11.0405 37.0314 11.1029 37.1389C11.0297 37.1103 10.9665 37.0405 10.8994 36.9346Z" fill="#EE4B4A"/>
<path d="M42.5371 36.0786C42.5393 36.0053 42.5724 35.9137 42.647 35.8145C42.6484 35.8913 42.6082 35.9758 42.5371 36.0786Z" fill="#EE4B4A"/>
<path d="M41.168 37.9869C41.197 37.8891 41.2615 37.7774 41.3685 37.665C41.3418 37.7672 41.2726 37.8701 41.168 37.9869Z" fill="#EE4B4A"/>
<path d="M14.8643 41.0811C14.938 41.0904 15.0264 41.1331 15.1184 41.2178C15.0409 41.2114 14.9599 41.1628 14.8643 41.0811Z" fill="#EE4B4A"/>
<path d="M11.4123 14.3848C11.4063 14.4584 11.3685 14.548 11.2881 14.6412C11.2905 14.5635 11.3355 14.4821 11.4123 14.3848Z" fill="#EE4B4A"/>
<path d="M42.3187 15.5895C42.2518 15.5582 42.1821 15.4907 42.1211 15.3828C42.1918 15.4127 42.2538 15.483 42.3187 15.5895Z" fill="#EE4B4A"/>
<path d="M37.7793 41.2578C37.8054 41.1861 37.8678 41.1096 37.9725 41.041C37.9483 41.1169 37.882 41.1849 37.7793 41.2578Z" fill="#EE4B4A"/>
<path d="M37.2915 41.6125C37.3237 41.5422 37.3939 41.4662 37.5082 41.3955C37.478 41.4695 37.4038 41.5381 37.2915 41.6125Z" fill="#EE4B4A"/>
<path d="M11.519 37.7744C11.5853 37.7995 11.6592 37.8599 11.7334 37.9595C11.6647 37.9358 11.5957 37.8727 11.519 37.7744Z" fill="#EE4B4A"/>
<path d="M42.1528 36.6719C42.1584 36.6002 42.1955 36.5127 42.2719 36.418C42.2689 36.4925 42.2267 36.5744 42.1528 36.6719Z" fill="#EE4B4A"/>
<path d="M40.9507 38.2566C40.9645 38.1855 41.0131 38.1014 41.0994 38.0068C41.0866 38.0788 41.0361 38.1612 40.9507 38.2566Z" fill="#EE4B4A"/>
<path d="M41.5538 14.5108C41.4963 14.4822 41.4309 14.4206 41.3657 14.3223C41.4259 14.3496 41.4859 14.4137 41.5538 14.5108Z" fill="#EE4B4A"/>
<path d="M16.9649 9.52441C16.9505 9.56951 16.9016 9.62449 16.8091 9.67344C16.8205 9.62304 16.8754 9.57866 16.9649 9.52441Z" fill="#EE4B4A"/>
<path d="M16.2104 42.028C16.2667 42.0195 16.3382 42.0436 16.414 42.1082C16.354 42.1193 16.2898 42.09 16.2104 42.028Z" fill="#EE4B4A"/>
<path d="M38.1953 40.9406C38.2015 40.8944 38.2397 40.8379 38.3188 40.7842C38.3155 40.8348 38.2714 40.8826 38.1953 40.9406Z" fill="#EE4B4A"/>
<path d="M42.0043 36.8898C41.9981 36.8374 42.024 36.7684 42.0878 36.6904C42.0959 36.7454 42.0661 36.8094 42.0043 36.8898Z" fill="#EE4B4A"/>
<path d="M40.6714 38.5838C40.6708 38.5296 40.7026 38.464 40.7736 38.4004C40.7765 38.459 40.7401 38.5157 40.6714 38.5838Z" fill="#EE4B4A"/>
<path d="M12.0654 38.4277C12.1114 38.4349 12.167 38.4752 12.2251 38.5543C12.1768 38.5491 12.126 38.505 12.0654 38.4277Z" fill="#EE4B4A"/>
<path d="M34.7705 43.1C34.7892 43.0533 34.8451 43.0061 34.941 42.9668C34.9233 43.0163 34.8655 43.0578 34.7705 43.1Z" fill="#EE4B4A"/>
<path d="M11.0977 37.2119C11.145 37.2219 11.1987 37.267 11.2525 37.3515C11.203 37.3429 11.1536 37.295 11.0977 37.2119Z" fill="#EE4B4A"/>
<path d="M37.0669 41.764C37.0802 41.7176 37.1294 41.6669 37.2173 41.6162C37.2049 41.664 37.1538 41.7119 37.0669 41.764Z" fill="#EE4B4A"/>
<path d="M41.6456 37.3798C41.6405 37.3244 41.6689 37.256 41.7369 37.1846C41.744 37.2433 41.7115 37.3051 41.6456 37.3798Z" fill="#EE4B4A"/>
<path d="M15.8457 41.7898C15.9017 41.7812 15.9737 41.8044 16.0489 41.8685C15.9886 41.8801 15.9252 41.8509 15.8457 41.7898Z" fill="#EE4B4A"/>
<path d="M36.8379 41.9197C36.8509 41.8706 36.9005 41.8123 36.9935 41.7588C36.9827 41.8126 36.9286 41.8615 36.8379 41.9197Z" fill="#EE4B4A"/>
<path d="M36.4863 42.1457C36.4991 42.0975 36.5484 42.0427 36.6399 41.9902C36.629 42.0414 36.5759 42.0902 36.4863 42.1457Z" fill="#EE4B4A"/>
<path d="M10.3691 36.1289C10.4151 36.1445 10.4687 36.1965 10.5186 36.2909C10.4689 36.2774 10.4228 36.2213 10.3691 36.1289Z" fill="#EE4B4A"/>
<path d="M36.0778 9.63473C36.0201 9.64236 35.9428 9.62008 35.8672 9.55434C35.9319 9.5422 35.9951 9.57351 36.0778 9.63473Z" fill="#EE4B4A"/>
<path d="M15.7871 10.2656C15.7747 10.3127 15.7265 10.3643 15.6392 10.4147C15.6504 10.3657 15.7008 10.318 15.7871 10.2656Z" fill="#EE4B4A"/>
<path d="M38.8162 11.5954C38.7629 11.5978 38.6966 11.5681 38.6289 11.4994C38.6861 11.4948 38.7446 11.529 38.8162 11.5954Z" fill="#EE4B4A"/>
<path d="M14.069 11.585C14.0638 11.6317 14.0262 11.6881 13.9492 11.7454C13.9521 11.6957 13.9943 11.6451 14.069 11.585Z" fill="#EE4B4A"/>
<path d="M12.1879 13.4463C12.1886 13.5012 12.1574 13.5668 12.0871 13.6277C12.084 13.5677 12.12 13.5123 12.1879 13.4463Z" fill="#EE4B4A"/>
<path d="M11.5811 14.1738C11.585 14.2283 11.556 14.2956 11.4875 14.3646C11.4815 14.3064 11.5148 14.2465 11.5811 14.1738Z" fill="#EE4B4A"/>
<path d="M11.2152 14.6543C11.2202 14.7101 11.1919 14.778 11.124 14.8475C11.1169 14.7883 11.1494 14.7273 11.2152 14.6543Z" fill="#EE4B4A"/>
<path d="M41.7733 14.8026C41.7265 14.7938 41.6703 14.751 41.6147 14.667C41.6649 14.6734 41.7143 14.721 41.7733 14.8026Z" fill="#EE4B4A"/>
<path d="M42.1239 15.3091C42.0779 15.2962 42.0254 15.248 41.9741 15.1602C42.0226 15.1716 42.07 15.2227 42.1239 15.3091Z" fill="#EE4B4A"/>
<path d="M42.5009 15.8906C42.4551 15.8764 42.4004 15.8271 42.3511 15.7344C42.4017 15.7458 42.4468 15.8007 42.5009 15.8906Z" fill="#EE4B4A"/>
<path d="M43.0917 16.8882C43.0451 16.872 42.9961 16.8192 42.9526 16.7266C43.0019 16.7417 43.0456 16.7966 43.0917 16.8882Z" fill="#EE4B4A"/>
<path d="M42.3815 36.316C42.3732 36.2595 42.3963 36.1827 42.462 36.1006C42.4741 36.1621 42.4435 36.229 42.3815 36.316Z" fill="#EE4B4A"/>
<path d="M43.4612 17.6022C43.4148 17.5827 43.3641 17.5249 43.3198 17.4238C43.3698 17.4417 43.4134 17.5028 43.4612 17.6022Z" fill="#EE4B4A"/>
<path d="M9.03027 33.5957C9.07714 33.6172 9.1297 33.6778 9.17274 33.7846C9.12079 33.7654 9.07838 33.7002 9.03027 33.5957Z" fill="#EE4B4A"/>
<path d="M10.0049 35.5215C10.0515 35.5361 10.1031 35.5861 10.1472 35.6768C10.0964 35.664 10.0531 35.6103 10.0049 35.5215Z" fill="#EE4B4A"/>
<path d="M44.3359 32.3452C44.3153 32.2874 44.3268 32.2003 44.3772 32.0889C44.4 32.1484 44.384 32.2321 44.3359 32.3452Z" fill="#EE4B4A"/>
<path d="M18.0827 8.92773C18.0658 8.97535 18.0128 9.02418 17.9199 9.06302C17.9356 9.01167 17.9911 8.97031 18.0827 8.92773Z" fill="#EE4B4A"/>
<path d="M42.7494 35.7196C42.7394 35.6617 42.7608 35.5821 42.826 35.4971C42.8402 35.5604 42.8105 35.6292 42.7494 35.7196Z" fill="#EE4B4A"/>
<path d="M34.9658 9.01946C34.9111 9.03476 34.8374 9.01945 34.7544 8.96447C34.8123 8.94615 34.8796 8.9675 34.9658 9.01946Z" fill="#EE4B4A"/>
<path d="M39.5873 12.3001C39.5574 12.3134 39.5144 12.294 39.4624 12.2387C39.4936 12.2243 39.5339 12.2459 39.5873 12.3001Z" fill="#EE4B4A"/>
<path d="M15.1304 41.2854C15.1549 41.2727 15.1907 41.2893 15.24 41.3333C15.2162 41.3454 15.1789 41.3301 15.1304 41.2854Z" fill="#EE4B4A"/>
<path d="M37.6431 41.3601C37.6365 41.332 37.6615 41.3007 37.7169 41.2637C37.7231 41.291 37.699 41.324 37.6431 41.3601Z" fill="#EE4B4A"/>
<path d="M38.0412 41.045C38.0346 41.0127 38.0567 40.9761 38.1125 40.9492C38.1341 40.9986 38.1085 41.0259 38.0412 41.045Z" fill="#EE4B4A"/>
<path d="M42.8961 35.4722C42.8765 35.4479 42.8829 35.406 42.9201 35.3496C42.9412 35.3749 42.9316 35.4148 42.8961 35.4722Z" fill="#EE4B4A"/>
<path d="M40.1885 12.9051C40.1587 12.917 40.1162 12.8972 40.0679 12.8407C40.0999 12.8272 40.1379 12.8502 40.1885 12.9051Z" fill="#EE4B4A"/>
<path d="M15.7046 41.6911C15.7329 41.6728 15.7749 41.6837 15.8267 41.7282C15.7971 41.7479 15.7577 41.7341 15.7046 41.6911Z" fill="#EE4B4A"/>
<path d="M12.7761 12.8096C12.7862 12.8391 12.763 12.8824 12.7019 12.9335C12.6903 12.902 12.7165 12.8626 12.7761 12.8096Z" fill="#EE4B4A"/>
<path d="M40.0592 12.7787C40.0288 12.7901 39.9903 12.7709 39.9492 12.7174C39.9815 12.7048 40.0163 12.7264 40.0592 12.7787Z" fill="#EE4B4A"/>
<path d="M39.9402 12.6527C39.9098 12.6653 39.8709 12.6472 39.8286 12.595C39.8607 12.5813 39.8962 12.6017 39.9402 12.6527Z" fill="#EE4B4A"/>
<path d="M16.0684 41.9345C16.0946 41.9164 16.1366 41.926 16.1906 41.9679C16.1632 41.9875 16.1237 41.9748 16.0684 41.9345Z" fill="#EE4B4A"/>
<path d="M13.0068 12.5723C13.0187 12.603 12.9977 12.644 12.941 12.6918C12.9281 12.6598 12.951 12.6212 13.0068 12.5723Z" fill="#EE4B4A"/>
<path d="M39.8159 12.5312C39.7854 12.5422 39.7439 12.5206 39.6973 12.4621C39.7297 12.4497 39.7672 12.4742 39.8159 12.5312Z" fill="#EE4B4A"/>
<path d="M13.1402 12.4463C13.1506 12.4762 13.1293 12.5168 13.0718 12.5615C13.0599 12.5294 13.0841 12.4932 13.1402 12.4463Z" fill="#EE4B4A"/>
<path d="M38.4848 11.3251C38.4558 11.3386 38.4163 11.3218 38.3701 11.2714C38.4004 11.2568 38.4373 11.2758 38.4848 11.3251Z" fill="#EE4B4A"/>
<path d="M13.3778 12.2148C13.3879 12.2451 13.3649 12.2848 13.3062 12.3303C13.2953 12.2988 13.32 12.2616 13.3778 12.2148Z" fill="#EE4B4A"/>
<path d="M39.4493 12.1764C39.4196 12.1874 39.3794 12.1661 39.3325 12.1095C39.3635 12.0975 39.4012 12.1208 39.4493 12.1764Z" fill="#EE4B4A"/>
<path d="M17.2798 42.6636C17.3063 42.6435 17.3502 42.6525 17.4094 42.6939C17.3823 42.7151 17.3397 42.7038 17.2798 42.6636Z" fill="#EE4B4A"/>
<path d="M13.5039 12.0967C13.5146 12.1268 13.4933 12.1644 13.4384 12.2069C13.4271 12.176 13.4495 12.14 13.5039 12.0967Z" fill="#EE4B4A"/>
<path d="M38.9478 11.7113C38.9214 11.723 38.8846 11.704 38.8369 11.6547C38.8632 11.6431 38.9003 11.6618 38.9478 11.7113Z" fill="#EE4B4A"/>
<path d="M14.4724 11.25C14.4831 11.2805 14.4617 11.3181 14.4066 11.3604C14.3954 11.3291 14.4179 11.2931 14.4724 11.25Z" fill="#EE4B4A"/>
<path d="M14.2066 11.4727C14.2168 11.5048 14.199 11.5427 14.1469 11.574C14.1193 11.5263 14.1413 11.4967 14.2066 11.4727Z" fill="#EE4B4A"/>
<path d="M38.6117 11.4292C38.5836 11.4445 38.5433 11.4319 38.4976 11.3856C38.5279 11.3684 38.5637 11.3849 38.6117 11.4292Z" fill="#EE4B4A"/>
<path d="M14.3481 11.3652C14.3556 11.3958 14.3322 11.4319 14.2746 11.4661C14.266 11.433 14.2916 11.4019 14.3481 11.3652Z" fill="#EE4B4A"/>
<path d="M13.8838 40.2695C13.9121 40.2538 13.9506 40.2606 13.9842 40.3015C13.9442 40.3342 13.9157 40.3196 13.8838 40.2695Z" fill="#EE4B4A"/>
<path d="M11.7363 38.0258C11.7652 38.018 11.8003 38.0426 11.8401 38.1002C11.8107 38.1083 11.7766 38.0833 11.7363 38.0258Z" fill="#EE4B4A"/>
<path d="M11.8433 38.1573C11.8742 38.1479 11.9115 38.171 11.9512 38.2285C11.9189 38.2386 11.8843 38.2141 11.8433 38.1573Z" fill="#EE4B4A"/>
<path d="M11.9536 38.2893C11.986 38.2797 12.0241 38.3014 12.0599 38.3585C12.0249 38.3694 11.9921 38.345 11.9536 38.2893Z" fill="#EE4B4A"/>
<path d="M40.8442 38.3834C40.8276 38.3543 40.8386 38.3128 40.8848 38.2676C40.9039 38.2996 40.8878 38.3353 40.8442 38.3834Z" fill="#EE4B4A"/>
<path d="M41.882 14.964C41.8505 14.9702 41.813 14.946 41.7817 14.8861C41.8173 14.8782 41.8467 14.9058 41.882 14.964Z" fill="#EE4B4A"/>
<path d="M11.0558 14.8682C11.0723 14.8958 11.0606 14.9385 11.0145 14.99C10.9959 14.9603 11.0118 14.9217 11.0558 14.8682Z" fill="#EE4B4A"/>
<path d="M12.4551 38.8717C12.4838 38.8611 12.5214 38.8837 12.5686 38.9388C12.5401 38.9491 12.502 38.927 12.4551 38.8717Z" fill="#EE4B4A"/>
<path d="M40.0825 39.2247C40.0705 39.1965 40.0902 39.1543 40.1451 39.1025C40.1583 39.1323 40.1363 39.1715 40.0825 39.2247Z" fill="#EE4B4A"/>
<path d="M12.9263 39.3635C12.9551 39.3517 12.9958 39.3729 13.0463 39.4284C13.0167 39.4407 12.9774 39.4186 12.9263 39.3635Z" fill="#EE4B4A"/>
<path d="M39.8467 39.4591C39.8362 39.4285 39.8596 39.3882 39.9187 39.3408C39.9298 39.3723 39.9051 39.4109 39.8467 39.4591Z" fill="#EE4B4A"/>
<path d="M13.0571 39.4874C13.0863 39.4779 13.1255 39.5012 13.1716 39.5596C13.1413 39.5699 13.1042 39.5451 13.0571 39.4874Z" fill="#EE4B4A"/>
<path d="M39.7207 39.587C39.7095 39.5582 39.7302 39.5168 39.7865 39.4678C39.7989 39.4982 39.7758 39.5363 39.7207 39.587Z" fill="#EE4B4A"/>
<path d="M9.91846 35.3645C9.94847 35.3615 9.98041 35.3907 10.0085 35.4536C9.97658 35.4572 9.94849 35.4269 9.91846 35.3645Z" fill="#EE4B4A"/>
<path d="M12.0089 13.6523C12.0253 13.6805 12.0166 13.7204 11.9736 13.7611C11.9383 13.722 11.9533 13.6894 12.0089 13.6523Z" fill="#EE4B4A"/>
<path d="M38.9166 40.3265C38.9056 40.2961 38.9164 40.2589 38.959 40.2344C38.9838 40.2789 38.9664 40.303 38.9166 40.3265Z" fill="#EE4B4A"/>
<path d="M14.0029 40.3732C14.0329 40.357 14.0743 40.3682 14.1166 40.4151C14.0745 40.4516 14.0401 40.4348 14.0029 40.3732Z" fill="#EE4B4A"/>
<path d="M38.7807 40.4463C38.7704 40.4138 38.7871 40.3749 38.8384 40.3447C38.8647 40.3925 38.843 40.4212 38.7807 40.4463Z" fill="#EE4B4A"/>
<path d="M14.1304 40.4791C14.1602 40.463 14.2019 40.4765 14.2498 40.5249C14.2181 40.5427 14.1802 40.5257 14.1304 40.4791Z" fill="#EE4B4A"/>
<path d="M38.6459 40.5584C38.6361 40.5262 38.6567 40.4876 38.713 40.4521C38.7245 40.4876 38.7005 40.5198 38.6459 40.5584Z" fill="#EE4B4A"/>
<path d="M14.2603 40.5829C14.289 40.5688 14.3289 40.5858 14.3787 40.6356C14.3495 40.6502 14.3104 40.6322 14.2603 40.5829Z" fill="#EE4B4A"/>
<path d="M38.5125 40.667C38.5037 40.6365 38.527 40.5993 38.5849 40.5605C38.5946 40.5927 38.5696 40.6265 38.5125 40.667Z" fill="#EE4B4A"/>
<path d="M41.0324 13.8618C41.0004 13.872 40.9623 13.8523 40.9272 13.798C40.9623 13.7861 40.9943 13.809 41.0324 13.8618Z" fill="#EE4B4A"/>
<path d="M38.3873 40.7839C38.3768 40.7532 38.3989 40.7159 38.4546 40.6729C38.4655 40.7038 38.4427 40.7405 38.3873 40.7839Z" fill="#EE4B4A"/>
<path d="M11.9071 13.7773C11.9228 13.8064 11.9096 13.8471 11.8622 13.8938C11.8448 13.8628 11.8615 13.8259 11.9071 13.7773Z" fill="#EE4B4A"/>
<path d="M14.731 40.9765C14.7589 40.9596 14.8007 40.9695 14.848 41.0143C14.8173 41.0339 14.781 41.0187 14.731 40.9765Z" fill="#EE4B4A"/>
<path d="M40.9195 13.7285C40.8878 13.7377 40.851 13.7211 40.8242 13.6718C40.871 13.6478 40.8976 13.6689 40.9195 13.7285Z" fill="#EE4B4A"/>
<path d="M22.4986 34.2563C21.03 33.9737 19.5814 33.6476 18.3583 32.7005C17.399 31.9576 16.8089 30.9782 16.3939 29.8591C16.3071 29.625 16.1001 29.364 15.8806 29.2634C15.087 28.8997 14.6139 28.2851 14.5489 27.4563C14.4723 26.48 14.4719 25.4868 14.5604 24.512C14.6331 23.711 15.0978 23.1008 15.8809 22.7678C16.0625 22.6905 16.277 22.516 16.3316 22.341C17.2508 19.3982 19.5142 18.2468 22.3204 17.8189C22.9739 17.7192 23.6131 17.6702 24.1911 17.2503C24.511 17.0179 24.9775 16.9494 25.3897 16.8926C25.7641 16.841 25.8864 16.6898 25.9323 16.3264C26.001 15.782 26.1082 15.3387 25.5003 14.9324C24.8721 14.5126 24.9511 13.54 25.5148 13.0144C26.0778 12.4894 26.9485 12.5381 27.455 13.123C27.9589 13.7047 27.8812 14.5596 27.279 15.0603C26.8957 15.379 26.7327 16.3168 27.0255 16.6995C27.1047 16.8029 27.305 16.812 27.4481 16.8684C28.0202 17.0937 28.5841 17.3434 29.1663 17.5386C29.5411 17.6643 29.9394 17.7316 30.3324 17.7893C31.822 18.008 33.25 18.3811 34.4827 19.3059C35.454 20.0347 36.0411 21.0183 36.4669 22.1325C36.5624 22.3824 36.7796 22.6581 37.0134 22.7693C37.7563 23.1226 38.2278 23.6967 38.3009 24.4755C38.3925 25.45 38.3973 26.4428 38.3251 27.4193C38.2621 28.2718 37.7898 28.9092 36.9641 29.2699C36.7607 29.3588 36.5644 29.6082 36.4903 29.8263C35.8594 31.684 34.6323 32.9467 32.8041 33.6439C30.0775 34.6837 27.3553 35.7345 24.6267 36.7689C24.4573 36.8331 24.2489 36.7947 24.0145 36.7564C23.9588 36.6919 23.9471 36.6749 23.9355 36.658C23.9363 36.6048 23.9371 36.5517 23.9404 36.404C23.9445 35.9752 23.9736 35.6379 23.9396 35.3072C23.9098 35.0185 23.8089 34.7371 23.7395 34.4524C23.7395 34.4524 23.7395 34.461 23.706 34.4219C23.2812 34.3407 22.8899 34.2985 22.4986 34.2563ZM18.4215 25.5048C18.4502 26.2285 18.4443 26.9557 18.5142 27.6754C18.7411 30.0104 19.7802 31.1381 22.0863 31.5829C24.1972 31.9901 26.3334 32.0553 28.4624 31.8567C29.6934 31.7418 30.9248 31.485 32.118 31.1544C33.0772 30.8886 33.6952 30.1487 34.0096 29.1859C34.5805 27.438 34.5699 25.6542 34.2732 23.8711C33.9342 21.8334 32.9858 20.8782 30.9566 20.4812C30.1487 20.3232 29.3269 20.2005 28.5061 20.1522C26.2912 20.022 24.0773 20.0258 21.8892 20.4768C19.884 20.8901 18.94 21.8615 18.5873 23.8927C18.5015 24.3871 18.4767 24.8921 18.4215 25.5048Z" fill="#FAFDFF"/>
<path d="M23.7305 34.5098C23.8092 34.7362 23.91 35.0176 23.9398 35.3064C23.9738 35.6371 23.9447 35.9743 23.9313 36.3644C23.851 36.2572 23.7327 36.0972 23.7234 35.9311C23.6981 35.4781 23.7189 35.0225 23.7305 34.5098Z" fill="#EE4B4A"/>
<path d="M22.5112 34.301C22.8899 34.2973 23.2812 34.3395 23.703 34.4177C23.3303 34.4181 22.927 34.3825 22.5112 34.301Z" fill="#EE4B4A"/>
<path d="M23.918 36.6738C23.9471 36.675 23.9588 36.692 23.9759 36.7393C23.9544 36.743 23.9274 36.7163 23.918 36.6738Z" fill="#EE4B4A"/>
<path d="M18.4229 25.4485C18.4769 24.8921 18.5016 24.387 18.5874 23.8926C18.9401 21.8614 19.8841 20.8901 21.8894 20.4768C24.0774 20.0258 26.2914 20.0219 28.5062 20.1522C29.327 20.2005 30.1489 20.3232 30.9567 20.4812C32.986 20.8781 33.9344 21.8334 34.2734 23.871C34.5701 25.6542 34.5807 27.4379 34.0098 29.1859C33.6953 30.1487 33.0774 30.8885 32.1181 31.1544C30.925 31.485 29.6936 31.7418 28.4625 31.8566C26.3336 32.0553 24.1974 31.9901 22.0864 31.5829C19.7803 31.1381 18.7413 30.0104 18.5144 27.6754C18.4444 26.9557 18.4504 26.2285 18.4229 25.4485ZM21.8989 26.2891C21.9147 26.429 21.9161 26.5723 21.9487 26.7082C22.0732 27.2267 22.3411 27.5916 22.9367 27.5772C23.497 27.5637 23.8061 27.2285 23.8547 26.7182C23.9035 26.2061 23.895 25.6763 23.8191 25.168C23.7497 24.7035 23.4131 24.4505 22.9144 24.4495C22.4148 24.4484 22.1079 24.7046 22.0015 25.1656C21.9256 25.4945 21.9293 25.8417 21.8989 26.2891ZM28.9322 26.2803C28.9597 26.4387 28.9806 26.5986 29.0157 26.7553C29.1299 27.2649 29.4113 27.5818 29.9718 27.5782C30.5051 27.5747 30.8354 27.2671 30.882 26.7864C30.9372 26.2168 30.9201 25.6246 30.8242 25.0609C30.7491 24.6193 30.3427 24.3519 29.9113 24.4758C29.5922 24.5674 29.2417 24.8301 29.0813 25.1156C28.9183 25.4058 28.9712 25.8173 28.9322 26.2803Z" fill="#EE4B4A"/>
<path d="M21.8984 26.2337C21.9295 25.8405 21.9258 25.4933 22.0017 25.1644C22.1081 24.7034 22.415 24.4472 22.9146 24.4482C23.4133 24.4493 23.7499 24.7023 23.8193 25.1668C23.8952 25.6751 23.9038 26.2049 23.8549 26.717C23.8063 27.2273 23.4972 27.5625 22.9369 27.576C22.3413 27.5904 22.0734 27.2255 21.9489 26.707C21.9163 26.5711 21.9149 26.4278 21.8984 26.2337Z" fill="#F4FAFE"/>
<path d="M28.9307 26.2269C28.971 25.8162 28.9181 25.4047 29.0811 25.1145C29.2415 24.829 29.592 24.5663 29.9111 24.4747C30.3425 24.3508 30.7489 24.6182 30.824 25.0598C30.9199 25.6235 30.937 26.2157 30.8818 26.7853C30.8352 27.266 30.5049 27.5736 29.9716 27.5771C29.4111 27.5807 29.1297 27.2638 29.0155 26.7542C28.9804 26.5975 28.9595 26.4376 28.9307 26.2269Z" fill="#F4FAFE"/>
<defs>
<linearGradient id="paint0_linear_1_9578" x1="9.5" y1="47.5" x2="42" y2="5" gradientUnits="userSpaceOnUse">
<stop stop-color="#EE4B4A"/>
<stop offset="1" stop-color="#FBD8D8"/>
</linearGradient>
<linearGradient id="paint1_linear_1_9578" x1="12.1151" y1="39.6239" x2="39.0024" y2="12.0195" gradientUnits="userSpaceOnUse">
<stop stop-color="#EE4B4A"/>
<stop offset="1" stop-color="#882B2A"/>
</linearGradient>
</defs>
</svg>
