<svg width="77" height="77" viewBox="0 0 77 77" fill="none" xmlns="http://www.w3.org/2000/svg">
<mask id="mask0_31_2030" style="mask-type:alpha" maskUnits="userSpaceOnUse" x="0" y="0" width="77" height="77">
<path d="M0 0H54.5293C66.7383 0 76.6357 9.8974 76.6357 22.1065V54.5293C76.6357 66.7383 66.7383 76.6357 54.5293 76.6357H22.1065C9.8974 76.6357 0 66.7383 0 54.5293V0Z" fill="#FBFCFF"/>
</mask>
<g mask="url(#mask0_31_2030)">
<path d="M19.5973 56.4065C19.5066 56.3213 19.4159 56.2361 19.3053 56.0525C19.2077 55.8978 19.1301 55.8416 19.0525 55.7854C19.0525 55.7854 19.0783 55.7255 19.0698 55.7063C19.0082 55.6568 18.9552 55.6265 18.9022 55.5962C18.9022 55.5962 18.9295 55.5732 18.9167 55.5401C18.8517 55.4749 18.7997 55.4428 18.7476 55.4107C18.7476 55.4107 18.7646 55.4053 18.7549 55.3676C18.6962 55.2956 18.6474 55.2613 18.5985 55.227C18.5985 55.227 18.6128 55.2217 18.6076 55.1728C18.4992 55.0397 18.3962 54.9555 18.2931 54.8713C18.2931 54.8713 18.2491 54.8464 18.2511 54.7596C18.1451 54.5759 18.0372 54.479 17.9292 54.3821C17.9292 54.3821 17.9399 54.3765 17.9362 54.3265C17.8576 54.2134 17.7826 54.1505 17.7076 54.0875C17.7076 54.0875 17.7686 54.0573 17.7535 54.0175C17.6373 53.8849 17.5361 53.7922 17.4349 53.6995C17.4349 53.6995 17.3983 53.6764 17.3966 53.5941C17.2491 53.3466 17.1034 53.1813 16.9576 53.0161C16.9576 53.0161 16.9121 52.9736 16.9129 52.8835C16.839 52.7209 16.7643 52.6485 16.6896 52.5761C16.6896 52.5761 16.7434 52.5367 16.7342 52.4982C16.6081 52.3216 16.4912 52.1835 16.3743 52.0454C16.3743 52.0454 16.4048 52.0241 16.4031 51.9813C16.3295 51.8689 16.2576 51.7992 16.1857 51.7296C16.1857 51.7296 16.2071 51.6795 16.2052 51.6587C16.1587 51.5971 16.1142 51.5564 16.0696 51.5156C16.0696 51.5156 16.0837 51.5125 16.084 51.4558C15.9224 51.1529 15.7604 50.9067 15.5985 50.6605C15.5985 50.6605 15.5575 50.614 15.5639 50.5187C15.4123 50.1642 15.2542 49.9051 15.0962 49.6459C15.058 49.6052 15.0325 49.5577 15.0324 49.3982C14.9716 49.2084 14.8983 49.1238 14.825 49.0392C14.825 49.0392 14.8628 49.0317 14.8683 48.9661C14.6551 48.4218 14.4363 47.9431 14.2176 47.4644C13.7194 45.2912 12.9825 43.1412 12.7681 40.9404C12.1394 34.4885 13.7533 28.5609 17.5575 23.1777C17.6657 23.0712 17.682 23.0117 17.6984 22.9522C17.6984 22.9522 17.7614 22.9544 17.7852 22.9483C17.8485 22.8475 17.888 22.7528 17.9275 22.6581C17.9275 22.6581 17.9381 22.6722 17.9901 22.6624C18.0949 22.5277 18.1476 22.4027 18.2003 22.2778C18.2003 22.2778 18.2475 22.3286 18.2814 22.2986C18.3559 22.1747 18.3964 22.0809 18.437 21.987C18.437 21.987 18.4454 21.9979 18.4972 21.9894C18.6123 21.8601 18.6755 21.7393 18.7388 21.6185C18.7388 21.6185 18.7813 21.6444 18.8063 21.6259C18.8497 21.5505 18.8682 21.4937 18.8866 21.4369C18.8866 21.4369 18.9396 21.4705 18.9631 21.4499C18.9987 21.3736 19.0107 21.3179 19.0227 21.2622C19.0227 21.2622 19.0387 21.2547 19.0948 21.2526C19.1944 21.159 19.2378 21.0675 19.2813 20.9759C19.2813 20.9759 19.2882 20.9867 19.3432 20.9802C19.5241 20.7937 19.6501 20.6136 19.776 20.4336C19.7832 20.3867 19.8045 20.3477 19.9236 20.2912C20.0396 20.2056 20.072 20.1452 20.1044 20.0848C20.1126 20.0378 20.1364 20.0009 20.2566 19.9513C20.3667 19.8715 20.396 19.8143 20.4253 19.7571C20.4253 19.7571 20.4588 19.7935 20.4898 19.7724C20.5507 19.6947 20.5804 19.638 20.6102 19.5813C20.6193 19.5336 20.6438 19.496 20.7655 19.4475C20.8791 19.371 20.9112 19.3156 20.9432 19.2601C20.9432 19.2601 20.9576 19.2845 20.993 19.2693C21.0581 19.2017 21.0879 19.1493 21.1176 19.097C21.1176 19.097 21.1302 19.1242 21.1799 19.1177C21.3677 18.9462 21.5057 18.7812 21.6437 18.6161C21.6437 18.6161 21.6489 18.6265 21.699 18.622C21.8016 18.5388 21.8541 18.4601 21.9066 18.3815C21.9066 18.3815 21.9212 18.3858 21.9693 18.3875C22.0423 18.3363 22.0672 18.2834 22.0921 18.2305C22.0921 18.2305 22.1241 18.2709 22.1594 18.251C22.2274 18.1808 22.26 18.1304 22.2927 18.08C22.2927 18.08 22.308 18.1046 22.3433 18.0897C22.4083 18.0224 22.4381 17.9699 22.4679 17.9174C22.4679 17.9174 22.4794 17.9437 22.526 17.9378C22.6609 17.8293 22.7492 17.7267 22.8375 17.6241C22.8375 17.6241 22.8674 17.5833 22.9546 17.5858C23.1982 17.4289 23.3547 17.2694 23.5112 17.11C23.5112 17.11 23.5374 17.0708 23.6225 17.0752C23.8056 16.9722 23.9036 16.8647 24.0015 16.7571C24.0015 16.7571 24.0085 16.7711 24.0572 16.7676C24.1731 16.6922 24.2404 16.6202 24.3076 16.5483C24.3076 16.5483 24.3324 16.5957 24.3756 16.5863C24.5536 16.4586 24.6885 16.3404 24.8233 16.2222C24.8233 16.2222 24.8384 16.2522 24.8871 16.2473C25.1347 16.0837 25.3335 15.9249 25.5324 15.7661C25.5324 15.7661 25.5688 15.727 25.6561 15.732C25.8116 15.6603 25.8799 15.5836 25.9482 15.5069C25.9482 15.5069 25.9656 15.5066 26.029 15.5243C26.4529 15.3155 26.8134 15.0891 27.1738 14.8627C27.1738 14.8627 27.1952 14.9088 27.241 14.9C27.3607 14.8231 27.4347 14.755 27.5086 14.6869C27.5086 14.6869 27.5368 14.7035 27.5829 14.715C27.7735 14.6272 27.9181 14.5278 28.0627 14.4284C28.0627 14.4284 28.1143 14.3913 28.2112 14.3972C28.668 14.2252 29.028 14.0474 29.388 13.8696C29.388 13.8696 29.3981 13.8944 29.4557 13.896C29.6225 13.8796 29.7336 13.8696 29.8403 13.8421C31.5791 13.3943 33.3167 12.9417 35.0562 12.4962C35.5916 12.3591 36.1316 12.24 36.6696 12.1126C36.7943 12.0945 36.9191 12.0764 37.1544 12.1107C37.6822 12.1174 38.0993 12.0716 38.5165 12.0259C38.9146 12.0186 39.3127 12.0114 39.8303 12.0676C42.137 12.4982 44.328 12.8442 46.5093 13.2435C47.2941 13.3871 48.0553 13.6589 48.8273 13.8722C48.8273 13.8722 48.8088 13.8923 48.8391 13.9344C49.2593 14.1109 49.6492 14.2453 50.039 14.3797C50.039 14.3797 50.0974 14.3846 50.1327 14.4627C50.3445 14.5897 50.5209 14.6387 50.6973 14.6876C50.6973 14.6876 50.659 14.7166 50.6913 14.7564C50.8264 14.8175 50.9291 14.8388 51.0319 14.8602C51.0319 14.8602 51.0032 14.9097 51.0291 14.9458C51.2702 15.0585 51.4853 15.1349 51.7005 15.2113C51.7005 15.2113 51.666 15.2437 51.695 15.2852C51.8934 15.3782 52.0627 15.4298 52.232 15.4815C52.232 15.4815 52.2452 15.4975 52.2531 15.5605C52.3687 15.6546 52.4764 15.6857 52.5841 15.7167C52.5841 15.7167 52.6373 15.7221 52.6653 15.7994C52.927 15.9914 53.1608 16.106 53.3945 16.2207C53.3945 16.2207 53.3673 16.2533 53.3888 16.2934C53.5755 16.4042 53.7408 16.475 53.9061 16.5458C53.9061 16.5458 53.8717 16.6059 53.8935 16.6342C54.1782 16.8112 54.4412 16.9598 54.7041 17.1084C54.7041 17.1084 54.7008 17.1097 54.7072 17.1704C54.9096 17.3419 55.1055 17.4528 55.3015 17.5636C55.3015 17.5636 55.3463 17.574 55.3671 17.6502C55.509 17.7894 55.6301 17.8522 55.7513 17.915C55.7513 17.915 55.7278 17.945 55.7452 17.9747C55.8179 18.0279 55.8731 18.0513 55.9283 18.0747C55.9283 18.0747 55.8878 18.1142 55.9137 18.1397C55.9958 18.1827 56.052 18.2002 56.1081 18.2177C56.1081 18.2177 56.0645 18.279 56.0904 18.3043C56.2089 18.3711 56.3014 18.4125 56.394 18.454C56.394 18.454 56.3873 18.4584 56.4036 18.4968C56.4712 18.5617 56.5225 18.5883 56.5738 18.6149C56.5738 18.6149 56.5581 18.6228 56.5675 18.6747C56.6981 18.7981 56.8192 18.8697 56.9404 18.9412C56.9898 18.9482 57.0292 18.9719 57.0819 19.0938C57.1614 19.205 57.2175 19.2348 57.2736 19.2645C57.2736 19.2645 57.2507 19.2809 57.2701 19.3187C57.3494 19.3835 57.4094 19.4105 57.4694 19.4375C57.514 19.4466 57.5491 19.47 57.5935 19.5893C57.6702 19.7009 57.7282 19.7309 57.7862 19.7609C57.7862 19.7609 57.739 19.7918 57.7656 19.8216C57.8465 19.8765 57.9008 19.9017 57.955 19.9269C57.955 19.9269 57.9139 19.9786 57.9369 19.9999C58.0136 20.048 58.0673 20.0748 58.1209 20.1016C58.1209 20.1016 58.0919 20.1318 58.1111 20.1649C58.1895 20.2258 58.2486 20.2535 58.3078 20.2812C58.3544 20.2928 58.3894 20.3196 58.4219 20.4548C58.6748 20.7735 58.9183 20.999 59.1619 21.2245C59.1619 21.2245 59.1736 21.2447 59.1679 21.2984C59.2136 21.3752 59.2649 21.3983 59.3163 21.4215C59.3163 21.4215 59.3027 21.4397 59.3094 21.4848C59.3691 21.5574 59.4223 21.5848 59.4754 21.6122C59.4754 21.6122 59.4421 21.6624 59.4477 21.6973C59.6139 21.8765 59.7744 22.0207 59.935 22.165C59.935 22.165 59.9277 22.1674 59.9294 22.2153C60.0223 22.3492 60.1135 22.4351 60.2047 22.521C60.2047 22.521 60.258 22.5685 60.268 22.6599C60.3566 22.8109 60.435 22.8706 60.5135 22.9303C60.5135 22.9303 60.5069 22.9432 60.5052 22.9952C60.5557 23.0811 60.6079 23.115 60.6601 23.1488C60.7103 23.1683 60.7453 23.2031 60.7721 23.3453C60.8521 23.5048 60.9253 23.572 60.9984 23.6392C60.9984 23.6392 60.9371 23.6676 60.9549 23.7081C61.07 23.8428 61.1672 23.9369 61.2645 24.031C61.2645 24.031 61.3051 24.0675 61.3017 24.1549C61.3746 24.3112 61.451 24.38 61.5273 24.4488C61.5273 24.4488 61.5251 24.4645 61.5102 24.5233C61.716 24.8939 61.9368 25.2057 62.1576 25.5175C62.1576 25.5175 62.1298 25.531 62.1336 25.5762C62.2057 25.695 62.274 25.7686 62.3422 25.8422C62.3422 25.8422 62.3036 25.8782 62.3055 25.9193C62.414 26.1024 62.5205 26.2444 62.627 26.3864C62.627 26.3864 62.6627 26.4251 62.6555 26.5117C62.719 26.679 62.7897 26.7596 62.8605 26.8402C62.8605 26.8402 62.7965 26.8569 62.8096 26.9108C62.9238 27.1095 63.0249 27.2543 63.126 27.3991C63.126 27.3991 63.1624 27.4482 63.1527 27.546C63.4285 28.2879 63.7141 28.932 63.9997 29.5761C63.9997 29.5761 63.9811 29.5804 63.9794 29.6418C64.7108 32.3231 65.3609 34.9568 65.3478 37.7057C65.3472 37.8154 65.4813 37.9258 65.5526 38.0358C65.5654 38.3165 65.5782 38.5972 65.5185 38.9785C65.411 39.1532 65.3552 39.2244 65.344 39.3019C65.0651 41.2428 64.7953 43.1851 64.5129 45.1256C64.4272 45.7144 64.3089 46.2985 64.2056 46.8848C64.2056 46.8848 64.2139 46.9261 64.1456 46.9757C64.0613 47.1468 64.0453 47.2683 64.0292 47.3898C64.0292 47.3898 64.0325 47.4323 63.9609 47.4738C63.6333 48.2232 63.3774 48.931 63.1214 49.6389C63.1214 49.6389 63.1325 49.6472 63.0668 49.6593C62.8882 49.9678 62.7754 50.2642 62.6625 50.5606C62.6625 50.5606 62.6552 50.6192 62.5772 50.6513C62.3784 50.9651 62.2577 51.2468 62.137 51.5285C62.137 51.5285 62.1259 51.5154 62.0913 51.5376C62.0478 51.6182 62.0389 51.6765 62.0301 51.735C62.0301 51.735 61.9581 51.7287 61.9329 51.7414C61.8779 51.8651 61.8481 51.976 61.8182 52.087C61.8182 52.087 61.8165 52.1404 61.7388 52.1689C61.615 52.3252 61.5688 52.453 61.5227 52.5808C61.5227 52.5808 61.4964 52.5606 61.449 52.5773C61.3694 52.701 61.3372 52.8081 61.3049 52.9152C61.3049 52.9152 61.2963 52.9767 61.2188 53.0081C61.0895 53.1614 61.0377 53.2834 60.9859 53.4053C60.9859 53.4053 60.9582 53.3792 60.9221 53.4007C60.8498 53.5185 60.8138 53.6147 60.7777 53.7109C60.7777 53.7109 60.771 53.7025 60.7171 53.7113C60.6105 53.8454 60.5579 53.9706 60.5052 54.0958C60.5052 54.0958 60.4456 54.0555 60.4198 54.0793C60.3544 54.1984 60.3149 54.2938 60.2753 54.3892C60.2753 54.3892 60.2667 54.377 60.2138 54.386C60.1059 54.5201 60.0509 54.6452 59.9959 54.7703C59.9959 54.7703 59.9368 54.7297 59.9068 54.7503C59.7869 54.9268 59.6969 55.0826 59.607 55.2384C59.607 55.2384 59.597 55.2236 59.5526 55.2416C59.4405 55.3769 59.3727 55.4942 59.3048 55.6115C59.3048 55.6115 59.2688 55.5767 59.2405 55.5958C59.1969 55.6727 59.1816 55.7307 59.1662 55.7886C59.1662 55.7886 59.1215 55.7626 59.0862 55.777C59.0065 55.8829 58.9622 55.9743 58.9178 56.0658C58.9178 56.0658 58.9162 56.0618 58.859 56.0665C58.6249 56.3044 58.4481 56.5377 58.2713 56.771C58.2713 56.771 58.2582 56.7543 58.2194 56.7703C58.153 56.8452 58.1255 56.904 58.098 56.9629C58.093 57.0116 58.0697 57.0489 57.9461 57.0957C57.8315 57.1728 57.799 57.2289 57.7664 57.285C57.7664 57.285 57.761 57.2672 57.7203 57.2806C57.6507 57.3518 57.6218 57.4095 57.5929 57.4673C57.5865 57.5173 57.5619 57.5558 57.4244 57.5899C57.1101 57.8438 56.8905 58.0904 56.671 58.337C56.671 58.337 56.6461 58.3549 56.5887 58.3452C56.5162 58.3874 56.5011 58.4394 56.486 58.4913C56.486 58.4913 56.4677 58.5017 56.413 58.4977C56.335 58.5481 56.3117 58.6024 56.2884 58.6568C56.2884 58.6568 56.2558 58.6054 56.2191 58.6285C56.1536 58.7055 56.1247 58.7594 56.0959 58.8132C56.0959 58.8132 56.061 58.7817 56.0327 58.7963C55.9721 58.8627 55.9396 58.9145 55.9072 58.9662C55.9072 58.9662 55.9007 58.9482 55.8626 58.9599C55.7937 59.0237 55.7629 59.0758 55.732 59.1279C55.732 59.1279 55.7216 59.1049 55.6737 59.1097C55.5725 59.1934 55.5193 59.2723 55.466 59.3511C55.466 59.3511 55.4492 59.3486 55.3983 59.3427C55.3166 59.3878 55.2859 59.4388 55.2552 59.4898C55.2552 59.4898 55.2281 59.4305 55.1843 59.4487C55.0534 59.5735 54.9663 59.6802 54.8791 59.7868C54.8791 59.7868 54.8711 59.7741 54.8356 59.7854C54.765 59.8403 54.7301 59.884 54.6951 59.9277C54.6951 59.9277 54.665 59.9704 54.5779 59.9671C54.3927 60.0698 54.2947 60.1759 54.1967 60.2819C54.1967 60.2819 54.1952 60.2772 54.1433 60.2788C54.0228 60.351 53.9542 60.4216 53.8855 60.4922C53.8855 60.4922 53.8715 60.4669 53.8224 60.469C53.7041 60.5525 53.635 60.6339 53.5658 60.7152C53.5432 60.7559 53.5095 60.7829 53.3731 60.7967C53.2127 60.8738 53.144 60.9502 53.0754 61.0267C53.0754 61.0267 53.0076 60.9796 52.9849 60.9848C52.8653 61.0842 52.7684 61.1783 52.6715 61.2724C52.6715 61.2724 52.6306 61.3137 52.5368 61.3102C51.9689 61.5977 51.4948 61.8886 51.0207 62.1796C51.0207 62.1796 50.9985 62.1468 50.9569 62.1495C50.8374 62.2181 50.7594 62.2839 50.6815 62.3498C50.6815 62.3498 50.6675 62.3219 50.6193 62.3183C50.4275 62.4126 50.2839 62.5105 50.1402 62.6084C50.1402 62.6084 50.0848 62.6478 49.982 62.6447C49.1216 62.9699 48.3639 63.298 47.6063 63.6262C47.6063 63.6262 47.5994 63.6411 47.5227 63.6347C47.1968 63.6537 46.9426 63.6557 46.6995 63.7085C45.346 64.0025 43.995 64.3073 42.6438 64.6115C42.1617 64.7201 41.6816 64.8374 41.2006 64.9508C41.0762 64.9655 40.9518 64.9802 40.7126 64.9401C39.5656 64.9159 38.5335 64.9465 37.5015 64.9771C37.427 64.9809 37.3526 64.9847 37.2042 64.9107C36.1544 64.7321 35.1784 64.6312 34.2025 64.5304C34.2025 64.5304 34.1667 64.5511 34.1138 64.4849C32.9918 64.1748 31.9227 63.9308 30.8536 63.6868C30.8536 63.6868 30.8 63.6973 30.7521 63.6251C30.2279 63.41 29.7516 63.267 29.2753 63.124C29.2753 63.124 29.2587 63.1351 29.2393 63.0667C28.9097 62.8953 28.5993 62.7924 28.289 62.6894C28.289 62.6894 28.2541 62.6931 28.2161 62.6239C27.9587 62.4814 27.7393 62.4083 27.5198 62.3351C27.5198 62.3351 27.5392 62.3181 27.5177 62.2697C27.1969 62.0992 26.8976 61.977 26.5982 61.8549C26.5982 61.8549 26.5642 61.8545 26.5314 61.7964C26.4374 61.7259 26.3762 61.7134 26.3151 61.701C26.3151 61.701 26.2993 61.6786 26.2995 61.6295C26.0786 61.4923 25.8576 61.4041 25.6366 61.316C25.6366 61.316 25.577 61.3093 25.5452 61.2315C25.3874 61.1099 25.2613 61.0661 25.1351 61.0223C25.1351 61.0223 25.163 60.953 25.1444 60.9313C25.026 60.876 24.9263 60.8423 24.8266 60.8086C24.8266 60.8086 24.8428 60.7946 24.8227 60.7597C24.744 60.7114 24.6855 60.6981 24.6269 60.6848C24.6269 60.6848 24.6789 60.6746 24.6484 60.6244C24.5175 60.5418 24.4171 60.5094 24.3167 60.4771C24.3167 60.4771 24.3358 60.4594 24.3169 60.4246C24.2396 60.3746 24.181 60.3594 24.1225 60.3441C24.1225 60.3441 24.1684 60.3143 24.1422 60.2668C23.942 60.1384 23.7679 60.0575 23.5939 59.9766C23.5939 59.9766 23.5423 59.9675 23.5087 59.9076C23.4252 59.8246 23.3753 59.8014 23.3255 59.7783C23.3255 59.7783 23.3354 59.7721 23.3274 59.7184C23.1962 59.6052 23.0729 59.5458 22.9495 59.4863C22.9495 59.4863 22.9736 59.4374 22.9567 59.4144C22.8816 59.3777 22.8234 59.3638 22.7652 59.3499C22.7652 59.3499 22.7785 59.3163 22.7728 59.2696C22.61 59.1326 22.453 59.0424 22.296 58.9521C22.296 58.9521 22.3116 58.9393 22.2952 58.9034C22.2231 58.8438 22.1675 58.82 22.1118 58.7963C22.1118 58.7963 22.1337 58.785 22.1189 58.7471C22.0459 58.6904 21.9877 58.6715 21.9296 58.6527C21.9296 58.6527 21.982 58.6014 21.9542 58.5777C21.8688 58.5384 21.8112 58.5228 21.7535 58.5073C21.7535 58.5073 21.7509 58.4923 21.7501 58.4449C21.6956 58.388 21.6419 58.3786 21.5883 58.3692C21.5883 58.3692 21.5646 58.3523 21.5701 58.2847C21.3052 58.0106 21.0347 57.804 20.7642 57.5974C20.7141 57.5909 20.6739 57.5675 20.6214 57.4449C20.5446 57.3301 20.4899 57.2976 20.4353 57.265C20.4353 57.265 20.4514 57.2604 20.4362 57.2206C20.3641 57.1513 20.3074 57.1218 20.2506 57.0923C20.2506 57.0923 20.1854 57.0656 20.1642 56.9798C20.0192 56.7911 19.8955 56.6882 19.7719 56.5854C19.7719 56.5854 19.7861 56.5743 19.7702 56.5376C19.702 56.4695 19.6497 56.438 19.5973 56.4065ZM35.3486 50.299C35.3486 50.299 35.3486 50.287 35.323 50.4493C35.3195 51.0833 35.2906 51.7187 35.3259 52.3505C35.3388 52.5822 35.5038 52.8053 35.6253 53.1407C35.6242 53.2149 35.6231 53.289 35.5732 53.4071C35.6108 53.4444 35.6483 53.4816 35.7936 53.5669C36.059 53.5538 36.3497 53.6074 36.586 53.5178C40.3916 52.0752 44.1883 50.6095 47.991 49.1594C50.5409 48.187 52.2523 46.4258 53.1323 43.835C53.2357 43.5307 53.5093 43.1828 53.793 43.0589C54.9447 42.5559 55.6034 41.6669 55.6913 40.4779C55.792 39.116 55.7853 37.7312 55.6576 36.3722C55.5555 35.286 54.8979 34.4852 53.8617 33.9925C53.5357 33.8374 53.2328 33.4528 53.0996 33.1043C52.5058 31.5503 51.687 30.1785 50.3322 29.1621C48.6129 27.8722 46.6214 27.3519 44.5438 27.0469C43.9956 26.9664 43.4401 26.8725 42.9173 26.6972C42.1054 26.4249 41.319 26.0766 40.521 25.7624C40.3214 25.6838 40.042 25.6712 39.9317 25.5269C39.5232 24.9932 39.7506 23.6852 40.2852 23.2407C41.1251 22.5423 41.2334 21.35 40.5307 20.5387C39.8242 19.723 38.6098 19.655 37.8247 20.3872C37.0385 21.1204 36.9282 22.4768 37.8044 23.0623C38.6523 23.6289 38.5028 24.2472 38.4069 25.0065C38.3428 25.5133 38.1723 25.7243 37.6501 25.7962C37.0752 25.8754 36.4247 25.9709 35.9784 26.2951C35.1723 26.8808 34.2808 26.9491 33.3694 27.0881C29.4555 27.6849 26.2987 29.2908 25.0167 33.3952C24.9405 33.6392 24.6414 33.8826 24.3882 33.9903C23.296 34.4549 22.6479 35.3058 22.5464 36.423C22.423 37.7826 22.4236 39.1678 22.5304 40.5294C22.6211 41.6855 23.2809 42.5426 24.3878 43.0498C24.6939 43.1901 24.9826 43.5542 25.1036 43.8807C25.6824 45.4414 26.5055 46.8075 27.8435 47.8436C29.5493 49.1646 31.5697 49.6193 33.6531 50.1416C34.2154 50.1912 34.7778 50.2408 35.3486 50.299Z" fill="url(#paint0_linear_31_2030)"/>
<path d="M48.7887 13.8269C48.0551 13.6584 47.2939 13.3866 46.5091 13.243C44.3278 12.8437 42.1367 12.4977 39.9038 12.0796C42.0055 12.3273 44.1608 12.5797 46.2962 12.9478C47.1372 13.0928 47.9335 13.4963 48.7887 13.8269Z" fill="#EE4B4A"/>
<path d="M65.5777 37.9607C65.4813 37.9254 65.3473 37.815 65.3478 37.7054C65.361 34.9564 64.7108 32.3227 63.9863 29.6348C64.4883 31.5877 65.0161 33.6011 65.4565 35.6335C65.614 36.3607 65.5601 37.1338 65.5777 37.9607Z" fill="#EE4B4A"/>
<path d="M64.2483 46.8377C64.3089 46.2981 64.4272 45.714 64.5129 45.1251C64.7953 43.1847 65.065 41.2424 65.344 39.3015C65.3552 39.2239 65.4109 39.1528 65.4988 39.0459C65.6627 41.6918 65.0981 44.261 64.2483 46.8377Z" fill="#EE4B4A"/>
<path d="M36.5967 12.0967C36.1316 12.24 35.5916 12.3592 35.0561 12.4963C33.3167 12.9418 31.5791 13.3944 29.8402 13.8422C29.7336 13.8697 29.6224 13.8796 29.4465 13.8863C31.6427 12.8056 34.0584 12.3441 36.5967 12.0967Z" fill="#EE4B4A"/>
<path d="M41.2739 64.9654C41.6816 64.8369 42.1618 64.7195 42.6439 64.6109C43.995 64.3067 45.3461 64.0019 46.6995 63.7079C46.9426 63.6551 47.1969 63.6531 47.5163 63.6289C45.5069 64.0803 43.4271 64.5304 41.2739 64.9654Z" fill="#EE4B4A"/>
<path d="M37.5691 64.9981C38.5337 64.9461 39.5657 64.9155 40.6503 64.9307C39.6807 64.9908 38.6587 65.0052 37.5691 64.9981Z" fill="#EE4B4A"/>
<path d="M34.2549 64.5747C35.1782 64.6313 36.1542 64.7321 37.15 64.895C36.2158 64.8444 35.2616 64.7316 34.2549 64.5747Z" fill="#EE4B4A"/>
<path d="M30.9009 63.729C31.9228 63.9306 32.9919 64.1746 34.0968 64.4732C33.0711 64.2757 32.0096 64.0235 30.9009 63.729Z" fill="#EE4B4A"/>
<path d="M47.6699 63.6303C48.3639 63.2978 49.1215 62.9696 49.9481 62.6475C49.2558 62.9805 48.4947 63.3076 47.6699 63.6303Z" fill="#EE4B4A"/>
<path d="M64.0006 29.5098C63.7142 28.9317 63.4286 28.2875 63.1541 27.5762C63.4439 28.1539 63.7227 28.7988 64.0006 29.5098Z" fill="#EE4B4A"/>
<path d="M63.1628 49.5994C63.3773 48.931 63.6332 48.2232 63.9451 47.4883C63.7355 48.1608 63.47 48.8603 63.1628 49.5994Z" fill="#EE4B4A"/>
<path d="M38.46 12C38.0993 12.0715 37.6822 12.1172 37.2173 12.1188C37.5808 12.0413 37.9921 12.0077 38.46 12Z" fill="#EE4B4A"/>
<path d="M51.0813 62.1726C51.4947 61.8885 51.9688 61.5975 52.5078 61.3125C52.0957 61.6009 51.6188 61.8833 51.0813 62.1726Z" fill="#EE4B4A"/>
<path d="M14.2175 47.5283C14.4366 47.9433 14.6553 48.422 14.8493 48.9647C14.6222 48.5499 14.4197 48.071 14.2175 47.5283Z" fill="#EE4B4A"/>
<path d="M29.3179 63.1626C29.7515 63.2665 30.2278 63.4095 30.7301 63.6085C30.2908 63.5102 29.8257 63.3559 29.3179 63.1626Z" fill="#EE4B4A"/>
<path d="M27.1144 14.8691C26.8134 15.0889 26.4529 15.3153 26.0332 15.5164C26.3343 15.286 26.6947 15.0809 27.1144 14.8691Z" fill="#EE4B4A"/>
<path d="M62.1507 25.4592C61.9368 25.2059 61.716 24.8941 61.5181 24.5234C61.742 24.7767 61.943 25.0887 62.1507 25.4592Z" fill="#EE4B4A"/>
<path d="M29.3252 13.8687C29.0278 14.0472 28.6679 14.225 28.2427 14.3939C28.5392 14.2126 28.9009 14.0402 29.3252 13.8687Z" fill="#EE4B4A"/>
<path d="M50.0004 14.333C49.6492 14.2451 49.2593 14.1106 48.844 13.9214C49.1996 14.0065 49.5807 14.1465 50.0004 14.333Z" fill="#EE4B4A"/>
<path d="M59.1416 21.1746C58.9181 20.9986 58.6746 20.7732 58.4331 20.4863C58.6639 20.6583 58.8927 20.8917 59.1416 21.1746Z" fill="#EE4B4A"/>
<path d="M20.7839 57.6494C21.0347 57.8034 21.3052 58.01 21.5586 58.2754C21.2956 58.1234 21.0496 57.9127 20.7839 57.6494Z" fill="#EE4B4A"/>
<path d="M56.7195 58.3166C56.8906 58.0899 57.1101 57.8433 57.391 57.6006C57.2243 57.8352 56.9961 58.0659 56.7195 58.3166Z" fill="#EE4B4A"/>
<path d="M58.3228 56.7526C58.448 56.5375 58.6248 56.3042 58.8608 56.0669C58.7382 56.2868 58.5563 56.5106 58.3228 56.7526Z" fill="#EE4B4A"/>
<path d="M15.6013 50.7168C15.7604 50.9063 15.9224 51.1525 16.0791 51.4606C15.9173 51.2729 15.7607 51.0232 15.6013 50.7168Z" fill="#EE4B4A"/>
<path d="M28.3257 62.7368C28.5993 62.7922 28.9097 62.8952 29.2356 63.0572C28.9549 63.0057 28.6587 62.895 28.3257 62.7368Z" fill="#EE4B4A"/>
<path d="M15.0952 49.7036C15.2541 49.9049 15.4121 50.164 15.5612 50.4875C15.3997 50.2885 15.2471 50.025 15.0952 49.7036Z" fill="#EE4B4A"/>
<path d="M26.6345 61.9019C26.8974 61.9769 27.1967 62.0991 27.5126 62.2815C27.2431 62.2109 26.9571 62.0799 26.6345 61.9019Z" fill="#EE4B4A"/>
<path d="M62.71 50.5262C62.7756 50.2642 62.8884 49.9677 63.0601 49.6587C62.9983 49.928 62.8778 50.2099 62.71 50.5262Z" fill="#EE4B4A"/>
<path d="M54.6776 17.0595C54.4413 16.9597 54.1783 16.8111 53.9094 16.6035C54.1526 16.6999 54.4018 16.8552 54.6776 17.0595Z" fill="#EE4B4A"/>
<path d="M62.1858 51.5003C62.2576 51.2464 62.3783 50.9647 62.5568 50.6724C62.488 50.932 62.3613 51.2023 62.1858 51.5003Z" fill="#EE4B4A"/>
<path d="M53.3706 16.1716C53.1608 16.1061 52.9271 15.9914 52.6843 15.8184C52.8991 15.8808 53.1229 16.0016 53.3706 16.1716Z" fill="#EE4B4A"/>
<path d="M25.4765 15.7705C25.3335 15.9247 25.1347 16.0835 24.8755 16.235C25.017 16.0769 25.2188 15.926 25.4765 15.7705Z" fill="#EE4B4A"/>
<path d="M59.9244 22.1128C59.7742 22.0208 59.6137 21.8765 59.4651 21.6724C59.6227 21.7618 59.7684 21.9112 59.9244 22.1128Z" fill="#EE4B4A"/>
<path d="M19.7241 20.4521C19.65 20.6135 19.5241 20.7936 19.3376 20.977C19.4088 20.8105 19.5405 20.6407 19.7241 20.4521Z" fill="#EE4B4A"/>
<path d="M21.591 18.627C21.5056 18.7807 21.3676 18.9457 21.1697 19.1062C21.2526 18.9472 21.3955 18.7927 21.591 18.627Z" fill="#EE4B4A"/>
<path d="M55.274 17.5146C55.1056 17.4526 54.9096 17.3417 54.7073 17.1685C54.8827 17.2259 55.0646 17.3458 55.274 17.5146Z" fill="#EE4B4A"/>
<path d="M23.4562 17.1177C23.3547 17.269 23.1983 17.4285 22.9792 17.5796C23.0782 17.4227 23.2397 17.2743 23.4562 17.1177Z" fill="#EE4B4A"/>
<path d="M51.6687 15.1661C51.4853 15.135 51.2701 15.0586 51.0439 14.9209C51.2343 14.9467 51.4357 15.0338 51.6687 15.1661Z" fill="#EE4B4A"/>
<path d="M27.5537 62.3813C27.7394 62.4082 27.9588 62.4814 28.2043 62.6109C28.016 62.5874 27.8017 62.5075 27.5537 62.3813Z" fill="#EE4B4A"/>
<path d="M50.6655 14.6446C50.5208 14.6383 50.3443 14.5894 50.1553 14.481C50.3064 14.4816 50.4701 14.5418 50.6655 14.6446Z" fill="#EE4B4A"/>
<path d="M28.0094 14.4272C27.918 14.5279 27.7734 14.6272 27.5691 14.7081C27.6583 14.6017 27.8073 14.5139 28.0094 14.4272Z" fill="#EE4B4A"/>
<path d="M63.1288 27.3451C63.0249 27.254 62.9238 27.1092 62.8418 26.9038C62.9511 26.9927 63.0413 27.1421 63.1288 27.3451Z" fill="#EE4B4A"/>
<path d="M62.6271 26.3324C62.5207 26.2445 62.4142 26.1025 62.323 25.8994C62.4345 25.985 62.5307 26.1317 62.6271 26.3324Z" fill="#EE4B4A"/>
<path d="M19.7837 56.6328C19.8955 56.688 20.0192 56.7909 20.1457 56.9495C20.0309 56.897 19.9132 56.7888 19.7837 56.6328Z" fill="#EE4B4A"/>
<path d="M16.3784 52.0991C16.4914 52.1834 16.6083 52.3215 16.707 52.5183C16.5866 52.4356 16.4845 52.2943 16.3784 52.0991Z" fill="#EE4B4A"/>
<path d="M16.967 53.0703C17.1033 53.1811 17.249 53.3463 17.3955 53.5722C17.2564 53.4635 17.1165 53.2942 16.967 53.0703Z" fill="#EE4B4A"/>
<path d="M52.1991 15.4417C52.0626 15.4294 51.8933 15.3778 51.7102 15.2666C51.853 15.2721 52.0097 15.3372 52.1991 15.4417Z" fill="#EE4B4A"/>
<path d="M22.312 59.002C22.4529 59.0419 22.6099 59.1322 22.7606 59.2827C22.6123 59.246 22.4702 59.1491 22.312 59.002Z" fill="#EE4B4A"/>
<path d="M24.7697 16.23C24.6883 16.3405 24.5535 16.4587 24.3601 16.5644C24.4398 16.4471 24.578 16.3424 24.7697 16.23Z" fill="#EE4B4A"/>
<path d="M53.8815 16.4989C53.7409 16.4753 53.5757 16.4045 53.3989 16.2749C53.5439 16.2947 53.7004 16.3732 53.8815 16.4989Z" fill="#EE4B4A"/>
<path d="M23.6213 60.0249C23.7678 60.0572 23.9419 60.1381 24.1189 60.2825C23.9642 60.2551 23.8066 60.1643 23.6213 60.0249Z" fill="#EE4B4A"/>
<path d="M25.6702 61.3633C25.8577 61.4044 26.0787 61.4925 26.3051 61.6423C26.1082 61.6062 25.9059 61.5083 25.6702 61.3633Z" fill="#EE4B4A"/>
<path d="M50.1934 62.6087C50.2839 62.5103 50.4275 62.4124 50.6308 62.3286C50.5425 62.4316 50.3945 62.5204 50.1934 62.6087Z" fill="#EE4B4A"/>
<path d="M60.0405 54.7478C60.0508 54.6452 60.1058 54.5201 60.2202 54.3896C60.2148 54.498 60.15 54.6117 60.0405 54.7478Z" fill="#EE4B4A"/>
<path d="M18.6922 21.6377C18.6757 21.739 18.6124 21.8598 18.4912 21.986C18.504 21.8799 18.5748 21.7686 18.6922 21.6377Z" fill="#EE4B4A"/>
<path d="M17.9387 54.4346C18.0369 54.4786 18.1448 54.5755 18.2455 54.7345C18.1416 54.6936 18.045 54.5905 17.9387 54.4346Z" fill="#EE4B4A"/>
<path d="M25.1597 61.0645C25.2612 61.0658 25.3873 61.1097 25.5243 61.2098C25.4181 61.213 25.3012 61.16 25.1597 61.0645Z" fill="#EE4B4A"/>
<path d="M52.7212 61.2712C52.7684 61.1779 52.8653 61.0838 53.0175 61.0098C52.9723 61.11 52.8716 61.1902 52.7212 61.2712Z" fill="#EE4B4A"/>
<path d="M56.9207 18.8923C56.8192 18.8696 56.6981 18.798 56.5728 18.6675C56.6794 18.6868 56.7902 18.7652 56.9207 18.8923Z" fill="#EE4B4A"/>
<path d="M55.7326 17.8675C55.6303 17.8524 55.5092 17.7895 55.3794 17.6699C55.4851 17.682 55.5995 17.7509 55.7326 17.8675Z" fill="#EE4B4A"/>
<path d="M22.7867 17.6304C22.7493 17.7265 22.661 17.8291 22.5164 17.9271C22.5519 17.8273 22.6438 17.7321 22.7867 17.6304Z" fill="#EE4B4A"/>
<path d="M23.9482 16.7646C23.9035 16.8642 23.8056 16.9717 23.6455 17.0697C23.6873 16.9644 23.7911 16.8685 23.9482 16.7646Z" fill="#EE4B4A"/>
<path d="M60.5488 54.0714C60.558 53.9702 60.6107 53.845 60.7223 53.7129C60.7182 53.8198 60.6553 53.9336 60.5488 54.0714Z" fill="#EE4B4A"/>
<path d="M17.4404 53.75C17.536 53.7923 17.6372 53.885 17.7243 54.035C17.6221 53.995 17.534 53.8977 17.4404 53.75Z" fill="#EE4B4A"/>
<path d="M61.5657 52.5554C61.5688 52.4531 61.6149 52.3254 61.719 52.187C61.7208 52.2942 61.6648 52.412 61.5657 52.5554Z" fill="#EE4B4A"/>
<path d="M59.6562 55.2189C59.6968 55.0825 59.7867 54.9267 59.9359 54.77C59.8987 54.9126 59.8022 55.056 59.6562 55.2189Z" fill="#EE4B4A"/>
<path d="M22.97 59.5322C23.0728 59.5453 23.1962 59.6048 23.3244 59.723C23.2164 59.714 23.1034 59.6463 22.97 59.5322Z" fill="#EE4B4A"/>
<path d="M18.1559 22.2998C18.1475 22.4025 18.0948 22.5275 17.9827 22.6575C17.986 22.5491 18.0488 22.4356 18.1559 22.2998Z" fill="#EE4B4A"/>
<path d="M61.2604 23.9806C61.1672 23.937 61.0699 23.8428 60.9849 23.6924C61.0835 23.7341 61.17 23.8321 61.2604 23.9806Z" fill="#EE4B4A"/>
<path d="M54.9299 59.7803C54.9663 59.6804 55.0534 59.5737 55.1993 59.478C55.1656 59.5839 55.0731 59.6787 54.9299 59.7803Z" fill="#EE4B4A"/>
<path d="M54.2498 60.2738C54.2946 60.1758 54.3926 60.0697 54.552 59.9712C54.5099 60.0744 54.4064 60.1701 54.2498 60.2738Z" fill="#EE4B4A"/>
<path d="M18.3037 54.9204C18.3961 54.9554 18.4991 55.0396 18.6026 55.1786C18.5069 55.1455 18.4107 55.0575 18.3037 54.9204Z" fill="#EE4B4A"/>
<path d="M61.03 53.3835C61.0377 53.2834 61.0895 53.1614 61.1961 53.0293C61.1919 53.1333 61.133 53.2475 61.03 53.3835Z" fill="#EE4B4A"/>
<path d="M59.3533 55.593C59.3725 55.4938 59.4403 55.3765 59.5608 55.2446C59.5428 55.345 59.4724 55.46 59.3533 55.593Z" fill="#EE4B4A"/>
<path d="M60.1939 22.4748C60.1137 22.4349 60.0225 22.349 59.9316 22.2119C60.0156 22.25 60.0992 22.3394 60.1939 22.4748Z" fill="#EE4B4A"/>
<path d="M25.9 15.5205C25.8799 15.5834 25.8116 15.6601 25.6826 15.7283C25.6985 15.6581 25.7751 15.5962 25.9 15.5205Z" fill="#EE4B4A"/>
<path d="M24.8477 60.8539C24.9262 60.8419 25.0259 60.8756 25.1315 60.9657C25.0479 60.9812 24.9584 60.9403 24.8477 60.8539Z" fill="#EE4B4A"/>
<path d="M55.5105 59.3369C55.5192 59.2724 55.5724 59.1935 55.6827 59.1187C55.6781 59.1893 55.6166 59.2559 55.5105 59.3369Z" fill="#EE4B4A"/>
<path d="M60.8225 53.6878C60.8139 53.6146 60.85 53.5184 60.939 53.4097C60.9503 53.4863 60.9088 53.5755 60.8225 53.6878Z" fill="#EE4B4A"/>
<path d="M58.9631 56.0497C58.9623 55.9742 59.0066 55.8827 59.1057 55.7939C59.1097 55.8757 59.059 55.9547 58.9631 56.0497Z" fill="#EE4B4A"/>
<path d="M19.0662 55.8311C19.1302 55.841 19.2078 55.8972 19.2889 56.0076C19.2215 56.0003 19.1506 55.9388 19.0662 55.8311Z" fill="#EE4B4A"/>
<path d="M50.7332 62.3488C50.7592 62.2838 50.8372 62.2179 50.971 62.1631C50.9462 62.2321 50.8656 62.29 50.7332 62.3488Z" fill="#EE4B4A"/>
<path d="M17.7166 54.1362C17.7825 54.1502 17.8575 54.2131 17.9325 54.3309C17.8635 54.3189 17.7945 54.2521 17.7166 54.1362Z" fill="#EE4B4A"/>
<path d="M53.9358 60.4864C53.9544 60.4216 54.023 60.351 54.1455 60.2803C54.1282 60.3469 54.0571 60.4137 53.9358 60.4864Z" fill="#EE4B4A"/>
<path d="M60.3218 54.371C60.3148 54.2936 60.3544 54.1982 60.4491 54.0986C60.459 54.1806 60.4137 54.2668 60.3218 54.371Z" fill="#EE4B4A"/>
<path d="M24.3389 60.521C24.417 60.509 24.5174 60.5413 24.6222 60.6306C24.5382 60.6469 24.4497 60.6061 24.3389 60.521Z" fill="#EE4B4A"/>
<path d="M53.6169 60.7025C53.6351 60.634 53.7042 60.5526 53.8339 60.478C53.819 60.553 53.7435 60.6213 53.6169 60.7025Z" fill="#EE4B4A"/>
<path d="M53.1262 61.0171C53.1441 60.9499 53.2127 60.8735 53.3404 60.8003C53.3253 60.8716 53.2512 60.9397 53.1262 61.0171Z" fill="#EE4B4A"/>
<path d="M16.7004 52.6265C16.7645 52.6482 16.8393 52.7207 16.9089 52.8524C16.8396 52.8335 16.7753 52.7553 16.7004 52.6265Z" fill="#EE4B4A"/>
<path d="M52.5569 15.6748C52.4764 15.6854 52.3687 15.6544 52.2632 15.5627C52.3535 15.5457 52.4416 15.5894 52.5569 15.6748Z" fill="#EE4B4A"/>
<path d="M24.2576 16.5547C24.2404 16.6203 24.1731 16.6923 24.0513 16.7626C24.067 16.6943 24.1373 16.6277 24.2576 16.5547Z" fill="#EE4B4A"/>
<path d="M56.3757 18.4094C56.3014 18.4127 56.2089 18.3712 56.1145 18.2755C56.1942 18.269 56.2758 18.3168 56.3757 18.4094Z" fill="#EE4B4A"/>
<path d="M21.8611 18.3945C21.8539 18.4597 21.8014 18.5384 21.6941 18.6182C21.6981 18.5489 21.7569 18.4785 21.8611 18.3945Z" fill="#EE4B4A"/>
<path d="M19.237 20.9907C19.238 21.0673 19.1945 21.1588 19.0964 21.2438C19.0921 21.16 19.1424 21.0829 19.237 20.9907Z" fill="#EE4B4A"/>
<path d="M18.3911 22.0049C18.3965 22.0809 18.3559 22.1747 18.2605 22.271C18.2521 22.1898 18.2986 22.1063 18.3911 22.0049Z" fill="#EE4B4A"/>
<path d="M17.881 22.6748C17.8879 22.7526 17.8484 22.8473 17.7538 22.9443C17.7439 22.8616 17.7893 22.7767 17.881 22.6748Z" fill="#EE4B4A"/>
<path d="M60.5002 22.883C60.435 22.8707 60.3565 22.811 60.2791 22.6938C60.349 22.7028 60.418 22.7692 60.5002 22.883Z" fill="#EE4B4A"/>
<path d="M60.9894 23.5895C60.9253 23.5716 60.8521 23.5043 60.7805 23.3818C60.8482 23.3978 60.9142 23.469 60.9894 23.5895Z" fill="#EE4B4A"/>
<path d="M61.5149 24.3995C61.451 24.3797 61.3747 24.3109 61.3059 24.1816C61.3765 24.1976 61.4395 24.2741 61.5149 24.3995Z" fill="#EE4B4A"/>
<path d="M62.3387 25.7913C62.2737 25.7687 62.2054 25.6951 62.1448 25.5659C62.2134 25.587 62.2745 25.6637 62.3387 25.7913Z" fill="#EE4B4A"/>
<path d="M61.3487 52.8869C61.3371 52.808 61.3694 52.7009 61.461 52.5864C61.4778 52.6722 61.4351 52.7655 61.3487 52.8869Z" fill="#EE4B4A"/>
<path d="M62.8544 26.7869C62.7897 26.7597 62.7189 26.679 62.6572 26.5381C62.727 26.563 62.7877 26.6482 62.8544 26.7869Z" fill="#EE4B4A"/>
<path d="M14.833 49.0938C14.8984 49.1237 14.9717 49.2083 15.0317 49.3572C14.9593 49.3305 14.9001 49.2394 14.833 49.0938Z" fill="#EE4B4A"/>
<path d="M16.1924 51.7788C16.2574 51.7993 16.3294 51.8689 16.3909 51.9954C16.32 51.9775 16.2597 51.9027 16.1924 51.7788Z" fill="#EE4B4A"/>
<path d="M64.0741 47.3487C64.0454 47.2681 64.0614 47.1466 64.1317 46.9912C64.1635 47.0742 64.1412 47.191 64.0741 47.3487Z" fill="#EE4B4A"/>
<path d="M27.4583 14.6885C27.4347 14.7549 27.3608 14.823 27.2312 14.8772C27.253 14.8055 27.3305 14.7479 27.4583 14.6885Z" fill="#EE4B4A"/>
<path d="M61.8621 52.0565C61.8482 51.9757 61.8781 51.8647 61.969 51.7461C61.9887 51.8344 61.9473 51.9303 61.8621 52.0565Z" fill="#EE4B4A"/>
<path d="M51.0056 14.8172C50.9292 14.8385 50.8265 14.8171 50.7107 14.7405C50.7915 14.7149 50.8853 14.7447 51.0056 14.8172Z" fill="#EE4B4A"/>
<path d="M57.451 19.3919C57.4094 19.4104 57.3494 19.3835 57.2769 19.3064C57.3204 19.2863 57.3765 19.3163 57.451 19.3919Z" fill="#EE4B4A"/>
<path d="M23.3413 59.8188C23.3756 59.801 23.4254 59.8242 23.4942 59.8856C23.461 59.9025 23.409 59.8811 23.3413 59.8188Z" fill="#EE4B4A"/>
<path d="M54.7395 59.9231C54.7302 59.8838 54.7652 59.8401 54.8424 59.7886C54.851 59.8267 54.8174 59.8727 54.7395 59.9231Z" fill="#EE4B4A"/>
<path d="M55.295 59.4836C55.2859 59.4386 55.3166 59.3876 55.3946 59.3501C55.4247 59.419 55.389 59.457 55.295 59.4836Z" fill="#EE4B4A"/>
<path d="M62.0661 51.71C62.0388 51.6761 62.0477 51.6177 62.0996 51.5391C62.1291 51.5744 62.1157 51.6299 62.0661 51.71Z" fill="#EE4B4A"/>
<path d="M58.2903 20.2362C58.2487 20.2529 58.1895 20.2251 58.1221 20.1464C58.1667 20.1275 58.2197 20.1597 58.2903 20.2362Z" fill="#EE4B4A"/>
<path d="M24.1416 60.3843C24.1811 60.3589 24.2396 60.3741 24.3119 60.4361C24.2706 60.4636 24.2157 60.4443 24.1416 60.3843Z" fill="#EE4B4A"/>
<path d="M20.0579 20.1035C20.072 20.1448 20.0396 20.2051 19.9544 20.2764C19.9382 20.2324 19.9748 20.1775 20.0579 20.1035Z" fill="#EE4B4A"/>
<path d="M58.1099 20.0592C58.0675 20.0751 58.0138 20.0483 57.9565 19.9736C58.0015 19.956 58.05 19.9863 58.1099 20.0592Z" fill="#EE4B4A"/>
<path d="M57.943 19.8837C57.9006 19.9012 57.8464 19.876 57.7874 19.8032C57.8321 19.784 57.8816 19.8125 57.943 19.8837Z" fill="#EE4B4A"/>
<path d="M24.6489 60.723C24.6855 60.6979 24.7441 60.7112 24.8195 60.7697C24.7812 60.7971 24.726 60.7793 24.6489 60.723Z" fill="#EE4B4A"/>
<path d="M20.3796 19.7715C20.3962 19.8144 20.367 19.8716 20.2878 19.9382C20.2699 19.8936 20.3018 19.8397 20.3796 19.7715Z" fill="#EE4B4A"/>
<path d="M57.7706 19.7155C57.7282 19.7308 57.6702 19.7007 57.6052 19.6191C57.6505 19.6018 57.7028 19.636 57.7706 19.7155Z" fill="#EE4B4A"/>
<path d="M20.5655 19.5962C20.5801 19.6379 20.5504 19.6946 20.4702 19.7569C20.4536 19.7121 20.4874 19.6616 20.5655 19.5962Z" fill="#EE4B4A"/>
<path d="M55.9136 18.0322C55.8732 18.0511 55.818 18.0277 55.7537 17.9574C55.796 17.937 55.8474 17.9634 55.9136 18.0322Z" fill="#EE4B4A"/>
<path d="M20.8972 19.2739C20.9113 19.3161 20.8792 19.3715 20.7975 19.435C20.7822 19.3911 20.8167 19.3392 20.8972 19.2739Z" fill="#EE4B4A"/>
<path d="M57.2589 19.2191C57.2174 19.2345 57.1613 19.2048 57.0959 19.1259C57.1392 19.1091 57.1917 19.1415 57.2589 19.2191Z" fill="#EE4B4A"/>
<path d="M26.3394 61.7409C26.3763 61.7129 26.4375 61.7254 26.5202 61.7831C26.4823 61.8127 26.4229 61.797 26.3394 61.7409Z" fill="#EE4B4A"/>
<path d="M21.0729 19.1074C21.0878 19.1495 21.0581 19.2018 20.9815 19.2612C20.9658 19.218 20.997 19.1679 21.0729 19.1074Z" fill="#EE4B4A"/>
<path d="M56.5594 18.5714C56.5226 18.5878 56.4713 18.5612 56.4048 18.4924C56.4414 18.4763 56.4932 18.5024 56.5594 18.5714Z" fill="#EE4B4A"/>
<path d="M22.4233 17.9272C22.4382 17.9698 22.4084 18.0223 22.3316 18.0812C22.3159 18.0375 22.3472 17.9873 22.4233 17.9272Z" fill="#EE4B4A"/>
<path d="M22.0531 18.2383C22.0673 18.2831 22.0425 18.336 21.9698 18.3796C21.9314 18.3131 21.9621 18.2718 22.0531 18.2383Z" fill="#EE4B4A"/>
<path d="M56.0911 18.1786C56.0519 18.1998 55.9957 18.1824 55.9319 18.1178C55.9742 18.0937 56.0241 18.1168 56.0911 18.1786Z" fill="#EE4B4A"/>
<path d="M22.2497 18.0874C22.2601 18.13 22.2275 18.1803 22.147 18.228C22.135 18.182 22.1708 18.1386 22.2497 18.0874Z" fill="#EE4B4A"/>
<path d="M21.6025 58.4005C21.642 58.3786 21.6957 58.3881 21.7426 58.4451C21.6868 58.4907 21.6471 58.4704 21.6025 58.4005Z" fill="#EE4B4A"/>
<path d="M18.6069 55.2725C18.6472 55.2615 18.6961 55.2958 18.7517 55.3762C18.7107 55.3874 18.6631 55.3526 18.6069 55.2725Z" fill="#EE4B4A"/>
<path d="M18.7566 55.4555C18.7997 55.4424 18.8518 55.4745 18.9071 55.5548C18.8621 55.5689 18.8138 55.5347 18.7566 55.4555Z" fill="#EE4B4A"/>
<path d="M18.9099 55.6393C18.9551 55.6259 19.0082 55.6562 19.0582 55.7357C19.0094 55.751 18.9636 55.7169 18.9099 55.6393Z" fill="#EE4B4A"/>
<path d="M59.2044 55.7709C59.1814 55.7303 59.1968 55.6724 59.2612 55.6094C59.2877 55.654 59.2653 55.7038 59.2044 55.7709Z" fill="#EE4B4A"/>
<path d="M60.652 23.1061C60.6081 23.1148 60.5558 23.0809 60.5122 22.9975C60.5618 22.9864 60.6028 23.0249 60.652 23.1061Z" fill="#EE4B4A"/>
<path d="M17.6589 22.9727C17.6819 23.0113 17.6656 23.0707 17.6012 23.1426C17.5753 23.1012 17.5974 23.0473 17.6589 22.9727Z" fill="#EE4B4A"/>
<path d="M19.6096 56.4523C19.6497 56.4375 19.7021 56.469 19.7679 56.5458C19.7282 56.5603 19.6751 56.5294 19.6096 56.4523Z" fill="#EE4B4A"/>
<path d="M58.1422 56.9433C58.1254 56.9039 58.1529 56.8451 58.2296 56.7729C58.2479 56.8144 58.2172 56.8691 58.1422 56.9433Z" fill="#EE4B4A"/>
<path d="M20.2671 57.1382C20.3073 57.1217 20.3641 57.1512 20.4345 57.2288C20.3932 57.2459 20.3384 57.215 20.2671 57.1382Z" fill="#EE4B4A"/>
<path d="M57.8137 57.2714C57.7991 57.2287 57.8317 57.1726 57.9141 57.1064C57.9296 57.1503 57.8952 57.2042 57.8137 57.2714Z" fill="#EE4B4A"/>
<path d="M20.4495 57.3105C20.4902 57.2972 20.5449 57.3298 20.6091 57.4112C20.5669 57.4255 20.5152 57.3909 20.4495 57.3105Z" fill="#EE4B4A"/>
<path d="M57.6374 57.45C57.6218 57.4098 57.6506 57.3521 57.7291 57.2837C57.7465 57.3262 57.7142 57.3793 57.6374 57.45Z" fill="#EE4B4A"/>
<path d="M16.0723 51.5604C16.1141 51.5561 16.1587 51.5969 16.1979 51.6847C16.1533 51.6897 16.1141 51.6475 16.0723 51.5604Z" fill="#EE4B4A"/>
<path d="M18.9881 21.2783C19.0109 21.3176 18.9989 21.3733 18.9388 21.43C18.8897 21.3754 18.9105 21.33 18.9881 21.2783Z" fill="#EE4B4A"/>
<path d="M56.5164 58.482C56.501 58.4396 56.5161 58.3877 56.5755 58.3535C56.6101 58.4156 56.5858 58.4493 56.5164 58.482Z" fill="#EE4B4A"/>
<path d="M21.7693 58.5454C21.8111 58.5228 21.8688 58.5384 21.9278 58.6038C21.8691 58.6547 21.8211 58.6313 21.7693 58.5454Z" fill="#EE4B4A"/>
<path d="M56.3261 58.6475C56.3117 58.6023 56.335 58.5479 56.4065 58.5059C56.4432 58.5725 56.4129 58.6126 56.3261 58.6475Z" fill="#EE4B4A"/>
<path d="M21.9463 58.6936C21.9878 58.6711 22.046 58.69 22.1129 58.7574C22.0687 58.7823 22.0158 58.7586 21.9463 58.6936Z" fill="#EE4B4A"/>
<path d="M56.1383 58.8039C56.1246 58.759 56.1534 58.7052 56.2318 58.6558C56.2479 58.7051 56.2144 58.7501 56.1383 58.8039Z" fill="#EE4B4A"/>
<path d="M22.1274 58.8397C22.1676 58.82 22.2232 58.8437 22.2926 58.9131C22.2519 58.9335 22.1974 58.9084 22.1274 58.8397Z" fill="#EE4B4A"/>
<path d="M55.952 58.9565C55.9397 58.914 55.9722 58.8622 56.0529 58.8081C56.0664 58.8529 56.0315 58.9001 55.952 58.9565Z" fill="#EE4B4A"/>
<path d="M59.4669 21.5703C59.4223 21.5846 59.3692 21.5571 59.3203 21.4813C59.3692 21.4648 59.4138 21.4967 59.4669 21.5703Z" fill="#EE4B4A"/>
<path d="M55.7775 59.1187C55.7628 59.076 55.7936 59.0239 55.8713 58.9639C55.8865 59.0071 55.8548 59.0582 55.7775 59.1187Z" fill="#EE4B4A"/>
<path d="M18.8462 21.4526C18.8681 21.4931 18.8497 21.55 18.7836 21.615C18.7593 21.5718 18.7826 21.5204 18.8462 21.4526Z" fill="#EE4B4A"/>
<path d="M22.7842 59.3873C22.8232 59.3637 22.8814 59.3775 22.9474 59.44C22.9046 59.4673 22.854 59.4461 22.7842 59.3873Z" fill="#EE4B4A"/>
<path d="M59.3091 21.3851C59.2649 21.3979 59.2136 21.3747 59.1763 21.3061C59.2415 21.2725 59.2787 21.302 59.3091 21.3851Z" fill="#EE4B4A"/>
<path d="M33.6178 50.0133C31.5696 49.6192 29.5492 49.1644 27.8434 47.8434C26.5054 46.8074 25.6823 45.4413 25.1036 43.8805C24.9825 43.554 24.6938 43.1899 24.3877 43.0497C23.2809 42.5424 22.621 41.6853 22.5303 40.5293C22.4235 39.1677 22.4229 37.7824 22.5464 36.4228C22.6478 35.3057 23.2959 34.4547 24.3881 33.9902C24.6414 33.8825 24.9404 33.639 25.0167 33.395C26.2987 29.2906 29.4554 27.6847 33.3693 27.0879C34.2807 26.9489 35.1722 26.8806 35.9783 26.295C36.4246 25.9708 37.0751 25.8753 37.65 25.7961C38.1722 25.7241 38.3428 25.5131 38.4068 25.0064C38.5027 24.247 38.6522 23.6288 37.8044 23.0622C36.9282 22.4766 37.0384 21.1202 37.8246 20.387C38.6098 19.6548 39.8242 19.7228 40.5306 20.5385C41.2333 21.3498 41.125 22.5421 40.2851 23.2406C39.7505 23.6851 39.5231 24.993 39.9316 25.5268C40.0419 25.671 40.3213 25.6837 40.5209 25.7623C41.3189 26.0765 42.1053 26.4247 42.9173 26.697C43.44 26.8724 43.9955 26.9663 44.5437 27.0467C46.6213 27.3517 48.6128 27.872 50.3321 29.1619C51.6869 30.1783 52.5057 31.5502 53.0996 33.1042C53.2327 33.4526 53.5356 33.8373 53.8617 33.9923C54.8978 34.485 55.5555 35.2858 55.6575 36.372C55.7852 37.7311 55.7919 39.1158 55.6912 40.4777C55.6033 41.6667 54.9446 42.5557 53.7929 43.0588C53.5092 43.1827 53.2356 43.5305 53.1322 43.8348C52.2523 46.4257 50.5408 48.1869 47.9909 49.1593C44.1882 50.6094 40.3915 52.075 36.586 53.5176C36.3496 53.6072 36.0589 53.5537 35.7321 53.5003C35.6544 53.4103 35.6381 53.3866 35.6219 53.3629C35.623 53.2888 35.6241 53.2147 35.6287 53.0088C35.6345 52.4107 35.675 51.9403 35.6275 51.479C35.5861 51.0763 35.4454 50.6839 35.3485 50.2869C35.3485 50.2869 35.3485 50.2988 35.3018 50.2443C34.7093 50.131 34.1636 50.0721 33.6178 50.0133ZM27.9314 37.8075C27.9716 38.8169 27.9632 39.8311 28.0608 40.835C28.3772 44.0915 29.8264 45.6643 33.0428 46.2847C35.9869 46.8526 38.9663 46.9436 41.9355 46.6665C43.6525 46.5063 45.37 46.1482 47.034 45.6871C48.3719 45.3163 49.2338 44.2844 49.6724 42.9416C50.4686 40.5037 50.4538 38.016 50.04 35.529C49.5672 32.687 48.2444 31.3547 45.4142 30.8011C44.2875 30.5808 43.1413 30.4096 41.9965 30.3423C38.9074 30.1606 35.8196 30.166 32.7679 30.795C29.9712 31.3714 28.6546 32.7262 28.1627 35.5591C28.043 36.2486 28.0085 36.953 27.9314 37.8075Z" fill="#FAFDFF"/>
<path d="M35.336 50.3682C35.4456 50.684 35.5863 51.0765 35.6278 51.4792C35.6753 51.9404 35.6347 52.4108 35.616 52.9548C35.504 52.8053 35.339 52.5821 35.3261 52.3505C35.2908 51.7187 35.3197 51.0833 35.336 50.3682Z" fill="#EE4B4A"/>
<path d="M33.6355 50.0775C34.1637 50.0723 34.7094 50.1311 35.2977 50.2402C34.7778 50.2408 34.2154 50.1912 33.6355 50.0775Z" fill="#EE4B4A"/>
<path d="M35.5977 53.3853C35.6383 53.3869 35.6545 53.4106 35.6784 53.4766C35.6484 53.4818 35.6109 53.4445 35.5977 53.3853Z" fill="#EE4B4A"/>
<path d="M27.9331 37.7293C28.0085 36.9533 28.0429 36.2489 28.1627 35.5594C28.6546 32.7265 29.9711 31.3717 32.7679 30.7953C35.8196 30.1663 38.9074 30.1609 41.9964 30.3426C43.1412 30.4099 44.2875 30.5811 45.4142 30.8015C48.2444 31.355 49.5672 32.6873 50.04 35.5293C50.4537 38.0163 50.4686 40.504 49.6723 42.9419C49.2337 44.2847 48.3719 45.3166 47.034 45.6874C45.3699 46.1485 43.6525 46.5066 41.9355 46.6668C38.9662 46.9439 35.9869 46.8529 33.0427 46.285C29.8264 45.6646 28.3772 44.0918 28.0607 40.8353C27.9632 39.8314 27.9715 38.8172 27.9331 37.7293ZM32.7812 38.9018C32.8032 39.0969 32.8052 39.2968 32.8507 39.4863C33.0242 40.2094 33.3979 40.7183 34.2286 40.6983C35.0101 40.6794 35.4411 40.2119 35.509 39.5002C35.5771 38.7859 35.5651 38.047 35.4593 37.3382C35.3625 36.6903 34.8931 36.3375 34.1975 36.336C33.5007 36.3345 33.0727 36.6918 32.9242 37.3348C32.8184 37.7935 32.8236 38.2777 32.7812 38.9018ZM42.5906 38.8895C42.6289 39.1104 42.658 39.3334 42.707 39.552C42.8663 40.2628 43.2587 40.7047 44.0405 40.6997C44.7843 40.6949 45.245 40.2658 45.31 39.5953C45.3869 38.8009 45.3631 37.975 45.2294 37.1888C45.1246 36.5728 44.5579 36.2 43.9562 36.3727C43.5111 36.5005 43.0222 36.8669 42.7986 37.265C42.5712 37.6699 42.6449 38.2438 42.5906 38.8895Z" fill="#EE4B4A"/>
<path d="M32.7803 38.8261C32.8236 38.2777 32.8184 37.7934 32.9243 37.3348C33.0727 36.6918 33.5008 36.3344 34.1975 36.3359C34.8931 36.3374 35.3625 36.6902 35.4593 37.3381C35.5651 38.047 35.5771 38.7859 35.509 39.5002C35.4411 40.2119 35.0101 40.6794 34.2287 40.6983C33.398 40.7183 33.0242 40.2094 32.8507 39.4862C32.8052 39.2968 32.8032 39.0969 32.7803 38.8261Z" fill="#F4FAFE"/>
<path d="M42.5886 38.8162C42.6448 38.2435 42.5711 37.6696 42.7985 37.2647C43.0221 36.8666 43.5111 36.5001 43.9561 36.3724C44.5578 36.1996 45.1245 36.5725 45.2293 37.1885C45.363 37.9746 45.3868 38.8006 45.3099 39.595C45.2449 40.2655 44.7842 40.6945 44.0404 40.6994C43.2586 40.7044 42.8662 40.2624 42.7069 39.5517C42.6579 39.3331 42.6288 39.1101 42.5886 38.8162Z" fill="#F4FAFE"/>
</g>
<path d="M22.1104 0.737305H54.5293C66.3314 0.737315 75.8984 10.3044 75.8984 22.1064V54.5293C75.8984 66.3314 66.3314 75.8984 54.5293 75.8984H0.737305V22.1104C0.737305 10.3063 10.3063 0.737305 22.1104 0.737305Z" stroke="url(#paint1_linear_31_2030)" stroke-width="1.47376"/>
<defs>
<linearGradient id="paint0_linear_31_2030" x1="19.1357" y1="57.5" x2="56.6357" y2="19" gradientUnits="userSpaceOnUse">
<stop stop-color="#EE4B4A"/>
<stop offset="1" stop-color="#882B2A"/>
</linearGradient>
<linearGradient id="paint1_linear_31_2030" x1="14.0008" y1="70.0038" x2="61.8981" y2="7.36882" gradientUnits="userSpaceOnUse">
<stop stop-color="#EE4B4A"/>
<stop offset="1" stop-color="#FBD8D8"/>
</linearGradient>
</defs>
</svg>
