<svg width="24" height="25" viewBox="0 0 24 25" fill="none" xmlns="http://www.w3.org/2000/svg">
<path d="M20.25 5.38086H16.5V4.63086C16.5 4.03412 16.2629 3.46183 15.841 3.03987C15.419 2.61791 14.8467 2.38086 14.25 2.38086H9.75C9.15326 2.38086 8.58097 2.61791 8.15901 3.03987C7.73705 3.46183 7.5 4.03412 7.5 4.63086V5.38086H3.75C3.55109 5.38086 3.36032 5.45988 3.21967 5.60053C3.07902 5.74118 3 5.93195 3 6.13086C3 6.32977 3.07902 6.52054 3.21967 6.66119C3.36032 6.80184 3.55109 6.88086 3.75 6.88086H4.5V20.3809C4.5 20.7787 4.65804 21.1602 4.93934 21.4415C5.22064 21.7228 5.60218 21.8809 6 21.8809H18C18.3978 21.8809 18.7794 21.7228 19.0607 21.4415C19.342 21.1602 19.5 20.7787 19.5 20.3809V6.88086H20.25C20.4489 6.88086 20.6397 6.80184 20.7803 6.66119C20.921 6.52054 21 6.32977 21 6.13086C21 5.93195 20.921 5.74118 20.7803 5.60053C20.6397 5.45988 20.4489 5.38086 20.25 5.38086ZM10.5 16.6309C10.5 16.8298 10.421 17.0205 10.2803 17.1612C10.1397 17.3018 9.94891 17.3809 9.75 17.3809C9.55109 17.3809 9.36032 17.3018 9.21967 17.1612C9.07902 17.0205 9 16.8298 9 16.6309V10.6309C9 10.4319 9.07902 10.2412 9.21967 10.1005C9.36032 9.95988 9.55109 9.88086 9.75 9.88086C9.94891 9.88086 10.1397 9.95988 10.2803 10.1005C10.421 10.2412 10.5 10.4319 10.5 10.6309V16.6309ZM15 16.6309C15 16.8298 14.921 17.0205 14.7803 17.1612C14.6397 17.3018 14.4489 17.3809 14.25 17.3809C14.0511 17.3809 13.8603 17.3018 13.7197 17.1612C13.579 17.0205 13.5 16.8298 13.5 16.6309V10.6309C13.5 10.4319 13.579 10.2412 13.7197 10.1005C13.8603 9.95988 14.0511 9.88086 14.25 9.88086C14.4489 9.88086 14.6397 9.95988 14.7803 10.1005C14.921 10.2412 15 10.4319 15 10.6309V16.6309ZM15 5.38086H9V4.63086C9 4.43195 9.07902 4.24118 9.21967 4.10053C9.36032 3.95988 9.55109 3.88086 9.75 3.88086H14.25C14.4489 3.88086 14.6397 3.95988 14.7803 4.10053C14.921 4.24118 15 4.43195 15 4.63086V5.38086Z" fill="#EE4B4A"/>
</svg>
