<svg width="24" height="25" viewBox="0 0 24 25" fill="none" xmlns="http://www.w3.org/2000/svg">
<path d="M19.3801 8.7692L15.8617 5.24999C15.7447 5.13296 15.6058 5.04013 15.4529 4.9768C15.3 4.91346 15.1361 4.88086 14.9706 4.88086C14.8052 4.88086 14.6413 4.91346 14.4884 4.9768C14.3355 5.04013 14.1966 5.13296 14.0796 5.24999L4.36933 14.9611C4.25182 15.0776 4.15866 15.2164 4.09526 15.3693C4.03186 15.5222 3.99948 15.6862 4.00001 15.8517V19.3709C4.00001 19.7051 4.13275 20.0255 4.36904 20.2618C4.60532 20.4981 4.9258 20.6309 5.25996 20.6309H8.77916C8.94468 20.6314 9.10865 20.599 9.26155 20.5356C9.41445 20.4722 9.55322 20.379 9.66979 20.2615L19.3801 10.5512C19.4971 10.4342 19.5899 10.2953 19.6533 10.1424C19.7166 9.98956 19.7492 9.8257 19.7492 9.66022C19.7492 9.49473 19.7166 9.33087 19.6533 9.17799C19.5899 9.0251 19.4971 8.8862 19.3801 8.7692ZM16.5995 11.5498L13.0803 8.03134L14.9702 6.14141L18.4895 9.65982L16.5995 11.5498Z" fill="#0096FF"/>
</svg>
