<svg width="24" height="25" viewBox="0 0 24 25" fill="none" xmlns="http://www.w3.org/2000/svg">
<path d="M20.4497 12.5971C20.4242 12.5395 19.8066 11.1694 18.4335 9.79636C16.6041 7.96688 14.2933 7 11.75 7C9.20666 7 6.89593 7.96688 5.06645 9.79636C3.69343 11.1694 3.07291 12.5417 3.05031 12.5971C3.01714 12.6717 3 12.7524 3 12.8341C3 12.9157 3.01714 12.9964 3.05031 13.071C3.07583 13.1287 3.69343 14.498 5.06645 15.871C6.89593 17.6998 9.20666 18.6667 11.75 18.6667C14.2933 18.6667 16.6041 17.6998 18.4335 15.871C19.8066 14.498 20.4242 13.1287 20.4497 13.071C20.4829 12.9964 20.5 12.9157 20.5 12.8341C20.5 12.7524 20.4829 12.6717 20.4497 12.5971ZM11.75 15.75C11.1731 15.75 10.6092 15.5789 10.1296 15.2585C9.64994 14.938 9.2761 14.4825 9.05535 13.9495C8.83459 13.4165 8.77683 12.8301 8.88937 12.2643C9.00191 11.6985 9.2797 11.1788 9.6876 10.7709C10.0955 10.363 10.6152 10.0853 11.181 9.97271C11.7468 9.86017 12.3332 9.91793 12.8662 10.1387C13.3991 10.3594 13.8546 10.7333 14.1751 11.2129C14.4956 11.6926 14.6667 12.2565 14.6667 12.8333C14.6667 13.6069 14.3594 14.3488 13.8124 14.8957C13.2654 15.4427 12.5235 15.75 11.75 15.75Z" fill="#ff4d4d"/>
</svg>
