<svg width="16" height="16" viewBox="0 0 16 16" fill="none" xmlns="http://www.w3.org/2000/svg">
<path fill-rule="evenodd" clip-rule="evenodd" d="M3.26465 4.37999C3.09488 4.19981 3 3.96341 3 3.71849V2.7935C3 2.58321 3.08565 2.38095 3.23798 2.23238C3.38979 2.08331 3.59599 2 3.8114 2H13.1886C13.404 2 13.6102 2.08332 13.762 2.23238C13.9144 2.38145 14 2.58321 14 2.7935V3.71849C14 3.96341 13.9051 4.19981 13.7354 4.37999L10.1216 8.20847C10.0241 8.31135 9.97027 8.44637 9.97027 8.58689V12.1734C9.97027 12.4148 9.85846 12.6427 9.66562 12.7933L8.34697 13.8262C8.10385 14.0164 7.76997 14.054 7.48838 13.9215C7.20732 13.789 7.02883 13.511 7.02883 13.2058V8.58692C7.02883 8.44638 6.97447 8.31088 6.87753 8.20849L3.26376 4.38001L3.26465 4.37999Z" fill="#0F3659"/>
</svg>
