<svg width="20" height="20" viewBox="0 0 20 20" fill="none" xmlns="http://www.w3.org/2000/svg">
<path fill-rule="evenodd" clip-rule="evenodd" d="M20.0002 10.0001C20.0002 15.523 15.523 20.0002 10.0001 20.0002C4.47721 20.0002 0 15.523 0 10.0001C0 4.4772 4.47721 0 10.0001 0C15.523 0 20.0002 4.4772 20.0002 10.0001ZM10.0001 18.3385C14.6053 18.3385 18.3385 14.6053 18.3385 10.0001C18.3385 5.39493 14.6053 1.66169 10.0001 1.66169C5.39494 1.66169 1.6617 5.39493 1.6617 10.0001C1.6617 14.6053 5.39494 18.3385 10.0001 18.3385Z" fill="#11BB2E"/>
<path d="M6.5 10.1245L8.75148 12.2362C8.83308 12.3128 8.96159 12.3075 9.03664 12.2245L13.4001 7.3999" stroke="#11BB2E" stroke-width="2" stroke-linecap="round"/>
</svg>
