<svg width="40" height="40" viewBox="0 0 40 40" fill="none" xmlns="http://www.w3.org/2000/svg">
<circle cx="20" cy="20" r="20" fill="#61A5C2"/>
<path d="M20.1221 10C14.5977 10 10.1221 14.4765 10.1221 20.0018C10.1221 23.9391 12.3968 27.3407 15.7018 28.9732C17.0349 29.6307 18.5342 30 20.1221 30C21.71 30 23.2092 29.6307 24.5423 28.9732C27.8473 27.3407 30.1221 23.9391 30.1221 20.0018C30.1221 14.4765 25.6464 10 20.1221 10ZM20.1221 13.5494C22.2417 13.5494 23.9625 15.2705 23.9625 17.3906C23.9625 19.5106 22.2417 21.2318 20.1221 21.2318C18.0024 21.2318 16.2816 19.5143 16.2816 17.3906C16.2816 15.2705 18.0024 13.5494 20.1221 13.5494ZM24.5423 27.6251C23.2129 28.397 21.6989 28.8107 20.1221 28.8107C18.5453 28.8107 17.0312 28.397 15.7018 27.6251V23.5993C15.7018 22.9234 16.2557 22.3693 16.9315 22.3693H23.3163C23.9921 22.3693 24.546 22.9234 24.546 23.5993V27.6251H24.5423Z" fill="white"/>
</svg>
