<svg width="41" height="40" viewBox="0 0 41 40" fill="none" xmlns="http://www.w3.org/2000/svg">
<circle cx="20.6992" cy="20" r="20" fill="#FA5A7D"/>
<path fill-rule="evenodd" clip-rule="evenodd" d="M25.5525 11.1705C24.8768 11.1091 24.2319 10.9551 23.7714 10.7086C22.8496 10.0438 21.7812 10.0011 20.7044 10.0011L13.0972 10.0011C12.2267 10.3809 11.917 11.2756 12.1682 12.6852C11.1387 13.5976 10.8885 14.5349 11.4166 15.4963C10.6209 16.3275 10.5799 17.2763 11.2915 18.3446C10.7747 18.9334 10.5799 19.7449 10.7727 20.5106C11.0516 21.6144 11.796 22.1543 12.8644 22.1543L16.5126 22.1533C18.6731 22.1533 17.2591 24.7718 16.8643 25.7466C15.3068 29.6022 18.5234 31.2531 19.2658 28.9372C19.7087 27.2393 20.3547 25.9732 21.2037 25.1348C21.9184 24.4284 22.3091 24.2557 22.7151 23.1821C23.2473 21.7808 24.1425 20.6822 25.5514 20.1484L25.5525 11.1705ZM31.6997 20.5928L26.1216 20.5928L26.1216 10.8448C26.1216 10.3797 26.4959 10 26.9542 10L31.6997 10.001L31.6997 20.5928Z" fill="white"/>
</svg>
