<svg width="41" height="40" viewBox="0 0 41 40" fill="none" xmlns="http://www.w3.org/2000/svg">
<circle cx="20.6992" cy="20" r="20" fill="#BF83FF"/>
<path fill-rule="evenodd" clip-rule="evenodd" d="M28.0292 24.3528C28.0906 23.6771 28.2446 23.0321 28.4911 22.5717C29.1559 21.6499 29.1986 20.5815 29.1986 19.5047L29.1986 11.8975C28.8188 11.027 27.9241 10.7173 26.5145 10.9685C25.6021 9.93901 24.6648 9.68882 23.7034 10.2169C22.8722 9.42121 21.9234 9.38018 20.8551 10.0918C20.2663 9.57499 19.4548 9.38019 18.6891 9.57294C17.5853 9.85185 17.0454 10.5963 17.0454 11.6647L17.0464 15.3129C17.0464 17.4734 14.4279 16.0594 13.4531 15.6646C9.59753 14.1071 7.94657 17.3237 10.2625 18.0661C11.9604 18.509 13.2265 19.155 14.0649 20.004C14.7713 20.7187 14.944 21.1094 16.0176 21.5154C17.4189 22.0476 18.5175 22.9428 19.0513 24.3517L28.0292 24.3528ZM18.6069 30.5L18.6069 24.9219L28.3549 24.9219C28.82 24.9219 29.1997 25.2962 29.1997 25.7545L29.1987 30.5L18.6069 30.5Z" fill="white"/>
</svg>
