<svg width="41" height="40" viewBox="0 0 41 40" fill="none" xmlns="http://www.w3.org/2000/svg">
<circle cx="20.7002" cy="20" r="20" fill="#3CD856"/>
<path fill-rule="evenodd" clip-rule="evenodd" d="M16.8469 28.8295C17.5226 28.8909 18.1676 29.0449 18.628 29.2914C19.5498 29.9562 20.6182 29.9989 21.695 29.9989H29.3022C30.1727 29.6191 30.4824 28.7244 30.2312 27.3148C31.2607 26.4024 31.5109 25.4651 30.9828 24.5037C31.7785 23.6725 31.8195 22.7237 31.1079 21.6554C31.6247 21.0666 31.8195 20.2551 31.6268 19.4894C31.3479 18.3856 30.6034 17.8457 29.535 17.8457L25.8868 17.8467C23.7263 17.8467 25.1403 15.2282 25.5351 14.2534C27.0926 10.3978 23.876 8.74686 23.1336 11.0628C22.6907 12.7607 22.0447 14.0268 21.1957 14.8652C20.481 15.5716 20.0903 15.7443 19.6843 16.8179C19.1521 18.2192 18.2569 19.3178 16.848 19.8516L16.8469 28.8295ZM10.6997 19.4072H16.2778V29.1552C16.2778 29.6203 15.9035 30 15.4452 30L10.6997 29.999L10.6997 19.4072Z" fill="white"/>
</svg>
