<svg width="41" height="40" viewBox="0 0 41 40" fill="none" xmlns="http://www.w3.org/2000/svg">
<circle cx="20.8779" cy="20" r="20" fill="#FF947A"/>
<path d="M21 10C19.0222 10 17.0888 10.5865 15.4443 11.6853C13.7998 12.7841 12.5181 14.3459 11.7612 16.1732C11.0043 18.0004 10.8063 20.0111 11.1922 21.9509C11.578 23.8907 12.5304 25.6725 13.9289 27.0711C15.3275 28.4696 17.1093 29.422 19.0491 29.8078C20.9889 30.1937 22.9996 29.9957 24.8268 29.2388C26.6541 28.4819 28.2159 27.2002 29.3147 25.5557C30.4135 23.9112 31 21.9778 31 20C31 17.3478 29.9464 14.8043 28.0711 12.9289C26.1957 11.0536 23.6522 10 21 10ZM26.137 19.3249L24.6448 20.5846C24.5099 20.6982 24.4083 20.8462 24.3506 21.0128C24.2929 21.1795 24.2813 21.3586 24.317 21.5313L24.7818 23.772C24.8205 23.9577 24.8044 24.1506 24.7354 24.3272C24.6665 24.5039 24.5477 24.6568 24.3935 24.7672C24.2393 24.8776 24.0563 24.9408 23.8669 24.9491C23.6774 24.9574 23.4896 24.9105 23.3263 24.8141L21.4892 23.7353C21.3388 23.6467 21.1673 23.5999 20.9927 23.5999C20.818 23.5999 20.6466 23.6467 20.4961 23.7353L18.6639 24.8141C18.5006 24.9105 18.3128 24.9574 18.1233 24.9491C17.9339 24.9408 17.7509 24.8776 17.5967 24.7672C17.4425 24.6568 17.3237 24.5039 17.2548 24.3272C17.1858 24.1506 17.1697 23.9577 17.2084 23.772L17.6732 21.5313C17.7089 21.3586 17.6973 21.1795 17.6396 21.0128C17.5819 20.8462 17.4803 20.6982 17.3454 20.5846L15.8777 19.3395C15.7342 19.216 15.6297 19.0535 15.5767 18.8718C15.5237 18.6901 15.5246 18.4969 15.5793 18.3156C15.6339 18.1344 15.7399 17.9729 15.8845 17.8507C16.0291 17.7285 16.206 17.6509 16.3938 17.6272L18.5318 17.3826C18.7018 17.3625 18.8636 17.2982 19.0009 17.196C19.1383 17.0938 19.2464 16.9574 19.3146 16.8004L20.1634 14.8434C20.2374 14.6724 20.3586 14.526 20.513 14.4215C20.6673 14.317 20.8483 14.2588 21.0346 14.2536C21.2209 14.2485 21.4047 14.2967 21.5646 14.3925C21.7245 14.4883 21.8536 14.6278 21.9369 14.7945L22.9569 16.8346C23.029 16.9787 23.1354 17.1027 23.2668 17.1957C23.3983 17.2887 23.5506 17.3479 23.7104 17.3679L25.6208 17.6125C25.8087 17.6362 25.9856 17.7138 26.1302 17.836C26.2748 17.9582 26.3808 18.1197 26.4354 18.3009C26.4901 18.4822 26.4909 18.6754 26.438 18.8571C26.385 19.0389 26.2804 19.2013 26.137 19.3249Z" fill="white"/>
</svg>
