<svg width="20" height="20" viewBox="0 0 20 20" fill="none" xmlns="http://www.w3.org/2000/svg">
<path fill-rule="evenodd" clip-rule="evenodd" d="M19.9999 9.99999C19.9999 15.5228 15.5228 20 9.99999 20C4.47715 20 0 15.5228 0 9.99999C0 4.47715 4.47715 0 9.99999 0C15.5228 0 19.9999 4.47715 19.9999 9.99999ZM9.99999 18.3383C14.6051 18.3383 18.3383 14.6051 18.3383 9.99999C18.3383 5.39487 14.6051 1.66167 9.99999 1.66167C5.39487 1.66167 1.66168 5.39487 1.66168 9.99999C1.66168 14.6051 5.39487 18.3383 9.99999 18.3383Z" fill="#EE4B4A"/>
<path d="M6.84857 13.2272C6.49709 12.8757 6.49709 12.3059 6.84857 11.9544L11.8787 6.92425C12.2302 6.57277 12.8 6.57277 13.1515 6.92425C13.503 7.27571 13.503 7.84557 13.1515 8.19703L8.12137 13.2272C7.76989 13.5787 7.20005 13.5787 6.84857 13.2272Z" fill="#EE4B4A"/>
<path d="M13.1515 13.2272C12.8 13.5787 12.2302 13.5787 11.8787 13.2272L6.84856 8.19703C6.4971 7.84557 6.4971 7.27571 6.84856 6.92425C7.20004 6.57277 7.76987 6.57277 8.12135 6.92425L13.1515 11.9544C13.503 12.3059 13.503 12.8757 13.1515 13.2272Z" fill="#EE4B4A"/>
</svg>
