<svg width="24" height="24" viewBox="0 0 24 24" fill="none" xmlns="http://www.w3.org/2000/svg">
<path d="M1 11.7143V18.8571C1 20.0386 1.96405 21 3.14869 21H5.29738V9.57142H3.14869C1.96405 9.57142 1 10.5329 1 11.7143ZM20.4399 9.30714C20.1752 8.94434 19.8277 8.64954 19.4262 8.44709C19.0247 8.24465 18.5807 8.14036 18.1308 8.14285H13.2131L13.8778 4.82857C13.9711 4.36422 13.9598 3.88501 13.8449 3.42551C13.73 2.96601 13.5142 2.53769 13.2131 2.17143C12.9129 1.80455 12.5344 1.50903 12.1052 1.30639C11.6761 1.10375 11.207 0.999085 10.7321 1.00001C10.0961 1.00001 9.5303 1.42572 9.36986 1.99L8.7052 3.82715C8.18606 5.25881 7.5248 6.63517 6.73127 7.93571V21H15.8947C16.5059 21.0022 17.1016 20.8084 17.594 20.4473C18.0864 20.0862 18.4493 19.5768 18.6293 18.9943L20.8668 11.8514C21.003 11.424 21.0353 10.9703 20.9611 10.5279C20.8869 10.0855 20.7082 9.6671 20.4399 9.30714Z" fill="#07CA27"/>
</svg>
