<svg width="24" height="24" viewBox="0 0 24 24" fill="none" xmlns="http://www.w3.org/2000/svg">
<path d="M14.1627 2.3975C14.2479 2.25214 14.3783 2.13698 14.535 2.06867C14.6916 2.00036 14.8665 1.98244 15.0343 2.01749L15.1713 2.04591C15.7419 2.16521 16.2807 2.39981 16.7528 2.73462C17.2249 3.06943 17.6199 3.49701 17.9125 3.98985C18.205 4.48268 18.3885 5.02984 18.4513 5.59609C18.514 6.16234 18.4545 6.73514 18.2766 7.27759L17.5906 9.36816H18.817C21.67 9.36816 23.6849 12.0956 22.7821 14.7367L21.1005 19.661C20.8678 20.3421 20.4214 20.9345 19.8246 21.3543C19.2278 21.7741 18.5107 22 17.7751 22H12.0702C10.9601 22.0002 9.88348 21.629 9.01983 20.9484C8.8666 21.2631 8.62504 21.529 8.32319 21.7152C8.02134 21.9013 7.67158 22.0001 7.31452 22H4.8876C4.38698 22 3.90686 21.8059 3.55287 21.4604C3.19887 21.115 3 20.6464 3 20.1579V11.2103C3 10.1934 3.84565 9.36816 4.8876 9.36816H9.9248C9.97233 9.36815 10.019 9.35587 10.0601 9.33258C10.1012 9.30929 10.1353 9.27581 10.1589 9.23553L14.1627 2.3975ZM9.20212 19.0105L9.93882 19.64C10.5289 20.1437 11.2862 20.4212 12.0702 20.421H17.7751C18.1713 20.4209 18.5574 20.2992 18.8787 20.0731C19.2001 19.8469 19.4404 19.5278 19.5656 19.161L21.2472 14.2377C21.3755 13.8619 21.4105 13.4618 21.3493 13.0702C21.2881 12.6786 21.1324 12.3068 20.8951 11.9854C20.6578 11.6641 20.3456 11.4024 19.9843 11.2218C19.623 11.0413 19.2229 10.9472 18.817 10.9471H16.4829C16.3555 10.9471 16.2299 10.9177 16.1164 10.8614C16.0028 10.805 15.9045 10.7233 15.8295 10.6229C15.7544 10.5224 15.7047 10.4061 15.6844 10.2834C15.6641 10.1606 15.6738 10.035 15.7127 9.9166L16.7353 6.79653C16.9326 6.19537 16.8896 5.5436 16.6149 4.97209C16.3402 4.40059 15.8541 3.95165 15.2543 3.71542L11.5632 10.0187C11.3982 10.3007 11.1598 10.535 10.872 10.6981C10.5843 10.8611 10.2575 10.947 9.9248 10.9471H9.20212V19.0105ZM7.58418 10.9471H4.8876C4.81608 10.9471 4.7475 10.9749 4.69692 11.0242C4.64635 11.0736 4.61794 11.1405 4.61794 11.2103V20.1579C4.61794 20.3031 4.73875 20.421 4.8876 20.421H7.31452C7.38604 20.421 7.45462 20.3933 7.50519 20.3439C7.55577 20.2946 7.58418 20.2277 7.58418 20.1579V10.9471Z" fill="black"/>
</svg>
