<svg width="24" height="24" viewBox="0 0 24 24" fill="none" xmlns="http://www.w3.org/2000/svg">
<path d="M11.1661 21.516C11.0679 21.6861 10.9186 21.8226 10.7384 21.9069C10.5582 21.9911 10.3559 22.0191 10.1589 21.9871L9.85 21.9363C9.26384 21.8408 8.70492 21.6252 8.20986 21.3037C7.71479 20.9822 7.29475 20.5619 6.97724 20.0705C6.65974 19.5791 6.45195 19.0276 6.36747 18.4521C6.28299 17.8767 6.32374 17.2903 6.48704 16.7313L7.0815 14.6983H6.21837C5.56269 14.6983 4.91604 14.5488 4.32975 14.2616C3.74345 13.9744 3.23366 13.5574 2.84084 13.0438C2.44802 12.5302 2.18299 11.9341 2.06678 11.3028C1.95057 10.6715 1.98639 10.0223 2.17139 9.40691L3.64455 4.50664C3.86119 3.78604 4.30955 3.15298 4.92307 2.70142C5.5366 2.24987 6.2826 2.00389 7.05034 2H13.4725C14.4849 2.00381 15.4688 2.31746 16.2865 2.89142C16.4966 2.6165 16.769 2.39295 17.0822 2.23829C17.3954 2.08362 17.741 2.00206 18.0919 2H19.7429C20.3428 2.00369 20.9169 2.23944 21.3398 2.65579C21.7627 3.07213 22 3.63525 22 4.2222V12.4761C22 13.0655 21.7607 13.6307 21.3347 14.0474C20.9088 14.4642 20.331 14.6983 19.7286 14.6983H15.2936C15.2362 14.6984 15.18 14.7134 15.1305 14.7418C15.081 14.7701 15.0401 14.8107 15.0119 14.8596L11.1661 21.516ZM15.8348 4.98537L15.3208 4.56632C14.796 4.13878 14.1347 3.90469 13.4518 3.90474H7.06852C6.71819 3.90478 6.37729 4.01575 6.09678 4.22106C5.81627 4.42637 5.61122 4.71499 5.51229 5.04378L4.03913 9.94405C3.93945 10.2755 3.92012 10.625 3.98268 10.965C4.04523 11.305 4.18794 11.626 4.39947 11.9026C4.61101 12.1792 4.88555 12.4038 5.20129 12.5584C5.51702 12.7131 5.86527 12.7936 6.21837 12.7935H8.37165C8.5223 12.7936 8.67088 12.8278 8.80571 12.8936C8.94054 12.9593 9.05793 13.0548 9.14864 13.1725C9.23936 13.2901 9.30091 13.4268 9.32847 13.5717C9.35603 13.7166 9.34884 13.8658 9.30746 14.0075L8.35867 17.2557C8.19809 17.8058 8.26053 18.3953 8.533 18.9015C8.80547 19.4076 9.26697 19.7915 9.82144 19.9732L13.3168 13.9224C13.5146 13.5799 13.8019 13.2949 14.1492 13.0966C14.4965 12.8982 14.8914 12.7937 15.2936 12.7935H15.8348V4.98537ZM17.7817 12.7935H19.7286C19.8147 12.7935 19.8972 12.7601 19.9581 12.7006C20.0189 12.641 20.0531 12.5603 20.0531 12.4761V4.2222C20.0531 4.13801 20.0189 4.05726 19.9581 3.99772C19.8972 3.93819 19.8147 3.90474 19.7286 3.90474H18.1062C18.0201 3.90474 17.9376 3.93819 17.8767 3.99772C17.8159 4.05726 17.7817 4.13801 17.7817 4.2222V12.7935Z" fill="black"/>
</svg>
