<svg width="24" height="24" viewBox="0 0 24 24" fill="none" xmlns="http://www.w3.org/2000/svg">
<path d="M21 10.2857V3.14288C21 1.96145 20.036 1.00002 18.8514 1.00002H16.7027V12.4286H18.8514C20.036 12.4286 21 11.4672 21 10.2857ZM1.56051 12.6929C2.10483 13.4329 2.94853 13.8572 3.86959 13.8572H8.78711L8.12247 17.1714C8.0292 17.6358 8.04044 18.115 8.15537 18.5745C8.27031 19.034 8.48608 19.4623 8.78711 19.8286C9.39876 20.5729 10.3041 21 11.2681 21C11.9041 21 12.4699 20.5743 12.6289 20.01L13.295 18.1729C13.8141 16.7412 14.4753 15.3648 15.2689 14.0643V1.00002H6.10561C5.49419 0.997502 4.89816 1.19111 4.40551 1.55227C3.91286 1.91343 3.54971 2.42299 3.36967 3.00574L1.13365 10.1486C0.997229 10.5759 0.964662 11.0295 1.03863 11.4719C1.1126 11.9143 1.29099 12.3328 1.55908 12.6929" fill="#FF0000"/>
</svg>
