<svg width="164" height="28" viewBox="0 0 164 28" fill="none" xmlns="http://www.w3.org/2000/svg">
<path d="M1.81678 9.99989C3.62582 8.59051 5.58637 8.60421 7.70955 9.01724L22.5451 11.8869C25.6574 12.4663 26.4327 10.7594 26.4327 10.7594C28.4891 12.7952 28.6384 16.0994 26.1832 18.0138C24.3742 19.4232 22.4136 19.4095 20.2905 18.9964L5.45492 16.1268C2.34256 15.5474 1.56725 17.2543 1.56725 17.2543C-0.489092 15.2185 -0.638361 11.9143 1.81678 9.99989Z" fill="#26203B"/>
<path d="M13.912 1.01706V7.27118C13.9076 7.69595 14.244 8.06395 14.7163 8.15595L22.9239 9.74934C23.8974 9.93921 24.5792 8.92132 23.9175 8.26557L15.9305 0.343693C15.2265 -0.355124 13.912 0.0833493 13.912 1.01511V1.01706Z" fill="#26203B"/>
<path d="M14.0747 26.9849V20.7308C14.0792 20.306 13.7428 19.938 13.2704 19.846L5.06289 18.2526C4.0893 18.0627 3.40756 19.0806 4.06925 19.7364L12.0562 27.6563C12.7603 28.3551 14.0747 27.9166 14.0747 26.9849Z" fill="#26203B"/>
<path d="M35.6797 21V6.60547H36.9688L43.6484 15.7656L44.9961 17.7188H45.0742L45.0352 14.125V6.60547H46.793V21H45.5234L38.8828 11.8008L37.4766 9.88672H37.3984L37.4375 13.3633V21H35.6797ZM49.2984 21V10.6484H50.9781V21H49.2984ZM50.1383 8.98828C49.7802 8.98828 49.4775 8.86458 49.2301 8.61719C48.9892 8.36979 48.8687 8.07031 48.8687 7.71875C48.8687 7.36719 48.9892 7.06771 49.2301 6.82031C49.4775 6.57292 49.7802 6.44922 50.1383 6.44922C50.4898 6.44922 50.7893 6.57292 51.0367 6.82031C51.2841 7.06771 51.4078 7.36719 51.4078 7.71875C51.4078 8.07031 51.2841 8.36979 51.0367 8.61719C50.7893 8.86458 50.4898 8.98828 50.1383 8.98828ZM53.132 21V10.6484H54.8117V11.918H55.2023L54.4797 12.6406C54.6555 12.1719 54.9159 11.778 55.2609 11.459C55.606 11.14 56.0129 10.8991 56.4816 10.7363C56.9504 10.5736 57.4549 10.4922 57.9953 10.4922C58.8677 10.4922 59.5708 10.6842 60.1047 11.0684C60.6451 11.4525 61.0357 11.9408 61.2766 12.5332C61.524 13.1257 61.6477 13.7344 61.6477 14.3594V21H59.968V14.7109C59.968 13.832 59.7499 13.1712 59.3137 12.7285C58.884 12.2793 58.2883 12.0547 57.5266 12.0547C57.0187 12.0547 56.5598 12.1589 56.1496 12.3672C55.7395 12.569 55.4139 12.8685 55.173 13.2656C54.9322 13.6562 54.8117 14.138 54.8117 14.7109V21H53.132ZM62.6492 25.2578C62.4669 25.2578 62.2944 25.248 62.1316 25.2285C61.9689 25.209 61.8029 25.1797 61.6336 25.1406V23.5391C61.7833 23.5781 61.9396 23.6074 62.1023 23.627C62.2651 23.6465 62.4083 23.6562 62.532 23.6562C63.0138 23.6562 63.3784 23.5195 63.6258 23.2461C63.8732 22.9792 63.9969 22.582 63.9969 22.0547V10.6484H65.6766V22.2109C65.6766 22.7904 65.5691 23.3079 65.3543 23.7637C65.146 24.2259 64.8172 24.5905 64.368 24.8574C63.9253 25.1243 63.3523 25.2578 62.6492 25.2578ZM64.8367 8.98828C64.4786 8.98828 64.1759 8.86458 63.9285 8.61719C63.6876 8.36979 63.5672 8.07031 63.5672 7.71875C63.5672 7.36719 63.6876 7.06771 63.9285 6.82031C64.1759 6.57292 64.4786 6.44922 64.8367 6.44922C65.1883 6.44922 65.4878 6.57292 65.7352 6.82031C65.9826 7.06771 66.1063 7.36719 66.1063 7.71875C66.1063 8.07031 65.9826 8.36979 65.7352 8.61719C65.4878 8.86458 65.1883 8.98828 64.8367 8.98828ZM70.7992 21.1562C70.1612 21.1562 69.585 21.0326 69.0707 20.7852C68.5564 20.5378 68.1495 20.1862 67.85 19.7305C67.5505 19.2682 67.4008 18.7148 67.4008 18.0703C67.4008 17.3867 67.5863 16.804 67.9574 16.3223C68.3285 15.8405 68.8656 15.4759 69.5687 15.2285C70.2719 14.9746 71.1247 14.8477 72.1273 14.8477H74.2758V16.1953H72.2445C71.2224 16.1953 70.4314 16.3581 69.8715 16.6836C69.3181 17.0091 69.0414 17.4714 69.0414 18.0703C69.0414 18.4154 69.1293 18.7116 69.3051 18.959C69.4809 19.1999 69.7152 19.3854 70.0082 19.5156C70.3077 19.6458 70.6365 19.7109 70.9945 19.7109C71.4242 19.7109 71.8669 19.6165 72.3227 19.4277C72.7849 19.2324 73.1723 18.9525 73.4848 18.5879C73.8038 18.2168 73.9633 17.7643 73.9633 17.2305V16.1562L73.9242 15.5508V14.3984C73.9242 14.2292 73.9112 14.0143 73.8852 13.7539C73.8591 13.487 73.781 13.2233 73.6508 12.9629C73.5271 12.7025 73.3155 12.4844 73.016 12.3086C72.7165 12.1263 72.2966 12.0352 71.7562 12.0352C71.4372 12.0352 71.0922 12.0775 70.7211 12.1621C70.3565 12.2402 69.9984 12.3509 69.6469 12.4941C69.3018 12.6374 68.9958 12.8034 68.7289 12.9922L68.0844 11.4883C68.4294 11.2865 68.8135 11.1107 69.2367 10.9609C69.6664 10.8047 70.1091 10.6842 70.5648 10.5996C71.0271 10.515 71.4763 10.4727 71.9125 10.4727C72.6156 10.4727 73.1983 10.5768 73.6605 10.7852C74.1293 10.9935 74.5004 11.2799 74.7738 11.6445C75.0473 12.0091 75.2393 12.4258 75.35 12.8945C75.4672 13.3568 75.5258 13.8451 75.5258 14.3594V17.9922C75.5258 18.4284 75.5714 18.7734 75.6625 19.0273C75.7602 19.2812 75.9294 19.457 76.1703 19.5547L76.3656 19.6328L75.7211 21.1562L75.4477 21.0391C75.0831 20.8828 74.7706 20.6517 74.5102 20.3457C74.2497 20.0397 74.1195 19.737 74.1195 19.4375L74.4516 19.5547H73.807L74.2367 19.2812C73.9828 19.7956 73.5499 20.2383 72.9379 20.6094C72.3324 20.974 71.6195 21.1562 70.7992 21.1562ZM76.6641 21L82.6211 6.60547H84.0664L90.0234 21H88.1875L86.4102 16.7031L86.1758 16.0781L83.3828 9.00781H83.3047L80.5117 16.0781L80.2773 16.7031L78.5 21H76.6641ZM79.4375 17.2305V15.6289H87.25V17.2305H79.4375ZM91.3375 21V6.60547H93.0953V21H91.3375ZM111.27 21L110.157 19.4375L109.591 18.8711L106.837 15.1602H108.712L110.88 18.1289L111.505 18.793L113.145 21H111.27ZM106.602 21.1562C105.593 21.1562 104.656 20.974 103.79 20.6094C102.93 20.2448 102.179 19.7305 101.534 19.0664C100.896 18.4023 100.398 17.6243 100.04 16.7324C99.6883 15.834 99.5125 14.8542 99.5125 13.793C99.5125 12.7448 99.6883 11.7747 100.04 10.8828C100.391 9.99089 100.883 9.21289 101.514 8.54883C102.152 7.88477 102.901 7.37044 103.761 7.00586C104.62 6.63477 105.554 6.44922 106.563 6.44922C107.585 6.44922 108.526 6.63477 109.386 7.00586C110.251 7.37044 111.003 7.88477 111.641 8.54883C112.286 9.21289 112.784 9.99414 113.136 10.8926C113.494 11.7845 113.673 12.7578 113.673 13.8125C113.673 14.8672 113.494 15.8405 113.136 16.7324C112.784 17.6243 112.286 18.4023 111.641 19.0664C111.003 19.7305 110.255 20.2448 109.395 20.6094C108.542 20.974 107.611 21.1562 106.602 21.1562ZM106.563 19.5547C107.338 19.5547 108.051 19.4115 108.702 19.125C109.36 18.832 109.926 18.4251 110.401 17.9043C110.883 17.3835 111.254 16.7747 111.514 16.0781C111.781 15.375 111.915 14.6133 111.915 13.793C111.915 12.9531 111.778 12.1849 111.505 11.4883C111.238 10.7852 110.86 10.1764 110.372 9.66211C109.89 9.14779 109.324 8.75065 108.673 8.4707C108.022 8.19076 107.318 8.05078 106.563 8.05078C105.821 8.05078 105.128 8.19076 104.483 8.4707C103.845 8.75065 103.285 9.14779 102.804 9.66211C102.322 10.1764 101.944 10.7852 101.671 11.4883C101.404 12.1849 101.27 12.9531 101.27 13.793C101.27 14.6198 101.401 15.3848 101.661 16.0879C101.928 16.791 102.299 17.403 102.774 17.9238C103.249 18.4382 103.809 18.8385 104.454 19.125C105.098 19.4115 105.802 19.5547 106.563 19.5547ZM114.186 21L120.143 6.60547H121.588L127.545 21H125.709L123.932 16.7031L123.698 16.0781L120.905 9.00781H120.827L118.034 16.0781L117.799 16.7031L116.022 21H114.186ZM116.959 17.2305V15.6289H124.772V17.2305H116.959Z" fill="black"/>
</svg>
