<svg width="27" height="27" viewBox="0 0 27 27" fill="none" xmlns="http://www.w3.org/2000/svg">
<path d="M1.70958 9.64276C3.41188 8.28371 5.25675 8.29692 7.25465 8.6952L21.2148 11.4624C24.1435 12.0211 24.8731 10.3751 24.8731 10.3751C26.8081 12.3382 26.9486 15.5244 24.6383 17.3704C22.936 18.7295 21.0911 18.7163 19.0932 18.318L5.13306 15.5508C2.20434 14.9921 1.47478 16.6381 1.47478 16.6381C-0.460233 14.675 -0.600694 11.4888 1.70958 9.64276Z" fill="#EE4B4A"/>
<path d="M13.0911 0.980739V7.01149C13.0869 7.42109 13.4035 7.77595 13.8479 7.86467L21.5712 9.40114C22.4873 9.58424 23.1288 8.60271 22.5062 7.97037L14.9905 0.331418C14.328 -0.342441 13.0911 0.0803725 13.0911 0.978852V0.980739Z" fill="#EE4B4A"/>
<path d="M13.2442 26.0212V19.9904C13.2483 19.5808 12.9318 19.2259 12.4873 19.1372L4.76407 17.6007C3.84793 17.4176 3.20642 18.3992 3.82906 19.0315L11.3448 26.6686C12.0073 27.3424 13.2442 26.9196 13.2442 26.0212Z" fill="#EE4B4A"/>
</svg>
