<svg width="27" height="27" viewBox="0 0 27 27" fill="none" xmlns="http://www.w3.org/2000/svg">
<path d="M1.71055 9.64276C3.41286 8.28371 5.25773 8.29692 7.25563 8.6952L21.2158 11.4624C24.1445 12.0211 24.8741 10.3751 24.8741 10.3751C26.8091 12.3382 26.9496 15.5244 24.6393 17.3704C22.937 18.7295 21.0921 18.7163 19.0942 18.318L5.13404 15.5508C2.20531 14.9921 1.47575 16.6381 1.47575 16.6381C-0.459257 14.675 -0.599718 11.4888 1.71055 9.64276Z" fill="#26203B"/>
<path d="M13.0921 0.980739V7.01149C13.0879 7.42109 13.4045 7.77595 13.8489 7.86467L21.5722 9.40114C22.4883 9.58424 23.1298 8.60271 22.5072 7.97037L14.9915 0.331418C14.329 -0.342441 13.0921 0.0803725 13.0921 0.978852V0.980739Z" fill="#26203B"/>
<path d="M13.2451 26.0212V19.9904C13.2493 19.5808 12.9328 19.2259 12.4883 19.1372L4.76505 17.6007C3.84891 17.4176 3.2074 18.3992 3.83004 19.0315L11.3458 26.6686C12.0082 27.3424 13.2451 26.9196 13.2451 26.0212Z" fill="#26203B"/>
</svg>
