<svg width="74" height="73" viewBox="0 0 74 73" fill="none" xmlns="http://www.w3.org/2000/svg">
<path d="M73.6172 38.7241C73.59 40.0365 73.3425 41.7378 73.0452 43.0105C72.9531 43.4085 72.9014 43.189 72.832 43.4613C72.6953 43.9908 72.6309 44.5044 72.466 45.022C72.4107 45.1932 72.3235 44.9433 72.2685 45.1229C71.9671 46.105 71.7367 47.0491 71.3818 48.0289C69.6312 52.8399 67.0105 57.2231 63.508 60.9928C62.355 62.2408 60.7756 63.5655 59.4548 64.7066C59.3008 64.8404 59.4739 64.8611 59.4503 64.8936C59.0723 65.3996 59.0728 65.0747 58.7391 65.2925C57.4123 66.1553 55.9563 67.1153 54.6683 67.9139C54.1194 68.2525 54.805 68.1495 54.1686 68.3472C54.1246 68.3609 54.203 68.1651 54.0415 68.2386C53.6761 68.4068 53.0163 68.7795 52.7327 68.9079C52.1875 69.1556 52.0993 69.1989 51.5862 69.435C50.8818 69.7556 50.0112 70.0493 49.2462 70.3684C49.0827 70.437 49.3508 70.4826 49.093 70.6032C48.8358 70.7252 48.1243 70.9608 47.8732 71.0075C47.6228 71.0557 47.6921 70.92 47.642 70.9105C47.2306 70.8289 46.4922 71.347 46.3836 71.3827C44.4588 72.0482 42.7012 72.2214 40.8199 72.4495C39.3971 72.6214 37.8737 72.7603 36.5 72.7522C36.4886 72.7521 36.4772 72.752 36.4659 72.752C34.8204 72.7373 33.4461 72.5729 31.8649 72.3872C31.6983 72.3669 31.8729 72.5514 31.6689 72.5264C29.4995 72.2572 27.3689 71.7567 25.3364 70.9853C25.1326 70.9075 25.4427 70.8605 25.2426 70.7747C24.0079 70.2637 22.2054 69.2168 21.2367 69.4289C20.4274 69.0294 19.4629 68.503 18.8229 67.9987C18.4115 67.6733 18.9235 67.7909 18.3423 67.5295C18.2116 67.4696 18.304 67.68 18.1128 67.5807C17.3063 67.1607 16.498 66.5858 15.7232 66.1252C15.5654 66.0317 15.5367 66.1585 15.4817 66.1462C15.0206 66.0365 14.6095 65.3655 14.4991 65.2525C13.6426 64.394 12.9367 63.8779 12.1117 63.1208C11.9212 62.9443 12.0378 63.2716 11.8503 63.105C10.8797 62.2382 9.94882 61.2551 9.16903 60.2478C8.9962 60.0233 9.27048 60.1297 9.19359 60.0181C8.85694 59.5266 8.5728 59.5911 8.25714 59.1107C8.19088 59.0095 8.32543 58.9889 8.32182 58.9637C8.26782 58.5705 7.8603 58.5125 7.80097 58.4454C7.05396 57.6064 6.88898 56.8471 6.26998 55.9735C6.19581 55.8682 6.22745 56.1937 6.02658 55.8916C4.68846 53.8777 3.56849 51.5511 2.83733 49.2776C2.72353 48.9237 2.92195 49.1324 2.92654 49.1056C2.99562 48.6752 2.6436 48.5456 2.59273 48.4344C2.20083 47.5587 2.17856 46.6405 1.67518 46.1078C0.904278 42.9494 0.373401 39.7322 0.487392 36.5C0.515568 35.7007 0.582388 34.9195 0.694776 34.1311C0.701673 34.0806 0.837814 34.1806 0.850994 34.0802C1.0216 32.8742 0.786214 33.0968 0.604887 32.2553C0.559845 32.0417 0.965824 31.4687 0.99817 31.4199C1.11368 31.236 1.29427 31.4696 1.3206 31.4064C1.53343 30.889 0.824639 30.8663 0.952618 30.1255C0.957858 30.1026 1.06767 30.222 1.09127 30.1624C1.16497 29.9779 1.14992 29.7789 1.2298 29.6007C1.41525 29.1939 1.77696 29.1131 1.73027 28.4263C1.72513 28.339 1.30432 28.3737 1.48209 27.7285C1.54885 27.472 1.856 26.3275 1.98133 26.0217C2.10224 25.7141 2.15852 25.9682 2.17069 25.9472C2.59732 25.1527 2.56486 25.4948 2.94055 25.1572C3.31791 24.8246 2.71631 24.7449 2.71321 24.5522C2.70936 24.3593 3.06596 23.7981 3.16962 23.6687C3.27215 23.5382 3.27674 23.7519 3.35321 23.6306C3.8626 22.8319 3.22976 23.1403 3.25815 22.8177C3.33177 22.0537 3.97153 21.7069 4.29455 21.1298C4.38282 20.9729 4.2284 21.0617 4.28986 20.9128C4.53765 20.3235 4.8328 20.0474 5.06663 19.3521C5.10393 19.2391 5.15955 18.593 5.52189 18.3633C5.57338 18.3314 5.59091 18.5181 5.74981 18.2976C5.98623 17.9684 6.39136 17.3625 6.59955 16.9801C6.75317 16.6972 6.3985 16.9044 6.66967 16.598C6.79072 16.4627 6.69337 16.7979 6.91332 16.5398C7.13082 16.2817 7.62143 15.5805 7.81436 15.318C8.00518 15.0549 7.78898 15.1153 7.79712 15.0887C7.84874 14.9282 8.17963 14.3893 8.2152 14.3463C9.94108 12.1276 11.9299 10.4502 13.9848 8.68046C14.147 8.54185 13.9455 8.51812 13.9693 8.49582C14.5048 7.99129 14.2927 8.65171 14.7714 8.44078C14.533 8.25368 14.8014 8.10895 15.1945 7.77624C15.3841 7.61619 15.2082 7.60465 15.2193 7.5818C15.4143 7.22295 15.7561 7.25574 15.8357 7.25532C16.1311 7.25233 16.2354 6.93873 16.4363 6.93838C16.6355 6.93848 16.415 7.28679 16.8192 7.01202C16.8753 6.84782 16.4177 6.82185 16.7049 6.57678C17.7847 5.62824 20.2191 4.5307 21.2633 4.08992C22.3007 3.63193 22.6363 3.4792 23.2618 3.26668C24.3985 2.89834 23.9192 2.86609 24.5878 2.52555C25.2647 2.19296 25.0818 2.78923 25.2174 2.85681C25.3501 2.92629 25.4229 2.78503 25.5645 2.80156C25.7052 2.81853 25.463 2.9738 25.7574 2.90252C26.0512 2.82903 26.7853 2.41218 26.8613 2.27569C27.0176 1.98459 26.5844 1.83875 27.3955 1.71383C27.4421 1.70711 27.3287 1.87329 27.5052 1.84119C28.8983 1.58481 30.3462 1.30925 31.7529 1.21358C31.9462 1.20078 31.7941 1.36918 31.9065 1.36357C33.0773 1.31624 32.6351 1.12181 33.2505 0.784241C33.1409 1.16443 33.5108 1.34617 34.3924 1.2942C34.925 1.26611 34.822 1.11223 35.1627 0.985325C35.265 0.946926 35.6456 1.0461 35.7124 0.969809C35.9344 0.720783 35.5689 0.444964 36.5 0.548984C36.5004 0.54903 36.5008 0.549075 36.5012 0.549121C36.5156 0.550962 36.5087 0.568906 36.5 0.591729C36.4885 0.621745 36.4739 0.660201 36.5 0.681548C36.5103 0.690013 36.5271 0.695791 36.5529 0.697327C37.4604 0.757807 37.5714 0.501605 38.5566 0.519677C39.3335 0.533462 40.6825 0.819072 41.5424 0.971675C41.4682 1.37596 42.2863 1.40186 42.6661 1.1821C43.2234 1.29022 43.8251 1.39366 44.3532 1.5524C44.5343 1.60688 44.387 1.69611 44.4074 1.71391C44.7155 1.99124 45.0159 1.78078 45.1377 1.79971C46.4521 2.0203 47.4205 2.53654 48.6765 2.76937C48.7207 2.77778 48.8884 2.53251 49.1347 2.84791C49.1497 2.86914 48.713 2.8437 49.2666 3.06342C49.822 3.28299 50.7929 3.85154 51.5932 4.08249C51.7862 4.13661 52.3469 4.14651 52.6289 4.49329C52.666 4.53972 52.5763 4.58634 52.625 4.66229C52.7822 4.90574 53.0382 4.7121 53.184 5.06782C53.329 5.42389 53.7719 5.87001 54.5624 6.14363C54.5872 6.15274 54.8724 6.05528 55.093 6.19519C55.4446 6.41745 55.9144 6.77593 56.2736 7.01652C56.4458 7.13164 56.4157 6.93953 56.447 6.95749C57.6495 7.68196 58.375 8.38585 59.482 9.38941C59.6843 9.57233 60.4088 9.94729 60.6933 10.4241C61.001 10.9469 60.0986 11.0383 61.1514 11.8385C61.5673 12.1609 62.6937 12.044 62.9969 13.0791C64.3259 14.4141 65.1848 15.9396 66.3342 17.4277C66.3858 17.4945 66.739 17.5888 66.8417 17.7616C66.9936 18.0179 66.978 18.2171 67.0794 18.4026C67.5003 19.1816 67.9749 19.8471 68.3445 20.6201C68.4839 20.9138 68.3271 20.8648 68.4887 21.2153C68.648 21.5652 68.9008 21.7332 69.0429 22.2443C69.1493 22.632 69.005 23.1174 69.1605 23.6125C69.4625 23.5141 69.5922 23.8495 69.8895 24.423C69.9465 24.5332 70.0058 24.3716 70.0382 24.4218C70.1724 24.6264 70.1584 24.8644 70.2896 25.0584C70.3213 25.1057 70.425 25.0735 70.4567 25.1106C70.7324 25.425 70.6874 26.1059 70.6761 26.2198C70.6398 26.6622 70.8274 26.8089 70.8503 27.133C70.8715 27.4557 70.6718 27.0191 70.7302 27.3859C70.8506 28.1426 71.0856 29.095 71.2232 29.855C71.2789 30.1583 71.3824 29.925 71.3937 29.9678C71.5481 30.5924 71.4928 31.2575 71.8265 31.5686C71.1449 32.1085 71.956 31.9405 71.9057 32.8783C71.9008 32.9514 71.5592 33.0766 71.4796 32.8083C71.3999 32.5398 71.4614 32.1118 71.33 31.7451C71.2999 31.6566 70.8991 31.198 70.8677 31.1327C70.6282 30.6176 71.1311 30.4533 71.1552 30.4186C71.4073 30.0352 70.9356 29.4797 70.8768 29.3239C70.611 28.6012 70.5315 27.9636 70.2884 27.3694C70.1291 26.9823 69.7853 27.0386 69.7058 26.7275C69.4343 25.7004 69.7657 25.177 69.0249 24.3695C68.8638 24.1977 68.5928 24.5323 68.5869 23.7065C68.5875 23.6552 68.6221 23.0187 68.3303 22.7794C68.2938 22.7496 68.1934 22.7945 68.163 22.7479C67.9612 22.4349 67.9404 22.1755 67.7325 21.8308C67.5247 21.4873 67.2562 21.083 67.0793 20.6618C66.9732 20.4079 66.9862 20.0002 66.9657 19.859C66.912 19.4591 66.506 19.2275 66.5398 18.9396C66.5715 18.6473 67.039 18.9109 66.8176 18.3167C66.5607 18.444 66.2823 18.5505 66.0177 18.6684C65.3343 17.5208 64.6634 16.3812 63.8287 15.3255C63.7249 15.1952 63.7083 15.4237 63.5941 15.2872C63.1121 14.7134 62.7754 14.1387 62.2244 13.5849C61.7973 13.1569 61.2271 12.7877 60.7568 12.3735C60.7202 11.8695 59.9672 11.2953 59.48 10.823C59.3093 10.6567 59.3789 10.6021 59.27 10.4685C58.8543 9.96814 58.8926 10.385 58.7304 10.3057C58.0334 9.97417 58.4004 9.42599 57.6813 8.88736C57.6429 8.85718 56.9724 8.7886 56.8966 8.7613C56.4084 8.57985 56.9017 8.61389 56.6616 8.40831C56.2215 8.03551 55.936 7.73676 55.314 7.45309C55.1315 7.37011 54.6198 7.30193 54.3809 6.96124C54.3494 6.9164 54.4328 6.83219 54.4017 6.80544C53.8282 6.33115 53.6263 6.63777 53.2052 6.54049C52.784 6.44368 52.3358 5.92591 52.2498 5.80188C52.0284 5.47889 52.5211 5.85166 52.5454 5.84503C52.8411 5.75486 52.4052 5.56601 52.0886 5.3874C52.2018 5.0458 51.731 4.83869 51.759 5.20448C51.7628 5.24445 52.0309 5.33988 52.0886 5.3874C51.6463 5.55496 51.1404 5.35671 50.7139 4.80854C50.5125 4.55329 50.8365 4.49457 49.9996 4.20941C49.6198 4.08364 49.6694 4.36831 49.3206 4.29987C48.5255 4.1444 47.6307 3.58424 46.8275 3.37391C46.5389 3.29835 46.7767 3.51167 46.5786 3.46508C46.0538 3.34351 45.6215 3.11807 45.0818 3.03282C45.0333 3.02545 45.1141 3.19053 44.9515 3.15108C43.7162 2.85841 42.6434 2.554 41.324 2.3641C40.6875 2.26949 39.5355 2.22672 38.8731 2.17045C38.1277 2.10221 37.2873 1.98204 36.5 1.93361C36.0661 1.90641 35.6567 1.90024 35.3054 1.92985C34.6623 1.98598 34.8121 2.1224 34.5411 2.23183C34.0219 2.44262 33.0658 2.19668 32.9318 2.16123C32.9281 2.15898 33.4754 2.07382 33.1746 2.03002C32.9887 1.89724 32.938 2.16 32.9318 2.16123C32.8442 2.13255 31.7366 2.23364 31.5244 2.29635C31.4084 2.32797 31.4936 2.44975 31.4331 2.46381C29.9865 2.79769 28.5613 3.13692 27.1056 3.48542C27.0796 3.49004 27.0772 3.3363 27.0162 3.34905C26.164 3.52576 25.6852 3.87444 25.0521 4.21151C24.4188 4.55067 23.8855 4.72392 23.3975 4.64895C22.9115 4.88177 22.1572 5.09492 21.7243 5.22604C21.2906 5.35664 21.3619 5.6464 21.3295 5.66817C20.3212 6.37621 19.6293 6.5672 18.5318 7.20399C18.0086 7.50489 17.0356 8.19989 16.5281 8.60912C16.1259 8.93005 15.8372 9.06192 15.4882 9.38652C15.4411 9.43043 15.5712 9.49233 15.5588 9.50824C15.2393 9.95387 15.244 9.55131 15.1231 9.57485C14.6863 9.66282 14.4208 9.73453 13.9635 10.252C13.8566 10.372 13.8124 11.0128 13.6223 11.2218C13.373 11.4945 13.3651 11.2808 13.1091 11.5733C13.0873 11.5984 13.1605 11.6663 12.9851 11.8269C12.1726 12.5736 11.2974 13.4084 10.5573 14.289C10.4561 14.4089 10.7072 14.3593 10.5639 14.534C9.89186 15.3537 9.18155 16.2696 8.53116 17.0764C8.37063 17.2749 8.37001 17.0806 8.31131 17.1073C7.9513 17.2758 7.92639 17.8416 7.88882 17.9105C6.98236 19.5743 6.05178 20.7246 5.36287 22.5415C5.32364 22.6418 5.28894 23.5024 4.91005 23.7347C4.88458 23.7499 4.4962 23.9825 4.55794 24.3466C4.5621 24.369 4.77193 24.2111 4.62143 24.5691C4.47059 24.929 4.35237 25.5429 4.04192 26.0041C3.9439 26.1492 3.56031 26.4532 3.62848 27.001C3.63135 27.0391 3.89801 27.9146 3.50469 28.0977C3.44053 28.1274 3.10015 27.9935 3.13833 28.6255C3.14686 28.746 3.2718 28.5606 3.25229 28.8672C3.22343 29.3364 3.00422 29.9203 3.06239 30.5087C3.07233 30.6122 3.24094 31.0657 3.0083 31.3715C2.97184 31.4194 2.86826 31.302 2.82867 31.4766C2.64035 32.3085 2.62234 33.2083 2.47933 34.0643C2.42948 34.3694 2.24629 34.1992 2.17528 34.5193C2.10366 34.8403 2.02897 35.4862 2.11236 35.8276C2.19555 36.1671 2.50814 35.8038 2.52814 36.3065C2.53095 36.371 2.53368 36.4355 2.53636 36.5C2.62447 38.6063 2.64422 40.7047 3.00655 42.7902C3.06289 43.1073 3.1198 42.8252 3.2141 43.2884C3.53987 45.0143 4.52915 47.8541 4.91373 49.34C5.20963 50.5397 4.48236 49.1733 4.77675 50.0691C4.92287 50.5047 5.45468 50.8018 5.5105 50.8942C6.0643 51.8058 6.26411 52.5309 6.7782 53.343C6.88479 53.5096 6.91507 53.2695 7.00438 53.4113C7.31039 53.8938 7.56801 54.4405 7.87453 54.8941C8.01248 55.097 8.08081 54.9984 8.19734 55.1908C8.47836 55.6497 8.71212 56.0675 8.93815 56.5548C8.95903 56.5994 8.65553 56.4178 8.88837 56.7454C9.26566 57.2739 9.68388 57.9779 10.2476 58.484C10.4158 58.6337 10.612 58.4761 10.7915 58.9496C10.8299 59.048 10.5156 59.1565 11.0833 59.3959C11.1786 59.44 12.0656 59.8775 12.2226 60.3583C12.2633 60.486 12.3046 60.8815 12.5243 61.0409C12.5545 61.0617 12.546 60.8632 12.7135 61.0077C13.3025 61.5178 13.8965 62.0761 14.5345 62.5583C14.7049 62.6864 14.5532 62.375 14.8039 62.5681C15.4925 63.0985 16.3312 63.7851 17.0036 64.3085C17.2512 64.5019 17.0068 64.4735 17.0181 64.497C17.2036 64.8782 17.5435 64.7691 17.653 64.8227C18.3371 65.1604 18.7588 65.5763 19.3801 65.9C19.5515 65.9891 19.5 65.8052 19.5392 65.8142C19.9406 65.9115 19.5652 65.9716 19.7712 66.1193C20.3505 66.5336 21.0541 66.8905 21.7071 67.1863C21.9464 67.2942 21.7476 67.0278 21.9609 67.1253C23.2252 67.6984 24.5604 68.2483 25.821 68.7539C26.0591 68.8494 25.8692 68.912 25.9116 68.9545C26.2061 69.2514 26.8012 69.16 26.9261 69.17C27.4982 69.2183 27.6829 69.3763 28.1704 69.4803C30.5471 69.9969 33.518 70.4452 35.821 70.5158C36.0504 70.5245 36.2766 70.5312 36.5 70.536C39.1801 70.5818 41.3897 70.433 43.9726 69.842C44.1501 69.8004 43.9363 69.6865 44.0882 69.6485C46.0448 69.1629 47.9609 68.607 49.8045 67.7728C49.9557 67.7044 49.6774 67.6608 49.9169 67.5461C50.4081 67.3097 51.0321 67.0289 51.5469 66.8255C51.7975 66.726 51.5323 67.0026 51.7841 66.8994C52.3703 66.6583 52.9735 66.3449 53.5241 65.9984C53.7576 65.8505 53.3211 65.9274 53.6292 65.7455C55.7243 64.4957 57.6301 63.0532 59.582 61.5243C59.7152 61.4194 60.0385 61.5454 60.2603 61.2502C60.2201 61.1689 60.1486 61.0966 60.093 61.0218C62.6216 58.5181 64.8632 55.7467 66.5739 52.5962C66.6454 52.4637 66.3777 52.6151 66.5146 52.3588C67.3047 50.8686 67.9181 49.361 68.6459 47.7877C68.7169 47.6312 68.9647 47.8108 69.0851 47.3136C69.1078 47.2264 69.3032 46.483 69.2963 46.2763C69.2947 46.248 69.1257 46.3423 69.1912 46.1064C69.5742 44.7311 69.9303 43.2875 70.2347 41.8893C70.284 41.6631 70.3886 41.9288 70.4248 41.7672C70.6799 40.6241 70.6965 39.348 70.8813 38.2341C71.0026 37.4915 71.2389 37.7773 71.4966 37.3804C71.5335 37.3242 71.5467 36.8509 71.689 36.8271C72.049 36.766 72.44 37.0047 72.824 36.9126C72.9079 36.8933 72.8205 36.232 73.0191 36.624C73.033 36.6514 73.0945 37.132 73.1588 37.2517C73.2039 37.3352 73.3524 37.1891 73.4085 37.3595C73.4643 37.5302 73.3377 37.7121 73.3969 37.9937C73.4558 38.2767 73.6292 38.1569 73.6172 38.7241ZM19.782 5.87296C19.3473 5.95406 19.5432 6.42727 19.877 6.10369C19.8929 6.08758 19.8042 5.86858 19.782 5.87296ZM64.9585 16.1787C64.82 15.6004 64.3279 15.499 64.419 15.9105C64.5065 16.32 64.9994 16.3536 64.9585 16.1787ZM68.0228 20.9759C67.892 20.3183 67.2055 20.5609 67.6411 21.1029C67.666 21.1345 68.0302 21.0141 68.0228 20.9759ZM71.4703 39.2621C71.4779 39.257 71.5092 38.918 71.5027 38.9093C71.3546 38.7184 71.2927 39.3932 71.4703 39.2621ZM70.278 26.1851C70.3139 25.9639 70.0272 25.4419 69.9889 25.7186C69.9591 25.94 70.2347 26.4595 70.278 26.1851ZM4.52615 21.2208C4.51626 21.2234 4.40468 21.4428 4.44573 21.4566C4.57734 21.5 4.68881 21.1758 4.52615 21.2208ZM71.8081 35.7105C71.7965 34.2921 72.316 33.3611 72.3393 34.9485C72.3402 35.2332 72.1206 34.3445 72.0844 34.7091C72.0178 35.3696 72.403 35.803 72.2043 36.4875C72.1693 36.6086 71.8094 35.7896 71.8072 35.708C71.8075 35.7088 71.8078 35.7097 71.8081 35.7105ZM19.2741 5.45563C19.2632 5.45354 18.9622 5.61562 18.9586 5.6258C18.8779 5.85653 19.4813 5.53141 19.2741 5.45563ZM0.785362 35.0591C0.768214 35.0768 0.73234 35.8742 0.747236 35.9011C0.999813 36.3184 1.07117 34.7186 0.785362 35.0591ZM41.5544 0.98448C41.9476 0.875452 42.4039 0.929032 42.6645 1.1816C42.2977 1.10701 41.9235 1.0466 41.5544 0.98448Z" fill="#01A601"/>
<path d="M46.6685 48.7816H20.1533C18.966 48.7816 18 49.7475 18 50.9348C18 52.1221 18.966 53.0881 20.1533 53.0881L46.6685 53.0898C47.8558 53.0898 48.8218 52.1238 48.8218 50.9365C48.8218 49.7492 47.8558 48.7833 46.6685 48.7833V48.7816Z" fill="#01A601"/>
<path d="M46.4504 22.8614C42.288 22.8614 38.9009 26.2483 38.9009 30.4109C38.9009 34.5736 42.2878 37.9605 46.4504 37.9605C50.6129 37.9605 54 34.5736 54 30.4109C54 26.2483 50.6131 22.8614 46.4504 22.8614ZM45.8808 33.06C45.747 33.1938 45.572 33.2607 45.3952 33.2607C45.2202 33.2607 45.0435 33.1938 44.9096 33.06L42.6929 30.8432L43.664 29.8721L45.3952 31.6033L49.2385 27.76L50.2096 28.7311L45.8808 33.06Z" fill="#01A601"/>
<path d="M32.0386 21.489C32.0386 21.6297 32.066 21.7635 32.1055 21.8922C32.5344 21.8493 32.9703 21.8253 33.4112 21.8253C33.8521 21.8253 34.2862 21.8493 34.7169 21.8922C34.7564 21.7635 34.7838 21.6314 34.7838 21.489C34.7838 20.7323 34.1679 20.1164 33.4112 20.1164C32.6545 20.1164 32.0386 20.7323 32.0386 21.489Z" fill="#01A601"/>
<path d="M30.7409 22.1029C30.6946 21.9056 30.6654 21.7015 30.6654 21.4887C30.6654 19.9754 31.8973 18.7435 33.4106 18.7435C34.9239 18.7435 36.1558 19.9754 36.1558 21.4887C36.1558 21.6998 36.1267 21.9039 36.0803 22.1029C36.9931 22.2934 37.8664 22.5851 38.6968 22.9574C38.829 22.4821 38.8993 21.9897 38.8993 21.4904C38.8993 18.4638 36.4355 16 33.4089 16C30.3823 16 27.9185 18.4638 27.9185 21.4904C27.9185 21.9897 27.9888 22.4821 28.1209 22.9574C28.953 22.5868 29.8264 22.2951 30.7374 22.1029H30.7409Z" fill="#01A601"/>
<path d="M33.4117 57.1767C35.2716 57.1767 36.8741 56.0597 37.5896 54.4623H29.2354C29.9508 56.0597 31.5518 57.1767 33.4117 57.1767Z" fill="#01A601"/>
<path d="M46.8153 47.4245C46.6437 46.4757 45.9762 45.6795 45.0755 45.3416V39.2164C40.8067 38.5524 37.5259 34.8635 37.5259 30.4111C37.5259 28.3316 38.2465 26.4203 39.4459 24.9C37.6821 23.8277 35.6198 23.198 33.4082 23.198C26.9743 23.198 21.7412 28.431 21.7412 34.8649V45.3416C20.8387 45.6778 20.173 46.4739 20.0015 47.4245C20.0529 47.4228 46.7658 47.4228 46.8172 47.4245H46.8153ZM25.859 34.865H24.4864C24.4864 34.2902 24.5413 33.7137 24.6511 33.1493L25.9979 33.4118C25.9053 33.8888 25.8572 34.3778 25.8572 34.8651L25.859 34.865ZM33.4085 27.3155C30.2841 27.3155 27.4428 29.2835 26.3395 32.212L25.0561 31.7282C26.3601 28.2675 29.7159 25.9426 33.4086 25.9426L33.4085 27.3155Z" fill="#01A601"/>
</svg>
